G04 #@! TF.GenerationSoftware,KiCad,Pcbnew,9.0.6*
G04 #@! TF.CreationDate,2026-06-09T10:52:25+02:00*
G04 #@! TF.ProjectId,Convertisseur DC-DC,436f6e76-6572-4746-9973-736575722044,rev?*
G04 #@! TF.SameCoordinates,Original*
G04 #@! TF.FileFunction,Copper,L2,Inr*
G04 #@! TF.FilePolarity,Positive*
%FSLAX46Y46*%
G04 Gerber Fmt 4.6, Leading zero omitted, Abs format (unit mm)*
G04 Created by KiCad (PCBNEW 9.0.6) date 2026-06-09 10:52:25*
%MOMM*%
%LPD*%
G01*
G04 APERTURE LIST*
G04 Aperture macros list*
%AMRoundRect*
0 Rectangle with rounded corners*
0 $1 Rounding radius*
0 $2 $3 $4 $5 $6 $7 $8 $9 X,Y pos of 4 corners*
0 Add a 4 corners polygon primitive as box body*
4,1,4,$2,$3,$4,$5,$6,$7,$8,$9,$2,$3,0*
0 Add four circle primitives for the rounded corners*
1,1,$1+$1,$2,$3*
1,1,$1+$1,$4,$5*
1,1,$1+$1,$6,$7*
1,1,$1+$1,$8,$9*
0 Add four rect primitives between the rounded corners*
20,1,$1+$1,$2,$3,$4,$5,0*
20,1,$1+$1,$4,$5,$6,$7,0*
20,1,$1+$1,$6,$7,$8,$9,0*
20,1,$1+$1,$8,$9,$2,$3,0*%
G04 Aperture macros list end*
G04 #@! TA.AperFunction,ComponentPad*
%ADD10C,1.530000*%
G04 #@! TD*
G04 #@! TA.AperFunction,ComponentPad*
%ADD11C,0.600000*%
G04 #@! TD*
G04 #@! TA.AperFunction,ComponentPad*
%ADD12RoundRect,0.250000X0.625000X-0.350000X0.625000X0.350000X-0.625000X0.350000X-0.625000X-0.350000X0*%
G04 #@! TD*
G04 #@! TA.AperFunction,ComponentPad*
%ADD13O,1.750000X1.200000*%
G04 #@! TD*
G04 #@! TA.AperFunction,ComponentPad*
%ADD14C,1.800000*%
G04 #@! TD*
G04 #@! TA.AperFunction,ComponentPad*
%ADD15C,3.300000*%
G04 #@! TD*
G04 #@! TA.AperFunction,ComponentPad*
%ADD16R,1.650000X1.650000*%
G04 #@! TD*
G04 #@! TA.AperFunction,ComponentPad*
%ADD17C,1.650000*%
G04 #@! TD*
G04 #@! TA.AperFunction,ComponentPad*
%ADD18R,1.700000X1.700000*%
G04 #@! TD*
G04 #@! TA.AperFunction,ComponentPad*
%ADD19C,1.700000*%
G04 #@! TD*
G04 #@! TA.AperFunction,HeatsinkPad*
%ADD20O,1.000000X2.100000*%
G04 #@! TD*
G04 #@! TA.AperFunction,HeatsinkPad*
%ADD21O,1.000000X1.800000*%
G04 #@! TD*
G04 #@! TA.AperFunction,ViaPad*
%ADD22C,0.600000*%
G04 #@! TD*
G04 #@! TA.AperFunction,ViaPad*
%ADD23C,1.000000*%
G04 #@! TD*
G04 APERTURE END LIST*
D10*
X173400000Y-62000000D03*
D11*
X151540000Y-64170000D03*
X151540000Y-65370000D03*
X151540000Y-66670000D03*
X151540000Y-67770000D03*
X152740000Y-64170000D03*
X152740000Y-65370000D03*
X152740000Y-66670000D03*
X152740000Y-67770000D03*
D12*
X114450000Y-119000000D03*
D13*
X114450000Y-117000000D03*
D14*
X119285000Y-80560000D03*
X119285000Y-90720000D03*
D15*
X125645000Y-85640000D03*
D14*
X129445000Y-80560000D03*
X129445000Y-90720000D03*
X119310000Y-63040000D03*
X119310000Y-73200000D03*
D15*
X125670000Y-68120000D03*
D14*
X129470000Y-63040000D03*
X129470000Y-73200000D03*
D10*
X186300000Y-124600000D03*
D16*
X156260000Y-125100000D03*
D17*
X161340000Y-125100000D03*
D18*
X150100000Y-104760000D03*
D19*
X150100000Y-102220000D03*
X150100000Y-99680000D03*
X150100000Y-97140000D03*
X150100000Y-94600000D03*
D18*
X166400000Y-114800000D03*
D19*
X166400000Y-112260000D03*
D20*
X136650000Y-122995000D03*
D21*
X136650000Y-127175000D03*
D20*
X145290000Y-122995000D03*
D21*
X145290000Y-127175000D03*
D10*
X131400000Y-119400000D03*
D22*
X148800000Y-96200000D03*
X140775735Y-96175735D03*
X167000000Y-70800000D03*
X145200000Y-107300000D03*
X173000000Y-74500000D03*
X132500000Y-108000000D03*
X177700000Y-118800000D03*
X157400000Y-108500000D03*
X166300000Y-76800000D03*
X138800000Y-94500000D03*
X147000000Y-70500000D03*
X137000000Y-72600000D03*
X143400000Y-88700000D03*
X148400000Y-112300000D03*
X145000000Y-98190000D03*
X142900000Y-100032500D03*
X158900000Y-67900000D03*
X145000000Y-97200000D03*
X132600000Y-97400000D03*
X188000000Y-118200000D03*
X147000000Y-62500000D03*
X119500000Y-105400000D03*
X153157500Y-70900000D03*
X132200000Y-104500000D03*
X134300000Y-114000000D03*
X158300000Y-62600000D03*
X166400000Y-97700000D03*
X163900000Y-87600000D03*
X142300000Y-105200000D03*
X122500000Y-113800000D03*
X128400000Y-98000000D03*
X166600000Y-68500000D03*
X146100000Y-94500000D03*
X161200000Y-67900000D03*
X156200000Y-114500000D03*
X171600000Y-69700000D03*
X150952500Y-70900000D03*
X163900000Y-108300000D03*
X137100000Y-104532500D03*
X188000000Y-66600000D03*
X140900000Y-119000000D03*
X144000000Y-115200000D03*
X131200000Y-101900000D03*
X137900000Y-115200000D03*
X147100000Y-103500000D03*
X120600000Y-108500000D03*
X171500000Y-67500000D03*
X137100000Y-102500000D03*
X144900000Y-62500000D03*
X171900000Y-105300000D03*
X188000000Y-121100000D03*
X132500000Y-106300000D03*
X175100000Y-62000000D03*
X144900000Y-70600000D03*
X143900000Y-65292500D03*
D23*
X175800000Y-69700000D03*
X142800000Y-61100000D03*
D22*
X142400000Y-70580000D03*
X171200000Y-79200000D03*
X160300000Y-80900000D03*
X160200000Y-101600000D03*
X173200000Y-101000000D03*
D23*
X174400000Y-126000000D03*
D22*
X164900000Y-114800000D03*
X157400000Y-106600000D03*
X139100000Y-109900000D03*
X143100000Y-110600000D03*
X146700000Y-108400000D03*
X140070000Y-108400000D03*
X162700000Y-87800000D03*
X138300000Y-111500000D03*
X143100000Y-109799997D03*
X140300000Y-109800000D03*
X162663760Y-79574208D03*
X160300000Y-76800000D03*
X162600000Y-100200000D03*
X160200000Y-97500000D03*
X139600000Y-109200000D03*
X153400000Y-108500000D03*
X117800000Y-105400000D03*
X147700000Y-88662500D03*
X136300000Y-106300000D03*
X130062500Y-99537500D03*
X150100000Y-106000000D03*
X147100000Y-99900000D03*
X143600000Y-107300000D03*
X133982500Y-104500000D03*
X148300000Y-118600000D03*
X143600000Y-97200000D03*
X161700000Y-91500000D03*
X166300000Y-99300000D03*
X166262500Y-78562500D03*
X162500000Y-70800000D03*
X159980000Y-69920000D03*
X119400000Y-110600000D03*
X122500000Y-115600000D03*
X122400000Y-119400000D03*
X141000000Y-114300000D03*
X138800000Y-114300000D03*
X163400000Y-75600000D03*
X189700000Y-72900000D03*
X187800000Y-103500000D03*
X163500000Y-96300000D03*
G04 #@! TA.AperFunction,Conductor*
G36*
X189198729Y-58309725D02*
G01*
X189488796Y-58327271D01*
X189503657Y-58329075D01*
X189558227Y-58339076D01*
X189785798Y-58380780D01*
X189800335Y-58384363D01*
X190074172Y-58469695D01*
X190088163Y-58475000D01*
X190349743Y-58592727D01*
X190362989Y-58599680D01*
X190608465Y-58748075D01*
X190620776Y-58756573D01*
X190846573Y-58933473D01*
X190857781Y-58943403D01*
X191060596Y-59146218D01*
X191070526Y-59157426D01*
X191190481Y-59310538D01*
X191247422Y-59383217D01*
X191255928Y-59395540D01*
X191404316Y-59641004D01*
X191411275Y-59654263D01*
X191528997Y-59915831D01*
X191534306Y-59929832D01*
X191619635Y-60203663D01*
X191623219Y-60218201D01*
X191674923Y-60500340D01*
X191676728Y-60515205D01*
X191694274Y-60805263D01*
X191694500Y-60812750D01*
X191694500Y-126805249D01*
X191694274Y-126812736D01*
X191676728Y-127102794D01*
X191674923Y-127117659D01*
X191623219Y-127399798D01*
X191619635Y-127414336D01*
X191534306Y-127688167D01*
X191528997Y-127702168D01*
X191411275Y-127963736D01*
X191404316Y-127976995D01*
X191255928Y-128222459D01*
X191247422Y-128234782D01*
X191070526Y-128460573D01*
X191060596Y-128471781D01*
X190857781Y-128674596D01*
X190846573Y-128684526D01*
X190620782Y-128861422D01*
X190608459Y-128869928D01*
X190362995Y-129018316D01*
X190349736Y-129025275D01*
X190088168Y-129142997D01*
X190074167Y-129148306D01*
X189800336Y-129233635D01*
X189785798Y-129237219D01*
X189503659Y-129288923D01*
X189488794Y-129290728D01*
X189198736Y-129308274D01*
X189191249Y-129308500D01*
X115198751Y-129308500D01*
X115191264Y-129308274D01*
X114901205Y-129290728D01*
X114886340Y-129288923D01*
X114604201Y-129237219D01*
X114589663Y-129233635D01*
X114315832Y-129148306D01*
X114301831Y-129142997D01*
X114040263Y-129025275D01*
X114027004Y-129018316D01*
X113781540Y-128869928D01*
X113769217Y-128861422D01*
X113543426Y-128684526D01*
X113532218Y-128674596D01*
X113329403Y-128471781D01*
X113319473Y-128460573D01*
X113142573Y-128234776D01*
X113134075Y-128222465D01*
X112985680Y-127976989D01*
X112978727Y-127963743D01*
X112861000Y-127702163D01*
X112855693Y-127688167D01*
X112832736Y-127614496D01*
X112770363Y-127414335D01*
X112766781Y-127399803D01*
X112766083Y-127395995D01*
X112766083Y-127395993D01*
X112766082Y-127395990D01*
X112715076Y-127117659D01*
X112713271Y-127102794D01*
X112707083Y-127000500D01*
X112695726Y-126812736D01*
X112695500Y-126805249D01*
X112695500Y-126735296D01*
X112695466Y-126734782D01*
X112695440Y-126676504D01*
X135650000Y-126676504D01*
X135650000Y-126925000D01*
X136350000Y-126925000D01*
X136350000Y-127425000D01*
X135650000Y-127425000D01*
X135650000Y-127673495D01*
X135688427Y-127866681D01*
X135688430Y-127866693D01*
X135763807Y-128048671D01*
X135763814Y-128048684D01*
X135873248Y-128212462D01*
X135873251Y-128212466D01*
X136012533Y-128351748D01*
X136012537Y-128351751D01*
X136176315Y-128461185D01*
X136176328Y-128461192D01*
X136358308Y-128536569D01*
X136400000Y-128544862D01*
X136400000Y-127741988D01*
X136409940Y-127759205D01*
X136465795Y-127815060D01*
X136534204Y-127854556D01*
X136610504Y-127875000D01*
X136689496Y-127875000D01*
X136765796Y-127854556D01*
X136834205Y-127815060D01*
X136890060Y-127759205D01*
X136900000Y-127741988D01*
X136900000Y-128544862D01*
X136941690Y-128536569D01*
X136941692Y-128536569D01*
X137123671Y-128461192D01*
X137123684Y-128461185D01*
X137287462Y-128351751D01*
X137287466Y-128351748D01*
X137426748Y-128212466D01*
X137426751Y-128212462D01*
X137536185Y-128048684D01*
X137536192Y-128048671D01*
X137611569Y-127866693D01*
X137611572Y-127866681D01*
X137649999Y-127673495D01*
X137650000Y-127673492D01*
X137650000Y-127425000D01*
X136950000Y-127425000D01*
X136950000Y-126925000D01*
X137650000Y-126925000D01*
X137650000Y-126676508D01*
X137649999Y-126676504D01*
X144290000Y-126676504D01*
X144290000Y-126925000D01*
X144990000Y-126925000D01*
X144990000Y-127425000D01*
X144290000Y-127425000D01*
X144290000Y-127673495D01*
X144328427Y-127866681D01*
X144328430Y-127866693D01*
X144403807Y-128048671D01*
X144403814Y-128048684D01*
X144513248Y-128212462D01*
X144513251Y-128212466D01*
X144652533Y-128351748D01*
X144652537Y-128351751D01*
X144816315Y-128461185D01*
X144816328Y-128461192D01*
X144998308Y-128536569D01*
X145040000Y-128544862D01*
X145040000Y-127741988D01*
X145049940Y-127759205D01*
X145105795Y-127815060D01*
X145174204Y-127854556D01*
X145250504Y-127875000D01*
X145329496Y-127875000D01*
X145405796Y-127854556D01*
X145474205Y-127815060D01*
X145530060Y-127759205D01*
X145540000Y-127741988D01*
X145540000Y-128544862D01*
X145581690Y-128536569D01*
X145581692Y-128536569D01*
X145763671Y-128461192D01*
X145763684Y-128461185D01*
X145927462Y-128351751D01*
X145927466Y-128351748D01*
X146066748Y-128212466D01*
X146066751Y-128212462D01*
X146176185Y-128048684D01*
X146176192Y-128048671D01*
X146251569Y-127866693D01*
X146251572Y-127866681D01*
X146289999Y-127673495D01*
X146290000Y-127673492D01*
X146290000Y-127425000D01*
X145590000Y-127425000D01*
X145590000Y-126925000D01*
X146290000Y-126925000D01*
X146290000Y-126676508D01*
X146289999Y-126676504D01*
X146251572Y-126483318D01*
X146251569Y-126483306D01*
X146176192Y-126301328D01*
X146176185Y-126301315D01*
X146066751Y-126137537D01*
X146066748Y-126137533D01*
X145927466Y-125998251D01*
X145927462Y-125998248D01*
X145763684Y-125888814D01*
X145763671Y-125888807D01*
X145581691Y-125813429D01*
X145581683Y-125813427D01*
X145540000Y-125805135D01*
X145540000Y-126608011D01*
X145530060Y-126590795D01*
X145474205Y-126534940D01*
X145405796Y-126495444D01*
X145329496Y-126475000D01*
X145250504Y-126475000D01*
X145174204Y-126495444D01*
X145105795Y-126534940D01*
X145049940Y-126590795D01*
X145040000Y-126608011D01*
X145040000Y-125805136D01*
X145039999Y-125805135D01*
X144998316Y-125813427D01*
X144998308Y-125813429D01*
X144816328Y-125888807D01*
X144816315Y-125888814D01*
X144652537Y-125998248D01*
X144652533Y-125998251D01*
X144513251Y-126137533D01*
X144513248Y-126137537D01*
X144403814Y-126301315D01*
X144403807Y-126301328D01*
X144328430Y-126483306D01*
X144328427Y-126483318D01*
X144290000Y-126676504D01*
X137649999Y-126676504D01*
X137611572Y-126483318D01*
X137611569Y-126483306D01*
X137536192Y-126301328D01*
X137536185Y-126301315D01*
X137426751Y-126137537D01*
X137426748Y-126137533D01*
X137287466Y-125998251D01*
X137287462Y-125998248D01*
X137123684Y-125888814D01*
X137123671Y-125888807D01*
X136941691Y-125813429D01*
X136941683Y-125813427D01*
X136900000Y-125805135D01*
X136900000Y-126608011D01*
X136890060Y-126590795D01*
X136834205Y-126534940D01*
X136765796Y-126495444D01*
X136689496Y-126475000D01*
X136610504Y-126475000D01*
X136534204Y-126495444D01*
X136465795Y-126534940D01*
X136409940Y-126590795D01*
X136400000Y-126608011D01*
X136400000Y-125805136D01*
X136399999Y-125805135D01*
X136358316Y-125813427D01*
X136358308Y-125813429D01*
X136176328Y-125888807D01*
X136176315Y-125888814D01*
X136012537Y-125998248D01*
X136012533Y-125998251D01*
X135873251Y-126137533D01*
X135873248Y-126137537D01*
X135763814Y-126301315D01*
X135763807Y-126301328D01*
X135688430Y-126483306D01*
X135688427Y-126483318D01*
X135650000Y-126676504D01*
X112695440Y-126676504D01*
X112695437Y-126670473D01*
X112695057Y-125834338D01*
X112693471Y-122346504D01*
X135650000Y-122346504D01*
X135650000Y-122745000D01*
X136350000Y-122745000D01*
X136350000Y-123245000D01*
X135650000Y-123245000D01*
X135650000Y-123643495D01*
X135688427Y-123836681D01*
X135688430Y-123836693D01*
X135763807Y-124018671D01*
X135763814Y-124018684D01*
X135873248Y-124182462D01*
X135873251Y-124182466D01*
X136012533Y-124321748D01*
X136012537Y-124321751D01*
X136176315Y-124431185D01*
X136176328Y-124431192D01*
X136358308Y-124506569D01*
X136400000Y-124514862D01*
X136400000Y-123711988D01*
X136409940Y-123729205D01*
X136465795Y-123785060D01*
X136534204Y-123824556D01*
X136610504Y-123845000D01*
X136689496Y-123845000D01*
X136765796Y-123824556D01*
X136834205Y-123785060D01*
X136890060Y-123729205D01*
X136900000Y-123711988D01*
X136900000Y-124514862D01*
X136941690Y-124506569D01*
X136941692Y-124506569D01*
X137123671Y-124431192D01*
X137123684Y-124431185D01*
X137287462Y-124321751D01*
X137287466Y-124321748D01*
X137426748Y-124182466D01*
X137426751Y-124182462D01*
X137536185Y-124018684D01*
X137536186Y-124018682D01*
X137540129Y-124009163D01*
X137583968Y-123954757D01*
X137650261Y-123932689D01*
X137717961Y-123949965D01*
X137723400Y-123953647D01*
X137726634Y-123955514D01*
X137726635Y-123955515D01*
X137857865Y-124031281D01*
X138004234Y-124070500D01*
X138004236Y-124070500D01*
X138155764Y-124070500D01*
X138155766Y-124070500D01*
X138302135Y-124031281D01*
X138433365Y-123955515D01*
X138540515Y-123848365D01*
X138616281Y-123717135D01*
X138655500Y-123570766D01*
X138655500Y-123419234D01*
X143284500Y-123419234D01*
X143284500Y-123570765D01*
X143323719Y-123717136D01*
X143360539Y-123780908D01*
X143399485Y-123848365D01*
X143506635Y-123955515D01*
X143637865Y-124031281D01*
X143784234Y-124070500D01*
X143784236Y-124070500D01*
X143935764Y-124070500D01*
X143935766Y-124070500D01*
X144082135Y-124031281D01*
X144213365Y-123955515D01*
X144213366Y-123955513D01*
X144220403Y-123951451D01*
X144221676Y-123953656D01*
X144274956Y-123933043D01*
X144343405Y-123947063D01*
X144393407Y-123995864D01*
X144399867Y-124009157D01*
X144403809Y-124018674D01*
X144403814Y-124018684D01*
X144513248Y-124182462D01*
X144513251Y-124182466D01*
X144652533Y-124321748D01*
X144652537Y-124321751D01*
X144816315Y-124431185D01*
X144816328Y-124431192D01*
X144998308Y-124506569D01*
X145040000Y-124514862D01*
X145040000Y-123711988D01*
X145049940Y-123729205D01*
X145105795Y-123785060D01*
X145174204Y-123824556D01*
X145250504Y-123845000D01*
X145329496Y-123845000D01*
X145405796Y-123824556D01*
X145474205Y-123785060D01*
X145530060Y-123729205D01*
X145540000Y-123711988D01*
X145540000Y-124514862D01*
X145581690Y-124506569D01*
X145581692Y-124506569D01*
X145763671Y-124431192D01*
X145763684Y-124431185D01*
X145927462Y-124321751D01*
X145927466Y-124321748D01*
X146022079Y-124227135D01*
X154934500Y-124227135D01*
X154934500Y-125972870D01*
X154934501Y-125972876D01*
X154940908Y-126032483D01*
X154991202Y-126167328D01*
X154991206Y-126167335D01*
X155077452Y-126282544D01*
X155077455Y-126282547D01*
X155192664Y-126368793D01*
X155192671Y-126368797D01*
X155327517Y-126419091D01*
X155327516Y-126419091D01*
X155334444Y-126419835D01*
X155387127Y-126425500D01*
X157132872Y-126425499D01*
X157192483Y-126419091D01*
X157327331Y-126368796D01*
X157442546Y-126282546D01*
X157528796Y-126167331D01*
X157532598Y-126157136D01*
X157551381Y-126106779D01*
X157579091Y-126032482D01*
X157582771Y-125998251D01*
X157585500Y-125972873D01*
X157585499Y-124995720D01*
X160015000Y-124995720D01*
X160015000Y-125204279D01*
X160047626Y-125410272D01*
X160112075Y-125608627D01*
X160206759Y-125794451D01*
X160242627Y-125843818D01*
X160242627Y-125843819D01*
X160816212Y-125270234D01*
X160827482Y-125312292D01*
X160899890Y-125437708D01*
X161002292Y-125540110D01*
X161127708Y-125612518D01*
X161169765Y-125623787D01*
X160596179Y-126197371D01*
X160596180Y-126197372D01*
X160645543Y-126233236D01*
X160645556Y-126233244D01*
X160831372Y-126327924D01*
X161029727Y-126392373D01*
X161235721Y-126425000D01*
X161444279Y-126425000D01*
X161650272Y-126392373D01*
X161848627Y-126327924D01*
X162034451Y-126233240D01*
X162083818Y-126197372D01*
X162083818Y-126197371D01*
X161984990Y-126098543D01*
X173399499Y-126098543D01*
X173437947Y-126291829D01*
X173437950Y-126291839D01*
X173513364Y-126473907D01*
X173513371Y-126473920D01*
X173622860Y-126637781D01*
X173622863Y-126637785D01*
X173762214Y-126777136D01*
X173762218Y-126777139D01*
X173926079Y-126886628D01*
X173926092Y-126886635D01*
X174018715Y-126925000D01*
X174108165Y-126962051D01*
X174108169Y-126962051D01*
X174108170Y-126962052D01*
X174301456Y-127000500D01*
X174301459Y-127000500D01*
X174498543Y-127000500D01*
X174628582Y-126974632D01*
X174691835Y-126962051D01*
X174873914Y-126886632D01*
X175037782Y-126777139D01*
X175177139Y-126637782D01*
X175286632Y-126473914D01*
X175362051Y-126291835D01*
X175392744Y-126137533D01*
X175400500Y-126098543D01*
X175400500Y-125901456D01*
X175362052Y-125708170D01*
X175362051Y-125708169D01*
X175362051Y-125708165D01*
X175362049Y-125708160D01*
X175286635Y-125526092D01*
X175286628Y-125526079D01*
X175177139Y-125362218D01*
X175177136Y-125362214D01*
X175037785Y-125222863D01*
X175037781Y-125222860D01*
X174873920Y-125113371D01*
X174873907Y-125113364D01*
X174691839Y-125037950D01*
X174691829Y-125037947D01*
X174498543Y-124999500D01*
X174498541Y-124999500D01*
X174301459Y-124999500D01*
X174301457Y-124999500D01*
X174108170Y-125037947D01*
X174108160Y-125037950D01*
X173926092Y-125113364D01*
X173926079Y-125113371D01*
X173762218Y-125222860D01*
X173762214Y-125222863D01*
X173622863Y-125362214D01*
X173622860Y-125362218D01*
X173513371Y-125526079D01*
X173513364Y-125526092D01*
X173437950Y-125708160D01*
X173437947Y-125708170D01*
X173399500Y-125901456D01*
X173399500Y-125901459D01*
X173399500Y-126098541D01*
X173399500Y-126098543D01*
X173399499Y-126098543D01*
X161984990Y-126098543D01*
X161510234Y-125623787D01*
X161552292Y-125612518D01*
X161677708Y-125540110D01*
X161780110Y-125437708D01*
X161852518Y-125312292D01*
X161863787Y-125270234D01*
X162437371Y-125843818D01*
X162437372Y-125843818D01*
X162452876Y-125822480D01*
X162473240Y-125794451D01*
X162567924Y-125608627D01*
X162632373Y-125410272D01*
X162665000Y-125204279D01*
X162665000Y-124995720D01*
X162632373Y-124789727D01*
X162567923Y-124591372D01*
X162547774Y-124551826D01*
X162547773Y-124551824D01*
X162521572Y-124500403D01*
X185034500Y-124500403D01*
X185034500Y-124699596D01*
X185065661Y-124896340D01*
X185065661Y-124896343D01*
X185127213Y-125085780D01*
X185171353Y-125172409D01*
X185217647Y-125263266D01*
X185334731Y-125424418D01*
X185475582Y-125565269D01*
X185636734Y-125682353D01*
X185687403Y-125708170D01*
X185814219Y-125772786D01*
X186003657Y-125834338D01*
X186003658Y-125834338D01*
X186003661Y-125834339D01*
X186200403Y-125865500D01*
X186200404Y-125865500D01*
X186399596Y-125865500D01*
X186399597Y-125865500D01*
X186596339Y-125834339D01*
X186596342Y-125834338D01*
X186596343Y-125834338D01*
X186785780Y-125772786D01*
X186785780Y-125772785D01*
X186785783Y-125772785D01*
X186963266Y-125682353D01*
X187124418Y-125565269D01*
X187265269Y-125424418D01*
X187382353Y-125263266D01*
X187472785Y-125085783D01*
X187534339Y-124896339D01*
X187565500Y-124699597D01*
X187565500Y-124500403D01*
X187534339Y-124303661D01*
X187534338Y-124303657D01*
X187534338Y-124303656D01*
X187472786Y-124114219D01*
X187450510Y-124070500D01*
X187382353Y-123936734D01*
X187265269Y-123775582D01*
X187124418Y-123634731D01*
X186963266Y-123517647D01*
X186785780Y-123427213D01*
X186596342Y-123365661D01*
X186448782Y-123342290D01*
X186399597Y-123334500D01*
X186200403Y-123334500D01*
X186134822Y-123344887D01*
X186003659Y-123365661D01*
X186003656Y-123365661D01*
X185814219Y-123427213D01*
X185636733Y-123517647D01*
X185563625Y-123570764D01*
X185475582Y-123634731D01*
X185475580Y-123634733D01*
X185475579Y-123634733D01*
X185334733Y-123775579D01*
X185334733Y-123775580D01*
X185334731Y-123775582D01*
X185330861Y-123780909D01*
X185217647Y-123936733D01*
X185127213Y-124114219D01*
X185065661Y-124303656D01*
X185065661Y-124303659D01*
X185034500Y-124500403D01*
X162521572Y-124500403D01*
X162473247Y-124405561D01*
X162473236Y-124405543D01*
X162437372Y-124356180D01*
X162437371Y-124356179D01*
X161863787Y-124929764D01*
X161852518Y-124887708D01*
X161780110Y-124762292D01*
X161677708Y-124659890D01*
X161552292Y-124587482D01*
X161510233Y-124576212D01*
X162083819Y-124002627D01*
X162034451Y-123966759D01*
X161848627Y-123872075D01*
X161650272Y-123807626D01*
X161444279Y-123775000D01*
X161235721Y-123775000D01*
X161029727Y-123807626D01*
X160831372Y-123872075D01*
X160645552Y-123966757D01*
X160596180Y-124002627D01*
X161169766Y-124576212D01*
X161127708Y-124587482D01*
X161002292Y-124659890D01*
X160899890Y-124762292D01*
X160827482Y-124887708D01*
X160816212Y-124929765D01*
X160242627Y-124356180D01*
X160206757Y-124405552D01*
X160112075Y-124591372D01*
X160047626Y-124789727D01*
X160015000Y-124995720D01*
X157585499Y-124995720D01*
X157585499Y-124227128D01*
X157579091Y-124167517D01*
X157574391Y-124154916D01*
X157551380Y-124093219D01*
X157528797Y-124032671D01*
X157528793Y-124032664D01*
X157442547Y-123917455D01*
X157442544Y-123917452D01*
X157327335Y-123831206D01*
X157327328Y-123831202D01*
X157192482Y-123780908D01*
X157192483Y-123780908D01*
X157132883Y-123774501D01*
X157132881Y-123774500D01*
X157132873Y-123774500D01*
X157132864Y-123774500D01*
X155387129Y-123774500D01*
X155387123Y-123774501D01*
X155327516Y-123780908D01*
X155192671Y-123831202D01*
X155192664Y-123831206D01*
X155077455Y-123917452D01*
X155077452Y-123917455D01*
X154991206Y-124032664D01*
X154991202Y-124032671D01*
X154940908Y-124167517D01*
X154934501Y-124227116D01*
X154934501Y-124227123D01*
X154934500Y-124227135D01*
X146022079Y-124227135D01*
X146066749Y-124182465D01*
X146085157Y-124154916D01*
X146085157Y-124154915D01*
X146176185Y-124018684D01*
X146176192Y-124018671D01*
X146251569Y-123836693D01*
X146251572Y-123836681D01*
X146289999Y-123643495D01*
X146290000Y-123643492D01*
X146290000Y-123245000D01*
X145590000Y-123245000D01*
X145590000Y-122745000D01*
X146290000Y-122745000D01*
X146290000Y-122346508D01*
X146289999Y-122346504D01*
X146251572Y-122153318D01*
X146251569Y-122153306D01*
X146176192Y-121971328D01*
X146176185Y-121971315D01*
X146066751Y-121807537D01*
X146066748Y-121807533D01*
X145927466Y-121668251D01*
X145927462Y-121668248D01*
X145763684Y-121558814D01*
X145763671Y-121558807D01*
X145581691Y-121483429D01*
X145581683Y-121483427D01*
X145540000Y-121475135D01*
X145540000Y-122278011D01*
X145530060Y-122260795D01*
X145474205Y-122204940D01*
X145405796Y-122165444D01*
X145329496Y-122145000D01*
X145250504Y-122145000D01*
X145174204Y-122165444D01*
X145105795Y-122204940D01*
X145049940Y-122260795D01*
X145040000Y-122278011D01*
X145040000Y-121475136D01*
X145039999Y-121475135D01*
X144998316Y-121483427D01*
X144998308Y-121483429D01*
X144816328Y-121558807D01*
X144816315Y-121558814D01*
X144652537Y-121668248D01*
X144652533Y-121668251D01*
X144513251Y-121807533D01*
X144513248Y-121807537D01*
X144403814Y-121971315D01*
X144403807Y-121971328D01*
X144328430Y-122153306D01*
X144328427Y-122153318D01*
X144290000Y-122346504D01*
X144290000Y-122745000D01*
X144990000Y-122745000D01*
X144990000Y-123245000D01*
X144451784Y-123245000D01*
X144384745Y-123225315D01*
X144344397Y-123183000D01*
X144320515Y-123141635D01*
X144213365Y-123034485D01*
X144147750Y-122996602D01*
X144082136Y-122958719D01*
X144008950Y-122939109D01*
X143935766Y-122919500D01*
X143784234Y-122919500D01*
X143637863Y-122958719D01*
X143506635Y-123034485D01*
X143506632Y-123034487D01*
X143399487Y-123141632D01*
X143399485Y-123141635D01*
X143323719Y-123272863D01*
X143284500Y-123419234D01*
X138655500Y-123419234D01*
X138616281Y-123272865D01*
X138540515Y-123141635D01*
X138433365Y-123034485D01*
X138367750Y-122996602D01*
X138302136Y-122958719D01*
X138228950Y-122939109D01*
X138155766Y-122919500D01*
X138004234Y-122919500D01*
X137857863Y-122958719D01*
X137726635Y-123034485D01*
X137726632Y-123034487D01*
X137619487Y-123141632D01*
X137619483Y-123141638D01*
X137595603Y-123183000D01*
X137545036Y-123231216D01*
X137488216Y-123245000D01*
X136950000Y-123245000D01*
X136950000Y-122745000D01*
X137650000Y-122745000D01*
X137650000Y-122346508D01*
X137649999Y-122346504D01*
X137611572Y-122153318D01*
X137611569Y-122153306D01*
X137536192Y-121971328D01*
X137536185Y-121971315D01*
X137426751Y-121807537D01*
X137426748Y-121807533D01*
X137287466Y-121668251D01*
X137287462Y-121668248D01*
X137123684Y-121558814D01*
X137123671Y-121558807D01*
X136941691Y-121483429D01*
X136941683Y-121483427D01*
X136900000Y-121475135D01*
X136900000Y-122278011D01*
X136890060Y-122260795D01*
X136834205Y-122204940D01*
X136765796Y-122165444D01*
X136689496Y-122145000D01*
X136610504Y-122145000D01*
X136534204Y-122165444D01*
X136465795Y-122204940D01*
X136409940Y-122260795D01*
X136400000Y-122278011D01*
X136400000Y-121475136D01*
X136399999Y-121475135D01*
X136358316Y-121483427D01*
X136358308Y-121483429D01*
X136176328Y-121558807D01*
X136176315Y-121558814D01*
X136012537Y-121668248D01*
X136012533Y-121668251D01*
X135873251Y-121807533D01*
X135873248Y-121807537D01*
X135763814Y-121971315D01*
X135763807Y-121971328D01*
X135688430Y-122153306D01*
X135688427Y-122153318D01*
X135650000Y-122346504D01*
X112693471Y-122346504D01*
X112691001Y-116913389D01*
X113074500Y-116913389D01*
X113074500Y-117086611D01*
X113101598Y-117257701D01*
X113155127Y-117422445D01*
X113233768Y-117576788D01*
X113335586Y-117716928D01*
X113335588Y-117716930D01*
X113443491Y-117824833D01*
X113476976Y-117886156D01*
X113471992Y-117955848D01*
X113430120Y-118011781D01*
X113420907Y-118018053D01*
X113356654Y-118057684D01*
X113232684Y-118181654D01*
X113140643Y-118330875D01*
X113140641Y-118330880D01*
X113085494Y-118497302D01*
X113085493Y-118497309D01*
X113075000Y-118600013D01*
X113075000Y-118750000D01*
X114169670Y-118750000D01*
X114149925Y-118769745D01*
X114100556Y-118855255D01*
X114075000Y-118950630D01*
X114075000Y-119049370D01*
X114100556Y-119144745D01*
X114149925Y-119230255D01*
X114169670Y-119250000D01*
X113075001Y-119250000D01*
X113075001Y-119399986D01*
X113085494Y-119502697D01*
X113140641Y-119669119D01*
X113140643Y-119669124D01*
X113232684Y-119818345D01*
X113356654Y-119942315D01*
X113505875Y-120034356D01*
X113505880Y-120034358D01*
X113672302Y-120089505D01*
X113672309Y-120089506D01*
X113775019Y-120099999D01*
X114199999Y-120099999D01*
X114200000Y-120099998D01*
X114200000Y-119280330D01*
X114219745Y-119300075D01*
X114305255Y-119349444D01*
X114400630Y-119375000D01*
X114499370Y-119375000D01*
X114594745Y-119349444D01*
X114680255Y-119300075D01*
X114700000Y-119280330D01*
X114700000Y-120099999D01*
X115124972Y-120099999D01*
X115124986Y-120099998D01*
X115227697Y-120089505D01*
X115394119Y-120034358D01*
X115394124Y-120034356D01*
X115543345Y-119942315D01*
X115667315Y-119818345D01*
X115759356Y-119669124D01*
X115759358Y-119669119D01*
X115814505Y-119502697D01*
X115814506Y-119502690D01*
X115824999Y-119399986D01*
X115825000Y-119399973D01*
X115825000Y-119321153D01*
X121599500Y-119321153D01*
X121599500Y-119478846D01*
X121630261Y-119633489D01*
X121630264Y-119633501D01*
X121690602Y-119779172D01*
X121690609Y-119779185D01*
X121778210Y-119910288D01*
X121778213Y-119910292D01*
X121889707Y-120021786D01*
X121889711Y-120021789D01*
X122020814Y-120109390D01*
X122020827Y-120109397D01*
X122166498Y-120169735D01*
X122166503Y-120169737D01*
X122321153Y-120200499D01*
X122321156Y-120200500D01*
X122321158Y-120200500D01*
X122478844Y-120200500D01*
X122478845Y-120200499D01*
X122633497Y-120169737D01*
X122779179Y-120109394D01*
X122910289Y-120021789D01*
X123021789Y-119910289D01*
X123109394Y-119779179D01*
X123169737Y-119633497D01*
X123200500Y-119478842D01*
X123200500Y-119321158D01*
X123200500Y-119321155D01*
X123200222Y-119319758D01*
X123200222Y-119319757D01*
X123196379Y-119300436D01*
X130135000Y-119300436D01*
X130135000Y-119499563D01*
X130166147Y-119696222D01*
X130227679Y-119885594D01*
X130318077Y-120063008D01*
X130345580Y-120100863D01*
X130345581Y-120100864D01*
X130908871Y-119537574D01*
X130924755Y-119596853D01*
X130991898Y-119713147D01*
X131086853Y-119808102D01*
X131203147Y-119875245D01*
X131262425Y-119891128D01*
X130699134Y-120454417D01*
X130736994Y-120481924D01*
X130914405Y-120572320D01*
X131103777Y-120633852D01*
X131300437Y-120665000D01*
X131499563Y-120665000D01*
X131696222Y-120633852D01*
X131885594Y-120572320D01*
X132063005Y-120481924D01*
X132100863Y-120454418D01*
X132100863Y-120454417D01*
X131537574Y-119891128D01*
X131596853Y-119875245D01*
X131713147Y-119808102D01*
X131808102Y-119713147D01*
X131875245Y-119596853D01*
X131891128Y-119537574D01*
X132454417Y-120100863D01*
X132454418Y-120100863D01*
X132481924Y-120063005D01*
X132572320Y-119885594D01*
X132633852Y-119696222D01*
X132665000Y-119499563D01*
X132665000Y-119300436D01*
X132633852Y-119103777D01*
X132572320Y-118914405D01*
X132481924Y-118736994D01*
X132454417Y-118699135D01*
X132454417Y-118699134D01*
X131891128Y-119262424D01*
X131875245Y-119203147D01*
X131808102Y-119086853D01*
X131713147Y-118991898D01*
X131596853Y-118924755D01*
X131537574Y-118908871D01*
X131925292Y-118521153D01*
X147499500Y-118521153D01*
X147499500Y-118678846D01*
X147530261Y-118833489D01*
X147530264Y-118833501D01*
X147590602Y-118979172D01*
X147590609Y-118979185D01*
X147678210Y-119110288D01*
X147678213Y-119110292D01*
X147789707Y-119221786D01*
X147789711Y-119221789D01*
X147920814Y-119309390D01*
X147920827Y-119309397D01*
X148066498Y-119369735D01*
X148066503Y-119369737D01*
X148218509Y-119399973D01*
X148221153Y-119400499D01*
X148221156Y-119400500D01*
X148221158Y-119400500D01*
X148378844Y-119400500D01*
X148378845Y-119400499D01*
X148533497Y-119369737D01*
X148679179Y-119309394D01*
X148810289Y-119221789D01*
X148921789Y-119110289D01*
X149009394Y-118979179D01*
X149069737Y-118833497D01*
X149100500Y-118678842D01*
X149100500Y-118521158D01*
X149100500Y-118521155D01*
X149100499Y-118521153D01*
X149069738Y-118366510D01*
X149069737Y-118366503D01*
X149061071Y-118345581D01*
X149009397Y-118220827D01*
X149009390Y-118220814D01*
X148921789Y-118089711D01*
X148921786Y-118089707D01*
X148810292Y-117978213D01*
X148810288Y-117978210D01*
X148679185Y-117890609D01*
X148679172Y-117890602D01*
X148533501Y-117830264D01*
X148533489Y-117830261D01*
X148378845Y-117799500D01*
X148378842Y-117799500D01*
X148221158Y-117799500D01*
X148221155Y-117799500D01*
X148066510Y-117830261D01*
X148066498Y-117830264D01*
X147920827Y-117890602D01*
X147920814Y-117890609D01*
X147789711Y-117978210D01*
X147789707Y-117978213D01*
X147678213Y-118089707D01*
X147678210Y-118089711D01*
X147590609Y-118220814D01*
X147590602Y-118220827D01*
X147530264Y-118366498D01*
X147530261Y-118366510D01*
X147499500Y-118521153D01*
X131925292Y-118521153D01*
X132019060Y-118427385D01*
X132100864Y-118345580D01*
X132063008Y-118318077D01*
X131885594Y-118227679D01*
X131696222Y-118166147D01*
X131499563Y-118135000D01*
X131300437Y-118135000D01*
X131103777Y-118166147D01*
X130914405Y-118227679D01*
X130736990Y-118318077D01*
X130699135Y-118345580D01*
X130699135Y-118345581D01*
X131262425Y-118908871D01*
X131203147Y-118924755D01*
X131086853Y-118991898D01*
X130991898Y-119086853D01*
X130924755Y-119203147D01*
X130908871Y-119262425D01*
X130345581Y-118699135D01*
X130345580Y-118699135D01*
X130318077Y-118736990D01*
X130227679Y-118914405D01*
X130166147Y-119103777D01*
X130135000Y-119300436D01*
X123196379Y-119300436D01*
X123169738Y-119166508D01*
X123169737Y-119166507D01*
X123169737Y-119166503D01*
X123146452Y-119110288D01*
X123109397Y-119020827D01*
X123109390Y-119020814D01*
X123021789Y-118889711D01*
X123021786Y-118889707D01*
X122910292Y-118778213D01*
X122910288Y-118778210D01*
X122779185Y-118690609D01*
X122779172Y-118690602D01*
X122633501Y-118630264D01*
X122633489Y-118630261D01*
X122478845Y-118599500D01*
X122478842Y-118599500D01*
X122321158Y-118599500D01*
X122321155Y-118599500D01*
X122166510Y-118630261D01*
X122166498Y-118630264D01*
X122020827Y-118690602D01*
X122020814Y-118690609D01*
X121889711Y-118778210D01*
X121889707Y-118778213D01*
X121778213Y-118889707D01*
X121778210Y-118889711D01*
X121690609Y-119020814D01*
X121690602Y-119020827D01*
X121630264Y-119166498D01*
X121630261Y-119166510D01*
X121599500Y-119321153D01*
X115825000Y-119321153D01*
X115825000Y-119250000D01*
X114730330Y-119250000D01*
X114750075Y-119230255D01*
X114799444Y-119144745D01*
X114825000Y-119049370D01*
X114825000Y-118950630D01*
X114799444Y-118855255D01*
X114750075Y-118769745D01*
X114730330Y-118750000D01*
X115824999Y-118750000D01*
X115824999Y-118600028D01*
X115824998Y-118600013D01*
X115814505Y-118497302D01*
X115792815Y-118431844D01*
X115759357Y-118330878D01*
X115759356Y-118330875D01*
X115667315Y-118181654D01*
X115543343Y-118057682D01*
X115479093Y-118018053D01*
X115432368Y-117966105D01*
X115421145Y-117897143D01*
X115448988Y-117833061D01*
X115456486Y-117824855D01*
X115564414Y-117716928D01*
X115666232Y-117576788D01*
X115744873Y-117422445D01*
X115798402Y-117257701D01*
X115825500Y-117086611D01*
X115825500Y-116913389D01*
X115798402Y-116742299D01*
X115744873Y-116577555D01*
X115666232Y-116423212D01*
X115564414Y-116283072D01*
X115441928Y-116160586D01*
X115301788Y-116058768D01*
X115147445Y-115980127D01*
X114982701Y-115926598D01*
X114982699Y-115926597D01*
X114982698Y-115926597D01*
X114851271Y-115905781D01*
X114811611Y-115899500D01*
X114088389Y-115899500D01*
X114048728Y-115905781D01*
X113917302Y-115926597D01*
X113752552Y-115980128D01*
X113598211Y-116058768D01*
X113518256Y-116116859D01*
X113458072Y-116160586D01*
X113458070Y-116160588D01*
X113458069Y-116160588D01*
X113335588Y-116283069D01*
X113335588Y-116283070D01*
X113335586Y-116283072D01*
X113316465Y-116309390D01*
X113233768Y-116423211D01*
X113155128Y-116577552D01*
X113101597Y-116742302D01*
X113075263Y-116908573D01*
X113074500Y-116913389D01*
X112691001Y-116913389D01*
X112690368Y-115521153D01*
X121699500Y-115521153D01*
X121699500Y-115678846D01*
X121730261Y-115833489D01*
X121730264Y-115833501D01*
X121790602Y-115979172D01*
X121790609Y-115979185D01*
X121878210Y-116110288D01*
X121878213Y-116110292D01*
X121989707Y-116221786D01*
X121989711Y-116221789D01*
X122120814Y-116309390D01*
X122120827Y-116309397D01*
X122266498Y-116369735D01*
X122266503Y-116369737D01*
X122421153Y-116400499D01*
X122421156Y-116400500D01*
X122421158Y-116400500D01*
X122578844Y-116400500D01*
X122578845Y-116400499D01*
X122733497Y-116369737D01*
X122879179Y-116309394D01*
X123010289Y-116221789D01*
X123121789Y-116110289D01*
X123209394Y-115979179D01*
X123269737Y-115833497D01*
X123300500Y-115678842D01*
X123300500Y-115521158D01*
X123300500Y-115521155D01*
X123300499Y-115521153D01*
X123280734Y-115421789D01*
X123269737Y-115366503D01*
X123246452Y-115310288D01*
X123209397Y-115220827D01*
X123209390Y-115220814D01*
X123121789Y-115089711D01*
X123121786Y-115089707D01*
X123010292Y-114978213D01*
X123010288Y-114978210D01*
X122879185Y-114890609D01*
X122879172Y-114890602D01*
X122733501Y-114830264D01*
X122733489Y-114830261D01*
X122578845Y-114799500D01*
X122578842Y-114799500D01*
X122421158Y-114799500D01*
X122421155Y-114799500D01*
X122266510Y-114830261D01*
X122266498Y-114830264D01*
X122120827Y-114890602D01*
X122120814Y-114890609D01*
X121989711Y-114978210D01*
X121989707Y-114978213D01*
X121878213Y-115089707D01*
X121878210Y-115089711D01*
X121790609Y-115220814D01*
X121790602Y-115220827D01*
X121730264Y-115366498D01*
X121730261Y-115366510D01*
X121699500Y-115521153D01*
X112690368Y-115521153D01*
X112689777Y-114221153D01*
X137999500Y-114221153D01*
X137999500Y-114378846D01*
X138030261Y-114533489D01*
X138030264Y-114533501D01*
X138090602Y-114679172D01*
X138090609Y-114679185D01*
X138178210Y-114810288D01*
X138178213Y-114810292D01*
X138289707Y-114921786D01*
X138289711Y-114921789D01*
X138420814Y-115009390D01*
X138420827Y-115009397D01*
X138566498Y-115069735D01*
X138566503Y-115069737D01*
X138721153Y-115100499D01*
X138721156Y-115100500D01*
X138721158Y-115100500D01*
X138878844Y-115100500D01*
X138878845Y-115100499D01*
X139033497Y-115069737D01*
X139179179Y-115009394D01*
X139310289Y-114921789D01*
X139421789Y-114810289D01*
X139509394Y-114679179D01*
X139569737Y-114533497D01*
X139600500Y-114378842D01*
X139600500Y-114221158D01*
X139600500Y-114221155D01*
X139600499Y-114221153D01*
X140199500Y-114221153D01*
X140199500Y-114378846D01*
X140230261Y-114533489D01*
X140230264Y-114533501D01*
X140290602Y-114679172D01*
X140290609Y-114679185D01*
X140378210Y-114810288D01*
X140378213Y-114810292D01*
X140489707Y-114921786D01*
X140489711Y-114921789D01*
X140620814Y-115009390D01*
X140620827Y-115009397D01*
X140766498Y-115069735D01*
X140766503Y-115069737D01*
X140921153Y-115100499D01*
X140921156Y-115100500D01*
X140921158Y-115100500D01*
X141078844Y-115100500D01*
X141078845Y-115100499D01*
X141233497Y-115069737D01*
X141379179Y-115009394D01*
X141510289Y-114921789D01*
X141621789Y-114810289D01*
X141681348Y-114721153D01*
X164099500Y-114721153D01*
X164099500Y-114878846D01*
X164130261Y-115033489D01*
X164130264Y-115033501D01*
X164190602Y-115179172D01*
X164190609Y-115179185D01*
X164278210Y-115310288D01*
X164278213Y-115310292D01*
X164389707Y-115421786D01*
X164389711Y-115421789D01*
X164520814Y-115509390D01*
X164520827Y-115509397D01*
X164666498Y-115569735D01*
X164666503Y-115569737D01*
X164821153Y-115600499D01*
X164821156Y-115600500D01*
X164927649Y-115600500D01*
X164994688Y-115620185D01*
X165040443Y-115672989D01*
X165050939Y-115711248D01*
X165055908Y-115757483D01*
X165106202Y-115892328D01*
X165106206Y-115892335D01*
X165192452Y-116007544D01*
X165192455Y-116007547D01*
X165307664Y-116093793D01*
X165307671Y-116093797D01*
X165442517Y-116144091D01*
X165442516Y-116144091D01*
X165449444Y-116144835D01*
X165502127Y-116150500D01*
X167297872Y-116150499D01*
X167357483Y-116144091D01*
X167492331Y-116093796D01*
X167607546Y-116007546D01*
X167693796Y-115892331D01*
X167744091Y-115757483D01*
X167750500Y-115697873D01*
X167750499Y-113902128D01*
X167744091Y-113842517D01*
X167693796Y-113707669D01*
X167693795Y-113707668D01*
X167693793Y-113707664D01*
X167607547Y-113592455D01*
X167607544Y-113592452D01*
X167492335Y-113506206D01*
X167492328Y-113506202D01*
X167360917Y-113457189D01*
X167304983Y-113415318D01*
X167280566Y-113349853D01*
X167295418Y-113281580D01*
X167316563Y-113253332D01*
X167430104Y-113139792D01*
X167555051Y-112967816D01*
X167651557Y-112778412D01*
X167717246Y-112576243D01*
X167750500Y-112366287D01*
X167750500Y-112153713D01*
X167717246Y-111943757D01*
X167651557Y-111741588D01*
X167555051Y-111552184D01*
X167555049Y-111552181D01*
X167555048Y-111552179D01*
X167430109Y-111380213D01*
X167279786Y-111229890D01*
X167107820Y-111104951D01*
X166918414Y-111008444D01*
X166918413Y-111008443D01*
X166918412Y-111008443D01*
X166716243Y-110942754D01*
X166716241Y-110942753D01*
X166716240Y-110942753D01*
X166554957Y-110917208D01*
X166506287Y-110909500D01*
X166293713Y-110909500D01*
X166245042Y-110917208D01*
X166083760Y-110942753D01*
X165881585Y-111008444D01*
X165692179Y-111104951D01*
X165520213Y-111229890D01*
X165369890Y-111380213D01*
X165244951Y-111552179D01*
X165148444Y-111741585D01*
X165082753Y-111943760D01*
X165049500Y-112153713D01*
X165049500Y-112366286D01*
X165082753Y-112576239D01*
X165148444Y-112778414D01*
X165244951Y-112967820D01*
X165369890Y-113139786D01*
X165483430Y-113253326D01*
X165516915Y-113314649D01*
X165511931Y-113384341D01*
X165470059Y-113440274D01*
X165439083Y-113457189D01*
X165307669Y-113506203D01*
X165307664Y-113506206D01*
X165192455Y-113592452D01*
X165192452Y-113592455D01*
X165106206Y-113707664D01*
X165106202Y-113707671D01*
X165075604Y-113789711D01*
X165055909Y-113842517D01*
X165050937Y-113888757D01*
X165024201Y-113953306D01*
X164966809Y-113993154D01*
X164927649Y-113999500D01*
X164821155Y-113999500D01*
X164666510Y-114030261D01*
X164666498Y-114030264D01*
X164520827Y-114090602D01*
X164520814Y-114090609D01*
X164389711Y-114178210D01*
X164389707Y-114178213D01*
X164278213Y-114289707D01*
X164278210Y-114289711D01*
X164190609Y-114420814D01*
X164190602Y-114420827D01*
X164130264Y-114566498D01*
X164130261Y-114566510D01*
X164099500Y-114721153D01*
X141681348Y-114721153D01*
X141709394Y-114679179D01*
X141769737Y-114533497D01*
X141800500Y-114378842D01*
X141800500Y-114221158D01*
X141800500Y-114221155D01*
X141800499Y-114221153D01*
X141774531Y-114090606D01*
X141769737Y-114066503D01*
X141769735Y-114066498D01*
X141709397Y-113920827D01*
X141709390Y-113920814D01*
X141621789Y-113789711D01*
X141621786Y-113789707D01*
X141510292Y-113678213D01*
X141510288Y-113678210D01*
X141379185Y-113590609D01*
X141379172Y-113590602D01*
X141233501Y-113530264D01*
X141233489Y-113530261D01*
X141078845Y-113499500D01*
X141078842Y-113499500D01*
X140921158Y-113499500D01*
X140921155Y-113499500D01*
X140766510Y-113530261D01*
X140766498Y-113530264D01*
X140620827Y-113590602D01*
X140620814Y-113590609D01*
X140489711Y-113678210D01*
X140489707Y-113678213D01*
X140378213Y-113789707D01*
X140378210Y-113789711D01*
X140290609Y-113920814D01*
X140290602Y-113920827D01*
X140230264Y-114066498D01*
X140230261Y-114066510D01*
X140199500Y-114221153D01*
X139600499Y-114221153D01*
X139574531Y-114090606D01*
X139569737Y-114066503D01*
X139569735Y-114066498D01*
X139509397Y-113920827D01*
X139509390Y-113920814D01*
X139421789Y-113789711D01*
X139421786Y-113789707D01*
X139310292Y-113678213D01*
X139310288Y-113678210D01*
X139179185Y-113590609D01*
X139179172Y-113590602D01*
X139033501Y-113530264D01*
X139033489Y-113530261D01*
X138878845Y-113499500D01*
X138878842Y-113499500D01*
X138721158Y-113499500D01*
X138721155Y-113499500D01*
X138566510Y-113530261D01*
X138566498Y-113530264D01*
X138420827Y-113590602D01*
X138420814Y-113590609D01*
X138289711Y-113678210D01*
X138289707Y-113678213D01*
X138178213Y-113789707D01*
X138178210Y-113789711D01*
X138090609Y-113920814D01*
X138090602Y-113920827D01*
X138030264Y-114066498D01*
X138030261Y-114066510D01*
X137999500Y-114221153D01*
X112689777Y-114221153D01*
X112688504Y-111421153D01*
X137499500Y-111421153D01*
X137499500Y-111578846D01*
X137530261Y-111733489D01*
X137530264Y-111733501D01*
X137590602Y-111879172D01*
X137590609Y-111879185D01*
X137678210Y-112010288D01*
X137678213Y-112010292D01*
X137789707Y-112121786D01*
X137789711Y-112121789D01*
X137920814Y-112209390D01*
X137920827Y-112209397D01*
X138066498Y-112269735D01*
X138066503Y-112269737D01*
X138221153Y-112300499D01*
X138221156Y-112300500D01*
X138221158Y-112300500D01*
X138378844Y-112300500D01*
X138378845Y-112300499D01*
X138533497Y-112269737D01*
X138679179Y-112209394D01*
X138810289Y-112121789D01*
X138921789Y-112010289D01*
X139009394Y-111879179D01*
X139069737Y-111733497D01*
X139100500Y-111578842D01*
X139100500Y-111421158D01*
X139100500Y-111421155D01*
X139100499Y-111421153D01*
X139078269Y-111309397D01*
X139069737Y-111266503D01*
X139051215Y-111221786D01*
X139009397Y-111120827D01*
X139009390Y-111120814D01*
X138921789Y-110989711D01*
X138921786Y-110989707D01*
X138825139Y-110893060D01*
X138791654Y-110831737D01*
X138796638Y-110762045D01*
X138838510Y-110706112D01*
X138903974Y-110681695D01*
X138937010Y-110683761D01*
X138965797Y-110689487D01*
X139021156Y-110700500D01*
X139021158Y-110700500D01*
X139178844Y-110700500D01*
X139178845Y-110700499D01*
X139333497Y-110669737D01*
X139479179Y-110609394D01*
X139610289Y-110521789D01*
X139670144Y-110461933D01*
X139731463Y-110428450D01*
X139801155Y-110433434D01*
X139826714Y-110446514D01*
X139920814Y-110509390D01*
X139920827Y-110509397D01*
X140062942Y-110568262D01*
X140066503Y-110569737D01*
X140221153Y-110600499D01*
X140221156Y-110600500D01*
X140221158Y-110600500D01*
X140378844Y-110600500D01*
X140378845Y-110600499D01*
X140533497Y-110569737D01*
X140679179Y-110509394D01*
X140810289Y-110421789D01*
X140921789Y-110310289D01*
X141009394Y-110179179D01*
X141069737Y-110033497D01*
X141100500Y-109878842D01*
X141100500Y-109721158D01*
X141100499Y-109721155D01*
X141100499Y-109721152D01*
X141100499Y-109721150D01*
X142299500Y-109721150D01*
X142299500Y-109878843D01*
X142330261Y-110033486D01*
X142330264Y-110033498D01*
X142379575Y-110152546D01*
X142387044Y-110222015D01*
X142379575Y-110247450D01*
X142330264Y-110366498D01*
X142330261Y-110366510D01*
X142299500Y-110521153D01*
X142299500Y-110678846D01*
X142330261Y-110833489D01*
X142330264Y-110833501D01*
X142390602Y-110979172D01*
X142390609Y-110979185D01*
X142478210Y-111110288D01*
X142478213Y-111110292D01*
X142589707Y-111221786D01*
X142589711Y-111221789D01*
X142720814Y-111309390D01*
X142720827Y-111309397D01*
X142866498Y-111369735D01*
X142866503Y-111369737D01*
X143021153Y-111400499D01*
X143021156Y-111400500D01*
X143021158Y-111400500D01*
X143178844Y-111400500D01*
X143178845Y-111400499D01*
X143333497Y-111369737D01*
X143479179Y-111309394D01*
X143610289Y-111221789D01*
X143721789Y-111110289D01*
X143809394Y-110979179D01*
X143869737Y-110833497D01*
X143900500Y-110678842D01*
X143900500Y-110521158D01*
X143900500Y-110521155D01*
X143900499Y-110521153D01*
X143880734Y-110421789D01*
X143869737Y-110366503D01*
X143820423Y-110247449D01*
X143812955Y-110177981D01*
X143820424Y-110152546D01*
X143869737Y-110033494D01*
X143900500Y-109878839D01*
X143900500Y-109721155D01*
X143900500Y-109721152D01*
X143900499Y-109721150D01*
X143869738Y-109566507D01*
X143869737Y-109566500D01*
X143850816Y-109520821D01*
X143809397Y-109420824D01*
X143809390Y-109420811D01*
X143721789Y-109289708D01*
X143721786Y-109289704D01*
X143610292Y-109178210D01*
X143610288Y-109178207D01*
X143479185Y-109090606D01*
X143479172Y-109090599D01*
X143333501Y-109030261D01*
X143333489Y-109030258D01*
X143178845Y-108999497D01*
X143178842Y-108999497D01*
X143021158Y-108999497D01*
X143021155Y-108999497D01*
X142866510Y-109030258D01*
X142866498Y-109030261D01*
X142720827Y-109090599D01*
X142720814Y-109090606D01*
X142589711Y-109178207D01*
X142589707Y-109178210D01*
X142478213Y-109289704D01*
X142478210Y-109289708D01*
X142390609Y-109420811D01*
X142390602Y-109420824D01*
X142330264Y-109566495D01*
X142330261Y-109566507D01*
X142299500Y-109721150D01*
X141100499Y-109721150D01*
X141069738Y-109566510D01*
X141069737Y-109566503D01*
X141050812Y-109520814D01*
X141009397Y-109420827D01*
X141009390Y-109420814D01*
X140921789Y-109289711D01*
X140921786Y-109289707D01*
X140810292Y-109178213D01*
X140810288Y-109178210D01*
X140704276Y-109107375D01*
X140659471Y-109053763D01*
X140650764Y-108984438D01*
X140680918Y-108921410D01*
X140685490Y-108916588D01*
X140691788Y-108910290D01*
X140691789Y-108910289D01*
X140779394Y-108779179D01*
X140839737Y-108633497D01*
X140870500Y-108478842D01*
X140870500Y-108321158D01*
X140870500Y-108321155D01*
X140870499Y-108321153D01*
X145899500Y-108321153D01*
X145899500Y-108478846D01*
X145930261Y-108633489D01*
X145930264Y-108633501D01*
X145990602Y-108779172D01*
X145990609Y-108779185D01*
X146078210Y-108910288D01*
X146078213Y-108910292D01*
X146189707Y-109021786D01*
X146189711Y-109021789D01*
X146320814Y-109109390D01*
X146320827Y-109109397D01*
X146466498Y-109169735D01*
X146466503Y-109169737D01*
X146621153Y-109200499D01*
X146621156Y-109200500D01*
X146621158Y-109200500D01*
X146778844Y-109200500D01*
X146778845Y-109200499D01*
X146933497Y-109169737D01*
X147079179Y-109109394D01*
X147210289Y-109021789D01*
X147321789Y-108910289D01*
X147409394Y-108779179D01*
X147469737Y-108633497D01*
X147500500Y-108478842D01*
X147500500Y-108421153D01*
X152599500Y-108421153D01*
X152599500Y-108578846D01*
X152630261Y-108733489D01*
X152630264Y-108733501D01*
X152690602Y-108879172D01*
X152690609Y-108879185D01*
X152778210Y-109010288D01*
X152778213Y-109010292D01*
X152889707Y-109121786D01*
X152889711Y-109121789D01*
X153020814Y-109209390D01*
X153020827Y-109209397D01*
X153166498Y-109269735D01*
X153166503Y-109269737D01*
X153321153Y-109300499D01*
X153321156Y-109300500D01*
X153321158Y-109300500D01*
X153478844Y-109300500D01*
X153478845Y-109300499D01*
X153633497Y-109269737D01*
X153779179Y-109209394D01*
X153910289Y-109121789D01*
X154021789Y-109010289D01*
X154109394Y-108879179D01*
X154169737Y-108733497D01*
X154200500Y-108578842D01*
X154200500Y-108421158D01*
X154200500Y-108421155D01*
X154200499Y-108421153D01*
X154194660Y-108391800D01*
X154169737Y-108266503D01*
X154128314Y-108166498D01*
X154109397Y-108120827D01*
X154109390Y-108120814D01*
X154021789Y-107989711D01*
X154021786Y-107989707D01*
X153910292Y-107878213D01*
X153910288Y-107878210D01*
X153779185Y-107790609D01*
X153779172Y-107790602D01*
X153633501Y-107730264D01*
X153633489Y-107730261D01*
X153478845Y-107699500D01*
X153478842Y-107699500D01*
X153321158Y-107699500D01*
X153321155Y-107699500D01*
X153166510Y-107730261D01*
X153166498Y-107730264D01*
X153020827Y-107790602D01*
X153020814Y-107790609D01*
X152889711Y-107878210D01*
X152889707Y-107878213D01*
X152778213Y-107989707D01*
X152778210Y-107989711D01*
X152690609Y-108120814D01*
X152690602Y-108120827D01*
X152630264Y-108266498D01*
X152630261Y-108266510D01*
X152599500Y-108421153D01*
X147500500Y-108421153D01*
X147500500Y-108321158D01*
X147500500Y-108321155D01*
X147500499Y-108321153D01*
X147469738Y-108166510D01*
X147469737Y-108166503D01*
X147442398Y-108100500D01*
X147409397Y-108020827D01*
X147409390Y-108020814D01*
X147321789Y-107889711D01*
X147321786Y-107889707D01*
X147210292Y-107778213D01*
X147210288Y-107778210D01*
X147079185Y-107690609D01*
X147079172Y-107690602D01*
X146933501Y-107630264D01*
X146933489Y-107630261D01*
X146778845Y-107599500D01*
X146778842Y-107599500D01*
X146621158Y-107599500D01*
X146621155Y-107599500D01*
X146466510Y-107630261D01*
X146466498Y-107630264D01*
X146320827Y-107690602D01*
X146320814Y-107690609D01*
X146189711Y-107778210D01*
X146189707Y-107778213D01*
X146078213Y-107889707D01*
X146078210Y-107889711D01*
X145990609Y-108020814D01*
X145990602Y-108020827D01*
X145930264Y-108166498D01*
X145930261Y-108166510D01*
X145899500Y-108321153D01*
X140870499Y-108321153D01*
X140839738Y-108166510D01*
X140839737Y-108166503D01*
X140812398Y-108100500D01*
X140779397Y-108020827D01*
X140779390Y-108020814D01*
X140691789Y-107889711D01*
X140691786Y-107889707D01*
X140580292Y-107778213D01*
X140580288Y-107778210D01*
X140449185Y-107690609D01*
X140449172Y-107690602D01*
X140303501Y-107630264D01*
X140303489Y-107630261D01*
X140148845Y-107599500D01*
X140148842Y-107599500D01*
X139991158Y-107599500D01*
X139991155Y-107599500D01*
X139836510Y-107630261D01*
X139836498Y-107630264D01*
X139690827Y-107690602D01*
X139690814Y-107690609D01*
X139559711Y-107778210D01*
X139559707Y-107778213D01*
X139448213Y-107889707D01*
X139448210Y-107889711D01*
X139360609Y-108020814D01*
X139360602Y-108020827D01*
X139300264Y-108166498D01*
X139300261Y-108166510D01*
X139269500Y-108321153D01*
X139269500Y-108391800D01*
X139249815Y-108458839D01*
X139214391Y-108494902D01*
X139089711Y-108578210D01*
X139089707Y-108578213D01*
X138978213Y-108689707D01*
X138978210Y-108689711D01*
X138890609Y-108820814D01*
X138890602Y-108820827D01*
X138830264Y-108966498D01*
X138830261Y-108966508D01*
X138804440Y-109096320D01*
X138772055Y-109158231D01*
X138730278Y-109186688D01*
X138720826Y-109190603D01*
X138720814Y-109190609D01*
X138589711Y-109278210D01*
X138589707Y-109278213D01*
X138478213Y-109389707D01*
X138478210Y-109389711D01*
X138390609Y-109520814D01*
X138390602Y-109520827D01*
X138330264Y-109666498D01*
X138330261Y-109666510D01*
X138299500Y-109821153D01*
X138299500Y-109978846D01*
X138330261Y-110133489D01*
X138330264Y-110133501D01*
X138390602Y-110279172D01*
X138390609Y-110279185D01*
X138478210Y-110410288D01*
X138478213Y-110410292D01*
X138574860Y-110506939D01*
X138608345Y-110568262D01*
X138603361Y-110637954D01*
X138561489Y-110693887D01*
X138496025Y-110718304D01*
X138462988Y-110716237D01*
X138378846Y-110699500D01*
X138378842Y-110699500D01*
X138221158Y-110699500D01*
X138221155Y-110699500D01*
X138066510Y-110730261D01*
X138066498Y-110730264D01*
X137920827Y-110790602D01*
X137920814Y-110790609D01*
X137789711Y-110878210D01*
X137789707Y-110878213D01*
X137678213Y-110989707D01*
X137678210Y-110989711D01*
X137590609Y-111120814D01*
X137590602Y-111120827D01*
X137530264Y-111266498D01*
X137530261Y-111266510D01*
X137499500Y-111421153D01*
X112688504Y-111421153D01*
X112688095Y-110521153D01*
X118599500Y-110521153D01*
X118599500Y-110678846D01*
X118630261Y-110833489D01*
X118630264Y-110833501D01*
X118690602Y-110979172D01*
X118690609Y-110979185D01*
X118778210Y-111110288D01*
X118778213Y-111110292D01*
X118889707Y-111221786D01*
X118889711Y-111221789D01*
X119020814Y-111309390D01*
X119020827Y-111309397D01*
X119166498Y-111369735D01*
X119166503Y-111369737D01*
X119321153Y-111400499D01*
X119321156Y-111400500D01*
X119321158Y-111400500D01*
X119478844Y-111400500D01*
X119478845Y-111400499D01*
X119633497Y-111369737D01*
X119779179Y-111309394D01*
X119910289Y-111221789D01*
X120021789Y-111110289D01*
X120109394Y-110979179D01*
X120169737Y-110833497D01*
X120200500Y-110678842D01*
X120200500Y-110521158D01*
X120200500Y-110521155D01*
X120200499Y-110521153D01*
X120180734Y-110421789D01*
X120169737Y-110366503D01*
X120133569Y-110279185D01*
X120109397Y-110220827D01*
X120109390Y-110220814D01*
X120021789Y-110089711D01*
X120021786Y-110089707D01*
X119910292Y-109978213D01*
X119910288Y-109978210D01*
X119779185Y-109890609D01*
X119779172Y-109890602D01*
X119633501Y-109830264D01*
X119633489Y-109830261D01*
X119478845Y-109799500D01*
X119478842Y-109799500D01*
X119321158Y-109799500D01*
X119321155Y-109799500D01*
X119166510Y-109830261D01*
X119166498Y-109830264D01*
X119020827Y-109890602D01*
X119020814Y-109890609D01*
X118889711Y-109978210D01*
X118889707Y-109978213D01*
X118778213Y-110089707D01*
X118778210Y-110089711D01*
X118690609Y-110220814D01*
X118690602Y-110220827D01*
X118630264Y-110366498D01*
X118630261Y-110366510D01*
X118599500Y-110521153D01*
X112688095Y-110521153D01*
X112686595Y-107221153D01*
X142799500Y-107221153D01*
X142799500Y-107378846D01*
X142830261Y-107533489D01*
X142830264Y-107533501D01*
X142890602Y-107679172D01*
X142890609Y-107679185D01*
X142978210Y-107810288D01*
X142978213Y-107810292D01*
X143089707Y-107921786D01*
X143089711Y-107921789D01*
X143220814Y-108009390D01*
X143220827Y-108009397D01*
X143366498Y-108069735D01*
X143366503Y-108069737D01*
X143521153Y-108100499D01*
X143521156Y-108100500D01*
X143521158Y-108100500D01*
X143678844Y-108100500D01*
X143678845Y-108100499D01*
X143833497Y-108069737D01*
X143951592Y-108020821D01*
X143979172Y-108009397D01*
X143979172Y-108009396D01*
X143979179Y-108009394D01*
X144110289Y-107921789D01*
X144221789Y-107810289D01*
X144309394Y-107679179D01*
X144369737Y-107533497D01*
X144400500Y-107378842D01*
X144400500Y-107221158D01*
X144400500Y-107221155D01*
X144400499Y-107221153D01*
X144378447Y-107110292D01*
X144369737Y-107066503D01*
X144333569Y-106979185D01*
X144309397Y-106920827D01*
X144309390Y-106920814D01*
X144221789Y-106789711D01*
X144221786Y-106789707D01*
X144110292Y-106678213D01*
X144110288Y-106678210D01*
X143979185Y-106590609D01*
X143979172Y-106590602D01*
X143833501Y-106530264D01*
X143833489Y-106530261D01*
X143678845Y-106499500D01*
X143678842Y-106499500D01*
X143521158Y-106499500D01*
X143521155Y-106499500D01*
X143366510Y-106530261D01*
X143366498Y-106530264D01*
X143220827Y-106590602D01*
X143220814Y-106590609D01*
X143089711Y-106678210D01*
X143089707Y-106678213D01*
X142978213Y-106789707D01*
X142978210Y-106789711D01*
X142890609Y-106920814D01*
X142890602Y-106920827D01*
X142830264Y-107066498D01*
X142830261Y-107066510D01*
X142799500Y-107221153D01*
X112686595Y-107221153D01*
X112686140Y-106221153D01*
X135499500Y-106221153D01*
X135499500Y-106378846D01*
X135530261Y-106533489D01*
X135530264Y-106533501D01*
X135590602Y-106679172D01*
X135590609Y-106679185D01*
X135678210Y-106810288D01*
X135678213Y-106810292D01*
X135789707Y-106921786D01*
X135789711Y-106921789D01*
X135920814Y-107009390D01*
X135920827Y-107009397D01*
X136058683Y-107066498D01*
X136066503Y-107069737D01*
X136221153Y-107100499D01*
X136221156Y-107100500D01*
X136221158Y-107100500D01*
X136378844Y-107100500D01*
X136378845Y-107100499D01*
X136389179Y-107098443D01*
X136414287Y-107093450D01*
X136414292Y-107093449D01*
X136499800Y-107076439D01*
X136533497Y-107069737D01*
X136679179Y-107009394D01*
X136810289Y-106921789D01*
X136921789Y-106810289D01*
X137009394Y-106679179D01*
X137069737Y-106533497D01*
X137100500Y-106378842D01*
X137100500Y-106221158D01*
X137100500Y-106221155D01*
X137100499Y-106221153D01*
X137090271Y-106169735D01*
X137069737Y-106066503D01*
X137051215Y-106021786D01*
X137009397Y-105920827D01*
X137009390Y-105920814D01*
X136921789Y-105789711D01*
X136921786Y-105789707D01*
X136810292Y-105678213D01*
X136810288Y-105678210D01*
X136679185Y-105590609D01*
X136679172Y-105590602D01*
X136533501Y-105530264D01*
X136533489Y-105530261D01*
X136378845Y-105499500D01*
X136378842Y-105499500D01*
X136221158Y-105499500D01*
X136221155Y-105499500D01*
X136066510Y-105530261D01*
X136066498Y-105530264D01*
X135920827Y-105590602D01*
X135920814Y-105590609D01*
X135789711Y-105678210D01*
X135789707Y-105678213D01*
X135678213Y-105789707D01*
X135678210Y-105789711D01*
X135590609Y-105920814D01*
X135590602Y-105920827D01*
X135530264Y-106066498D01*
X135530261Y-106066510D01*
X135499500Y-106221153D01*
X112686140Y-106221153D01*
X112685731Y-105321153D01*
X116999500Y-105321153D01*
X116999500Y-105478846D01*
X117030261Y-105633489D01*
X117030264Y-105633501D01*
X117090602Y-105779172D01*
X117090609Y-105779185D01*
X117178210Y-105910288D01*
X117178213Y-105910292D01*
X117289707Y-106021786D01*
X117289711Y-106021789D01*
X117420814Y-106109390D01*
X117420827Y-106109397D01*
X117566498Y-106169735D01*
X117566503Y-106169737D01*
X117721153Y-106200499D01*
X117721156Y-106200500D01*
X117721158Y-106200500D01*
X117878844Y-106200500D01*
X117878845Y-106200499D01*
X118033497Y-106169737D01*
X118168489Y-106113822D01*
X118179172Y-106109397D01*
X118179172Y-106109396D01*
X118179179Y-106109394D01*
X118310289Y-106021789D01*
X118421789Y-105910289D01*
X118509394Y-105779179D01*
X118569737Y-105633497D01*
X118600500Y-105478842D01*
X118600500Y-105321158D01*
X118600500Y-105321155D01*
X118600499Y-105321153D01*
X118578269Y-105209397D01*
X118569737Y-105166503D01*
X118551215Y-105121786D01*
X118509397Y-105020827D01*
X118509390Y-105020814D01*
X118421789Y-104889711D01*
X118421786Y-104889707D01*
X118310292Y-104778213D01*
X118310288Y-104778210D01*
X118179185Y-104690609D01*
X118179172Y-104690602D01*
X118033501Y-104630264D01*
X118033489Y-104630261D01*
X117878845Y-104599500D01*
X117878842Y-104599500D01*
X117721158Y-104599500D01*
X117721155Y-104599500D01*
X117566510Y-104630261D01*
X117566498Y-104630264D01*
X117420827Y-104690602D01*
X117420814Y-104690609D01*
X117289711Y-104778210D01*
X117289707Y-104778213D01*
X117178213Y-104889707D01*
X117178210Y-104889711D01*
X117090609Y-105020814D01*
X117090602Y-105020827D01*
X117030264Y-105166498D01*
X117030261Y-105166510D01*
X116999500Y-105321153D01*
X112685731Y-105321153D01*
X112685322Y-104421153D01*
X133182000Y-104421153D01*
X133182000Y-104578846D01*
X133212761Y-104733489D01*
X133212764Y-104733501D01*
X133273102Y-104879172D01*
X133273109Y-104879185D01*
X133360710Y-105010288D01*
X133360713Y-105010292D01*
X133472207Y-105121786D01*
X133472211Y-105121789D01*
X133603314Y-105209390D01*
X133603327Y-105209397D01*
X133748998Y-105269735D01*
X133749003Y-105269737D01*
X133903653Y-105300499D01*
X133903656Y-105300500D01*
X133903658Y-105300500D01*
X134061344Y-105300500D01*
X134061345Y-105300499D01*
X134215997Y-105269737D01*
X134361679Y-105209394D01*
X134492789Y-105121789D01*
X134604289Y-105010289D01*
X134691894Y-104879179D01*
X134752237Y-104733497D01*
X134783000Y-104578842D01*
X134783000Y-104421158D01*
X134783000Y-104421155D01*
X134782999Y-104421153D01*
X134752238Y-104266510D01*
X134752237Y-104266503D01*
X134692294Y-104121786D01*
X134691897Y-104120827D01*
X134691890Y-104120814D01*
X134604289Y-103989711D01*
X134604286Y-103989707D01*
X134492792Y-103878213D01*
X134492788Y-103878210D01*
X134361685Y-103790609D01*
X134361672Y-103790602D01*
X134216001Y-103730264D01*
X134215989Y-103730261D01*
X134061345Y-103699500D01*
X134061342Y-103699500D01*
X133903658Y-103699500D01*
X133903655Y-103699500D01*
X133749010Y-103730261D01*
X133748998Y-103730264D01*
X133603327Y-103790602D01*
X133603314Y-103790609D01*
X133472211Y-103878210D01*
X133472207Y-103878213D01*
X133360713Y-103989707D01*
X133360710Y-103989711D01*
X133273109Y-104120814D01*
X133273102Y-104120827D01*
X133212764Y-104266498D01*
X133212761Y-104266510D01*
X133182000Y-104421153D01*
X112685322Y-104421153D01*
X112683066Y-99458653D01*
X129262000Y-99458653D01*
X129262000Y-99616346D01*
X129292761Y-99770989D01*
X129292764Y-99771001D01*
X129353102Y-99916672D01*
X129353109Y-99916685D01*
X129440710Y-100047788D01*
X129440713Y-100047792D01*
X129552207Y-100159286D01*
X129552211Y-100159289D01*
X129683314Y-100246890D01*
X129683327Y-100246897D01*
X129788859Y-100290609D01*
X129829003Y-100307237D01*
X129983653Y-100337999D01*
X129983656Y-100338000D01*
X129983658Y-100338000D01*
X130141344Y-100338000D01*
X130141345Y-100337999D01*
X130295997Y-100307237D01*
X130441679Y-100246894D01*
X130572789Y-100159289D01*
X130684289Y-100047789D01*
X130771894Y-99916679D01*
X130811462Y-99821153D01*
X146299500Y-99821153D01*
X146299500Y-99978846D01*
X146330261Y-100133489D01*
X146330264Y-100133501D01*
X146390602Y-100279172D01*
X146390609Y-100279185D01*
X146478210Y-100410288D01*
X146478213Y-100410292D01*
X146589707Y-100521786D01*
X146589711Y-100521789D01*
X146720814Y-100609390D01*
X146720827Y-100609397D01*
X146866498Y-100669735D01*
X146866503Y-100669737D01*
X147021153Y-100700499D01*
X147021156Y-100700500D01*
X147021158Y-100700500D01*
X147178844Y-100700500D01*
X147178845Y-100700499D01*
X147333497Y-100669737D01*
X147451592Y-100620821D01*
X147479172Y-100609397D01*
X147479172Y-100609396D01*
X147479179Y-100609394D01*
X147610289Y-100521789D01*
X147721789Y-100410289D01*
X147809394Y-100279179D01*
X147869737Y-100133497D01*
X147900500Y-99978842D01*
X147900500Y-99821158D01*
X147900500Y-99821155D01*
X147900499Y-99821153D01*
X147874353Y-99689711D01*
X147869737Y-99666503D01*
X147869735Y-99666498D01*
X147809397Y-99520827D01*
X147809390Y-99520814D01*
X147721789Y-99389711D01*
X147721786Y-99389707D01*
X147610292Y-99278213D01*
X147610288Y-99278210D01*
X147479185Y-99190609D01*
X147479172Y-99190602D01*
X147333501Y-99130264D01*
X147333489Y-99130261D01*
X147178845Y-99099500D01*
X147178842Y-99099500D01*
X147021158Y-99099500D01*
X147021155Y-99099500D01*
X146866510Y-99130261D01*
X146866498Y-99130264D01*
X146720827Y-99190602D01*
X146720814Y-99190609D01*
X146589711Y-99278210D01*
X146589707Y-99278213D01*
X146478213Y-99389707D01*
X146478210Y-99389711D01*
X146390609Y-99520814D01*
X146390602Y-99520827D01*
X146330264Y-99666498D01*
X146330261Y-99666510D01*
X146299500Y-99821153D01*
X130811462Y-99821153D01*
X130832237Y-99770997D01*
X130863000Y-99616342D01*
X130863000Y-99458658D01*
X130863000Y-99458655D01*
X130862999Y-99458653D01*
X130847124Y-99378844D01*
X130832237Y-99304003D01*
X130797922Y-99221158D01*
X130771897Y-99158327D01*
X130771890Y-99158314D01*
X130684289Y-99027211D01*
X130684286Y-99027207D01*
X130572792Y-98915713D01*
X130572788Y-98915710D01*
X130441685Y-98828109D01*
X130441672Y-98828102D01*
X130296001Y-98767764D01*
X130295989Y-98767761D01*
X130141345Y-98737000D01*
X130141342Y-98737000D01*
X129983658Y-98737000D01*
X129983655Y-98737000D01*
X129829010Y-98767761D01*
X129828998Y-98767764D01*
X129683327Y-98828102D01*
X129683314Y-98828109D01*
X129552211Y-98915710D01*
X129552207Y-98915713D01*
X129440713Y-99027207D01*
X129440710Y-99027211D01*
X129353109Y-99158314D01*
X129353102Y-99158327D01*
X129292764Y-99303998D01*
X129292761Y-99304010D01*
X129262000Y-99458653D01*
X112683066Y-99458653D01*
X112682156Y-97456238D01*
X112682004Y-97121153D01*
X142799500Y-97121153D01*
X142799500Y-97278846D01*
X142830261Y-97433489D01*
X142830264Y-97433501D01*
X142890602Y-97579172D01*
X142890609Y-97579185D01*
X142978210Y-97710288D01*
X142978213Y-97710292D01*
X143089707Y-97821786D01*
X143089711Y-97821789D01*
X143220814Y-97909390D01*
X143220827Y-97909397D01*
X143366498Y-97969735D01*
X143366503Y-97969737D01*
X143521153Y-98000499D01*
X143521156Y-98000500D01*
X143521158Y-98000500D01*
X143678844Y-98000500D01*
X143678845Y-98000499D01*
X143833497Y-97969737D01*
X143979179Y-97909394D01*
X144110289Y-97821789D01*
X144221789Y-97710289D01*
X144309394Y-97579179D01*
X144369737Y-97433497D01*
X144400500Y-97278842D01*
X144400500Y-97121158D01*
X144400500Y-97121155D01*
X144400499Y-97121153D01*
X144396391Y-97100499D01*
X144369737Y-96966503D01*
X144346080Y-96909390D01*
X144309397Y-96820827D01*
X144309390Y-96820814D01*
X144221789Y-96689711D01*
X144221786Y-96689707D01*
X144110292Y-96578213D01*
X144110288Y-96578210D01*
X143979185Y-96490609D01*
X143979172Y-96490602D01*
X143833501Y-96430264D01*
X143833489Y-96430261D01*
X143678845Y-96399500D01*
X143678842Y-96399500D01*
X143521158Y-96399500D01*
X143521155Y-96399500D01*
X143366510Y-96430261D01*
X143366498Y-96430264D01*
X143220827Y-96490602D01*
X143220814Y-96490609D01*
X143089711Y-96578210D01*
X143089707Y-96578213D01*
X142978213Y-96689707D01*
X142978210Y-96689711D01*
X142890609Y-96820814D01*
X142890602Y-96820827D01*
X142830264Y-96966498D01*
X142830261Y-96966510D01*
X142799500Y-97121153D01*
X112682004Y-97121153D01*
X112682001Y-97115122D01*
X112681612Y-96260208D01*
X112681538Y-96096888D01*
X139975235Y-96096888D01*
X139975235Y-96254581D01*
X140005996Y-96409224D01*
X140005999Y-96409236D01*
X140066337Y-96554907D01*
X140066344Y-96554920D01*
X140153945Y-96686023D01*
X140153948Y-96686027D01*
X140265442Y-96797521D01*
X140265446Y-96797524D01*
X140396549Y-96885125D01*
X140396562Y-96885132D01*
X140542233Y-96945470D01*
X140542238Y-96945472D01*
X140664216Y-96969735D01*
X140696888Y-96976234D01*
X140696891Y-96976235D01*
X140696893Y-96976235D01*
X140854579Y-96976235D01*
X140854580Y-96976234D01*
X141009232Y-96945472D01*
X141154914Y-96885129D01*
X141286024Y-96797524D01*
X141397524Y-96686024D01*
X141485129Y-96554914D01*
X141493999Y-96533501D01*
X141511768Y-96490602D01*
X141545472Y-96409232D01*
X141576235Y-96254577D01*
X141576235Y-96121153D01*
X147999500Y-96121153D01*
X147999500Y-96278846D01*
X148030261Y-96433489D01*
X148030264Y-96433501D01*
X148090602Y-96579172D01*
X148090609Y-96579185D01*
X148178210Y-96710288D01*
X148178213Y-96710292D01*
X148289707Y-96821786D01*
X148289711Y-96821789D01*
X148420814Y-96909390D01*
X148420827Y-96909397D01*
X148558683Y-96966498D01*
X148566503Y-96969737D01*
X148649693Y-96986284D01*
X148711602Y-97018668D01*
X148746176Y-97079384D01*
X148749500Y-97107901D01*
X148749500Y-97246286D01*
X148777196Y-97421155D01*
X148782754Y-97456243D01*
X148822700Y-97579185D01*
X148848444Y-97658414D01*
X148944951Y-97847820D01*
X149069890Y-98019786D01*
X149220213Y-98170109D01*
X149392182Y-98295050D01*
X149400946Y-98299516D01*
X149451742Y-98347491D01*
X149468536Y-98415312D01*
X149445998Y-98481447D01*
X149400946Y-98520484D01*
X149392182Y-98524949D01*
X149220213Y-98649890D01*
X149069890Y-98800213D01*
X148944951Y-98972179D01*
X148848444Y-99161585D01*
X148782753Y-99363760D01*
X148762663Y-99490606D01*
X148749500Y-99573713D01*
X148749500Y-99786287D01*
X148753302Y-99810289D01*
X148782753Y-99996239D01*
X148782753Y-99996241D01*
X148782754Y-99996243D01*
X148816629Y-100100500D01*
X148848444Y-100198414D01*
X148944951Y-100387820D01*
X149069890Y-100559786D01*
X149220213Y-100710109D01*
X149392182Y-100835050D01*
X149400946Y-100839516D01*
X149451742Y-100887491D01*
X149468536Y-100955312D01*
X149445998Y-101021447D01*
X149400946Y-101060484D01*
X149392182Y-101064949D01*
X149220213Y-101189890D01*
X149069890Y-101340213D01*
X148944951Y-101512179D01*
X148848444Y-101701585D01*
X148782753Y-101903760D01*
X148770809Y-101979172D01*
X148749500Y-102113713D01*
X148749500Y-102326287D01*
X148782754Y-102536243D01*
X148845795Y-102730263D01*
X148848444Y-102738414D01*
X148944951Y-102927820D01*
X149069890Y-103099786D01*
X149183430Y-103213326D01*
X149216915Y-103274649D01*
X149211931Y-103344341D01*
X149170059Y-103400274D01*
X149139083Y-103417189D01*
X149007669Y-103466203D01*
X149007664Y-103466206D01*
X148892455Y-103552452D01*
X148892452Y-103552455D01*
X148806206Y-103667664D01*
X148806202Y-103667671D01*
X148755908Y-103802517D01*
X148749501Y-103862116D01*
X148749501Y-103862123D01*
X148749500Y-103862135D01*
X148749500Y-105657870D01*
X148749501Y-105657876D01*
X148755908Y-105717483D01*
X148806202Y-105852328D01*
X148806206Y-105852335D01*
X148892452Y-105967544D01*
X148892455Y-105967547D01*
X149007664Y-106053793D01*
X149007671Y-106053797D01*
X149142516Y-106104091D01*
X149202114Y-106110499D01*
X149202118Y-106110499D01*
X149202127Y-106110500D01*
X149204012Y-106110499D01*
X149204433Y-106110623D01*
X149205434Y-106110677D01*
X149205424Y-106110855D01*
X149205431Y-106110856D01*
X149205424Y-106110914D01*
X149271052Y-106130171D01*
X149316818Y-106182966D01*
X149325650Y-106210308D01*
X149330261Y-106233489D01*
X149330264Y-106233501D01*
X149390602Y-106379172D01*
X149390609Y-106379185D01*
X149478210Y-106510288D01*
X149478213Y-106510292D01*
X149589707Y-106621786D01*
X149589711Y-106621789D01*
X149720814Y-106709390D01*
X149720827Y-106709397D01*
X149866498Y-106769735D01*
X149866503Y-106769737D01*
X150021153Y-106800499D01*
X150021156Y-106800500D01*
X150021158Y-106800500D01*
X150178844Y-106800500D01*
X150178845Y-106800499D01*
X150333497Y-106769737D01*
X150479179Y-106709394D01*
X150610289Y-106621789D01*
X150710925Y-106521153D01*
X156599500Y-106521153D01*
X156599500Y-106678846D01*
X156630261Y-106833489D01*
X156630264Y-106833501D01*
X156690602Y-106979172D01*
X156690609Y-106979185D01*
X156778210Y-107110288D01*
X156778213Y-107110292D01*
X156889707Y-107221786D01*
X156889711Y-107221789D01*
X157020814Y-107309390D01*
X157020827Y-107309397D01*
X157166498Y-107369735D01*
X157166503Y-107369737D01*
X157321153Y-107400499D01*
X157321156Y-107400500D01*
X157321158Y-107400500D01*
X157478844Y-107400500D01*
X157478845Y-107400499D01*
X157633497Y-107369737D01*
X157779179Y-107309394D01*
X157910289Y-107221789D01*
X158021789Y-107110289D01*
X158109394Y-106979179D01*
X158169737Y-106833497D01*
X158200500Y-106678842D01*
X158200500Y-106521158D01*
X158200500Y-106521155D01*
X158200499Y-106521153D01*
X158185585Y-106446175D01*
X158169737Y-106366503D01*
X158169735Y-106366498D01*
X158109397Y-106220827D01*
X158109390Y-106220814D01*
X158021789Y-106089711D01*
X158021786Y-106089707D01*
X157910292Y-105978213D01*
X157910288Y-105978210D01*
X157779185Y-105890609D01*
X157779172Y-105890602D01*
X157633501Y-105830264D01*
X157633489Y-105830261D01*
X157478845Y-105799500D01*
X157478842Y-105799500D01*
X157321158Y-105799500D01*
X157321155Y-105799500D01*
X157166510Y-105830261D01*
X157166498Y-105830264D01*
X157020827Y-105890602D01*
X157020814Y-105890609D01*
X156889711Y-105978210D01*
X156889707Y-105978213D01*
X156778213Y-106089707D01*
X156778210Y-106089711D01*
X156690609Y-106220814D01*
X156690602Y-106220827D01*
X156630264Y-106366498D01*
X156630261Y-106366510D01*
X156599500Y-106521153D01*
X150710925Y-106521153D01*
X150721789Y-106510289D01*
X150809394Y-106379179D01*
X150869737Y-106233497D01*
X150872260Y-106220814D01*
X150874350Y-106210307D01*
X150906735Y-106148396D01*
X150967451Y-106113822D01*
X150995967Y-106110499D01*
X150997871Y-106110499D01*
X150997872Y-106110499D01*
X151057483Y-106104091D01*
X151192331Y-106053796D01*
X151307546Y-105967546D01*
X151393796Y-105852331D01*
X151444091Y-105717483D01*
X151450500Y-105657873D01*
X151450499Y-103862128D01*
X151444091Y-103802517D01*
X151439648Y-103790606D01*
X151393797Y-103667671D01*
X151393793Y-103667664D01*
X151327303Y-103578846D01*
X151307546Y-103552454D01*
X151192331Y-103466204D01*
X151192328Y-103466202D01*
X151071545Y-103421153D01*
X186999500Y-103421153D01*
X186999500Y-103578846D01*
X187030261Y-103733489D01*
X187030264Y-103733501D01*
X187090602Y-103879172D01*
X187090609Y-103879185D01*
X187178210Y-104010288D01*
X187178213Y-104010292D01*
X187289707Y-104121786D01*
X187289711Y-104121789D01*
X187420814Y-104209390D01*
X187420827Y-104209397D01*
X187558683Y-104266498D01*
X187566503Y-104269737D01*
X187721153Y-104300499D01*
X187721156Y-104300500D01*
X187721158Y-104300500D01*
X187878844Y-104300500D01*
X187878845Y-104300499D01*
X188033497Y-104269737D01*
X188179179Y-104209394D01*
X188310289Y-104121789D01*
X188421789Y-104010289D01*
X188509394Y-103879179D01*
X188569737Y-103733497D01*
X188600500Y-103578842D01*
X188600500Y-103421158D01*
X188600500Y-103421155D01*
X188600499Y-103421153D01*
X188569737Y-103266503D01*
X188547710Y-103213325D01*
X188509397Y-103120827D01*
X188509390Y-103120814D01*
X188421789Y-102989711D01*
X188421786Y-102989707D01*
X188310292Y-102878213D01*
X188310288Y-102878210D01*
X188179185Y-102790609D01*
X188179172Y-102790602D01*
X188033501Y-102730264D01*
X188033489Y-102730261D01*
X187878845Y-102699500D01*
X187878842Y-102699500D01*
X187721158Y-102699500D01*
X187721155Y-102699500D01*
X187566510Y-102730261D01*
X187566498Y-102730264D01*
X187420827Y-102790602D01*
X187420814Y-102790609D01*
X187289711Y-102878210D01*
X187289707Y-102878213D01*
X187178213Y-102989707D01*
X187178210Y-102989711D01*
X187090609Y-103120814D01*
X187090602Y-103120827D01*
X187030264Y-103266498D01*
X187030261Y-103266510D01*
X186999500Y-103421153D01*
X151071545Y-103421153D01*
X151060917Y-103417189D01*
X151004983Y-103375318D01*
X150980566Y-103309853D01*
X150995418Y-103241580D01*
X151016563Y-103213332D01*
X151130104Y-103099792D01*
X151255051Y-102927816D01*
X151351557Y-102738412D01*
X151417246Y-102536243D01*
X151450500Y-102326287D01*
X151450500Y-102113713D01*
X151417246Y-101903757D01*
X151351557Y-101701588D01*
X151259621Y-101521153D01*
X159399500Y-101521153D01*
X159399500Y-101678846D01*
X159430261Y-101833489D01*
X159430264Y-101833501D01*
X159490602Y-101979172D01*
X159490609Y-101979185D01*
X159578210Y-102110288D01*
X159578213Y-102110292D01*
X159689707Y-102221786D01*
X159689711Y-102221789D01*
X159820814Y-102309390D01*
X159820827Y-102309397D01*
X159966498Y-102369735D01*
X159966503Y-102369737D01*
X160121153Y-102400499D01*
X160121156Y-102400500D01*
X160121158Y-102400500D01*
X160278844Y-102400500D01*
X160278845Y-102400499D01*
X160433497Y-102369737D01*
X160579179Y-102309394D01*
X160710289Y-102221789D01*
X160821789Y-102110289D01*
X160909394Y-101979179D01*
X160969737Y-101833497D01*
X161000500Y-101678842D01*
X161000500Y-101521158D01*
X161000500Y-101521155D01*
X161000499Y-101521153D01*
X160998338Y-101510288D01*
X160969737Y-101366503D01*
X160969735Y-101366498D01*
X160909397Y-101220827D01*
X160909390Y-101220814D01*
X160821789Y-101089711D01*
X160821786Y-101089707D01*
X160710292Y-100978213D01*
X160710288Y-100978210D01*
X160579185Y-100890609D01*
X160579172Y-100890602D01*
X160433501Y-100830264D01*
X160433489Y-100830261D01*
X160278845Y-100799500D01*
X160278842Y-100799500D01*
X160121158Y-100799500D01*
X160121155Y-100799500D01*
X159966510Y-100830261D01*
X159966498Y-100830264D01*
X159820827Y-100890602D01*
X159820814Y-100890609D01*
X159689711Y-100978210D01*
X159689707Y-100978213D01*
X159578213Y-101089707D01*
X159578210Y-101089711D01*
X159490609Y-101220814D01*
X159490602Y-101220827D01*
X159430264Y-101366498D01*
X159430261Y-101366510D01*
X159399500Y-101521153D01*
X151259621Y-101521153D01*
X151255051Y-101512184D01*
X151255049Y-101512181D01*
X151255048Y-101512179D01*
X151130109Y-101340213D01*
X150979786Y-101189890D01*
X150807820Y-101064951D01*
X150807115Y-101064591D01*
X150799054Y-101060485D01*
X150748259Y-101012512D01*
X150731463Y-100944692D01*
X150753999Y-100878556D01*
X150799054Y-100839515D01*
X150807816Y-100835051D01*
X150856748Y-100799500D01*
X150979786Y-100710109D01*
X150979788Y-100710106D01*
X150979792Y-100710104D01*
X151130104Y-100559792D01*
X151130106Y-100559788D01*
X151130109Y-100559786D01*
X151255048Y-100387820D01*
X151255047Y-100387820D01*
X151255051Y-100387816D01*
X151351557Y-100198412D01*
X151376660Y-100121153D01*
X161799500Y-100121153D01*
X161799500Y-100278846D01*
X161830261Y-100433489D01*
X161830264Y-100433501D01*
X161890602Y-100579172D01*
X161890609Y-100579185D01*
X161978210Y-100710288D01*
X161978213Y-100710292D01*
X162089707Y-100821786D01*
X162089711Y-100821789D01*
X162220814Y-100909390D01*
X162220827Y-100909397D01*
X162363379Y-100968443D01*
X162366503Y-100969737D01*
X162521153Y-101000499D01*
X162521156Y-101000500D01*
X162521158Y-101000500D01*
X162678844Y-101000500D01*
X162678845Y-101000499D01*
X162833497Y-100969737D01*
X162950790Y-100921153D01*
X172399500Y-100921153D01*
X172399500Y-101078846D01*
X172430261Y-101233489D01*
X172430264Y-101233501D01*
X172490602Y-101379172D01*
X172490609Y-101379185D01*
X172578210Y-101510288D01*
X172578213Y-101510292D01*
X172689707Y-101621786D01*
X172689711Y-101621789D01*
X172820814Y-101709390D01*
X172820827Y-101709397D01*
X172966498Y-101769735D01*
X172966503Y-101769737D01*
X173121153Y-101800499D01*
X173121156Y-101800500D01*
X173121158Y-101800500D01*
X173278844Y-101800500D01*
X173278845Y-101800499D01*
X173433497Y-101769737D01*
X173579179Y-101709394D01*
X173710289Y-101621789D01*
X173821789Y-101510289D01*
X173909394Y-101379179D01*
X173969737Y-101233497D01*
X174000500Y-101078842D01*
X174000500Y-100921158D01*
X174000500Y-100921155D01*
X174000499Y-100921153D01*
X173983372Y-100835050D01*
X173969737Y-100766503D01*
X173942398Y-100700500D01*
X173909397Y-100620827D01*
X173909390Y-100620814D01*
X173821789Y-100489711D01*
X173821786Y-100489707D01*
X173710292Y-100378213D01*
X173710288Y-100378210D01*
X173579185Y-100290609D01*
X173579172Y-100290602D01*
X173433501Y-100230264D01*
X173433489Y-100230261D01*
X173278845Y-100199500D01*
X173278842Y-100199500D01*
X173121158Y-100199500D01*
X173121155Y-100199500D01*
X172966510Y-100230261D01*
X172966498Y-100230264D01*
X172820827Y-100290602D01*
X172820814Y-100290609D01*
X172689711Y-100378210D01*
X172689707Y-100378213D01*
X172578213Y-100489707D01*
X172578210Y-100489711D01*
X172490609Y-100620814D01*
X172490602Y-100620827D01*
X172430264Y-100766498D01*
X172430261Y-100766510D01*
X172399500Y-100921153D01*
X162950790Y-100921153D01*
X162979179Y-100909394D01*
X163110289Y-100821789D01*
X163221789Y-100710289D01*
X163309394Y-100579179D01*
X163369737Y-100433497D01*
X163400500Y-100278842D01*
X163400500Y-100121158D01*
X163400500Y-100121155D01*
X163400499Y-100121153D01*
X163378269Y-100009397D01*
X163369737Y-99966503D01*
X163349102Y-99916685D01*
X163309397Y-99820827D01*
X163309390Y-99820814D01*
X163221789Y-99689711D01*
X163221786Y-99689707D01*
X163110292Y-99578213D01*
X163110288Y-99578210D01*
X162979185Y-99490609D01*
X162979172Y-99490602D01*
X162833501Y-99430264D01*
X162833489Y-99430261D01*
X162678845Y-99399500D01*
X162678842Y-99399500D01*
X162521158Y-99399500D01*
X162521155Y-99399500D01*
X162366510Y-99430261D01*
X162366498Y-99430264D01*
X162220827Y-99490602D01*
X162220814Y-99490609D01*
X162089711Y-99578210D01*
X162089707Y-99578213D01*
X161978213Y-99689707D01*
X161978210Y-99689711D01*
X161890609Y-99820814D01*
X161890602Y-99820827D01*
X161830264Y-99966498D01*
X161830261Y-99966510D01*
X161799500Y-100121153D01*
X151376660Y-100121153D01*
X151417246Y-99996243D01*
X151450500Y-99786287D01*
X151450500Y-99573713D01*
X151417246Y-99363757D01*
X151370911Y-99221153D01*
X165499500Y-99221153D01*
X165499500Y-99378846D01*
X165530261Y-99533489D01*
X165530264Y-99533501D01*
X165590602Y-99679172D01*
X165590609Y-99679185D01*
X165678210Y-99810288D01*
X165678213Y-99810292D01*
X165789707Y-99921786D01*
X165789711Y-99921789D01*
X165920814Y-100009390D01*
X165920827Y-100009397D01*
X166066498Y-100069735D01*
X166066503Y-100069737D01*
X166221153Y-100100499D01*
X166221156Y-100100500D01*
X166221158Y-100100500D01*
X166378844Y-100100500D01*
X166378845Y-100100499D01*
X166533497Y-100069737D01*
X166679179Y-100009394D01*
X166810289Y-99921789D01*
X166921789Y-99810289D01*
X167009394Y-99679179D01*
X167069737Y-99533497D01*
X167100500Y-99378842D01*
X167100500Y-99221158D01*
X167100500Y-99221155D01*
X167100499Y-99221153D01*
X167082419Y-99130261D01*
X167069737Y-99066503D01*
X167030667Y-98972179D01*
X167009397Y-98920827D01*
X167009390Y-98920814D01*
X166921789Y-98789711D01*
X166921786Y-98789707D01*
X166810292Y-98678213D01*
X166810288Y-98678210D01*
X166679185Y-98590609D01*
X166679172Y-98590602D01*
X166533501Y-98530264D01*
X166533489Y-98530261D01*
X166378845Y-98499500D01*
X166378842Y-98499500D01*
X166221158Y-98499500D01*
X166221155Y-98499500D01*
X166066510Y-98530261D01*
X166066498Y-98530264D01*
X165920827Y-98590602D01*
X165920814Y-98590609D01*
X165789711Y-98678210D01*
X165789707Y-98678213D01*
X165678213Y-98789707D01*
X165678210Y-98789711D01*
X165590609Y-98920814D01*
X165590602Y-98920827D01*
X165530264Y-99066498D01*
X165530261Y-99066510D01*
X165499500Y-99221153D01*
X151370911Y-99221153D01*
X151351557Y-99161588D01*
X151255051Y-98972184D01*
X151255049Y-98972181D01*
X151255048Y-98972179D01*
X151130109Y-98800213D01*
X150979786Y-98649890D01*
X150807820Y-98524951D01*
X150807115Y-98524591D01*
X150799054Y-98520485D01*
X150748259Y-98472512D01*
X150731463Y-98404692D01*
X150753999Y-98338556D01*
X150799054Y-98299515D01*
X150807816Y-98295051D01*
X150842661Y-98269735D01*
X150979786Y-98170109D01*
X150979788Y-98170106D01*
X150979792Y-98170104D01*
X151130104Y-98019792D01*
X151130106Y-98019788D01*
X151130109Y-98019786D01*
X151255048Y-97847820D01*
X151255047Y-97847820D01*
X151255051Y-97847816D01*
X151351557Y-97658412D01*
X151417246Y-97456243D01*
X151422804Y-97421153D01*
X159399500Y-97421153D01*
X159399500Y-97578846D01*
X159430261Y-97733489D01*
X159430264Y-97733501D01*
X159490602Y-97879172D01*
X159490609Y-97879185D01*
X159578210Y-98010288D01*
X159578213Y-98010292D01*
X159689707Y-98121786D01*
X159689711Y-98121789D01*
X159820814Y-98209390D01*
X159820827Y-98209397D01*
X159966498Y-98269735D01*
X159966503Y-98269737D01*
X160116201Y-98299514D01*
X160121153Y-98300499D01*
X160121156Y-98300500D01*
X160121158Y-98300500D01*
X160278844Y-98300500D01*
X160278845Y-98300499D01*
X160433497Y-98269737D01*
X160579179Y-98209394D01*
X160710289Y-98121789D01*
X160821789Y-98010289D01*
X160909394Y-97879179D01*
X160969737Y-97733497D01*
X161000500Y-97578842D01*
X161000500Y-97421158D01*
X161000500Y-97421155D01*
X161000499Y-97421153D01*
X160972192Y-97278846D01*
X160969737Y-97266503D01*
X160909534Y-97121158D01*
X160909397Y-97120827D01*
X160909390Y-97120814D01*
X160821789Y-96989711D01*
X160821786Y-96989707D01*
X160710292Y-96878213D01*
X160710288Y-96878210D01*
X160579185Y-96790609D01*
X160579172Y-96790602D01*
X160433501Y-96730264D01*
X160433489Y-96730261D01*
X160278845Y-96699500D01*
X160278842Y-96699500D01*
X160121158Y-96699500D01*
X160121155Y-96699500D01*
X159966510Y-96730261D01*
X159966498Y-96730264D01*
X159820827Y-96790602D01*
X159820814Y-96790609D01*
X159689711Y-96878210D01*
X159689707Y-96878213D01*
X159578213Y-96989707D01*
X159578210Y-96989711D01*
X159490609Y-97120814D01*
X159490602Y-97120827D01*
X159430264Y-97266498D01*
X159430261Y-97266510D01*
X159399500Y-97421153D01*
X151422804Y-97421153D01*
X151450500Y-97246287D01*
X151450500Y-97033713D01*
X151417246Y-96823757D01*
X151351557Y-96621588D01*
X151255051Y-96432184D01*
X151216299Y-96378846D01*
X151150261Y-96287951D01*
X151150260Y-96287950D01*
X151130107Y-96260211D01*
X151091049Y-96221153D01*
X162699500Y-96221153D01*
X162699500Y-96378846D01*
X162730261Y-96533489D01*
X162730264Y-96533501D01*
X162790602Y-96679172D01*
X162790609Y-96679185D01*
X162878210Y-96810288D01*
X162878213Y-96810292D01*
X162989707Y-96921786D01*
X162989711Y-96921789D01*
X163120814Y-97009390D01*
X163120827Y-97009397D01*
X163266498Y-97069735D01*
X163266503Y-97069737D01*
X163421153Y-97100499D01*
X163421156Y-97100500D01*
X163421158Y-97100500D01*
X163578844Y-97100500D01*
X163578845Y-97100499D01*
X163733497Y-97069737D01*
X163879179Y-97009394D01*
X164010289Y-96921789D01*
X164121789Y-96810289D01*
X164209394Y-96679179D01*
X164269737Y-96533497D01*
X164300500Y-96378842D01*
X164300500Y-96221158D01*
X164300500Y-96221155D01*
X164300499Y-96221153D01*
X164269737Y-96066503D01*
X164269735Y-96066498D01*
X164209397Y-95920827D01*
X164209390Y-95920814D01*
X164121789Y-95789711D01*
X164121786Y-95789707D01*
X164010292Y-95678213D01*
X164010288Y-95678210D01*
X163879185Y-95590609D01*
X163879172Y-95590602D01*
X163733501Y-95530264D01*
X163733489Y-95530261D01*
X163578845Y-95499500D01*
X163578842Y-95499500D01*
X163421158Y-95499500D01*
X163421155Y-95499500D01*
X163266510Y-95530261D01*
X163266498Y-95530264D01*
X163120827Y-95590602D01*
X163120814Y-95590609D01*
X162989711Y-95678210D01*
X162989707Y-95678213D01*
X162878213Y-95789707D01*
X162878210Y-95789711D01*
X162790609Y-95920814D01*
X162790602Y-95920827D01*
X162730264Y-96066498D01*
X162730261Y-96066510D01*
X162699500Y-96221153D01*
X151091049Y-96221153D01*
X150979786Y-96109890D01*
X150807817Y-95984949D01*
X150798504Y-95980204D01*
X150747707Y-95932230D01*
X150730912Y-95864409D01*
X150753449Y-95798274D01*
X150798507Y-95759232D01*
X150807555Y-95754622D01*
X150861716Y-95715270D01*
X150861717Y-95715270D01*
X150229408Y-95082962D01*
X150292993Y-95065925D01*
X150407007Y-95000099D01*
X150500099Y-94907007D01*
X150565925Y-94792993D01*
X150582962Y-94729408D01*
X151215270Y-95361717D01*
X151215270Y-95361716D01*
X151254622Y-95307554D01*
X151351095Y-95118217D01*
X151416757Y-94916130D01*
X151416757Y-94916127D01*
X151450000Y-94706246D01*
X151450000Y-94493753D01*
X151416757Y-94283872D01*
X151416757Y-94283869D01*
X151351095Y-94081782D01*
X151254624Y-93892449D01*
X151215270Y-93838282D01*
X151215269Y-93838282D01*
X150582962Y-94470590D01*
X150565925Y-94407007D01*
X150500099Y-94292993D01*
X150407007Y-94199901D01*
X150292993Y-94134075D01*
X150229409Y-94117037D01*
X150861716Y-93484728D01*
X150807550Y-93445375D01*
X150618217Y-93348904D01*
X150416129Y-93283242D01*
X150206246Y-93250000D01*
X149993754Y-93250000D01*
X149783872Y-93283242D01*
X149783869Y-93283242D01*
X149581782Y-93348904D01*
X149392439Y-93445380D01*
X149338282Y-93484727D01*
X149338282Y-93484728D01*
X149970591Y-94117037D01*
X149907007Y-94134075D01*
X149792993Y-94199901D01*
X149699901Y-94292993D01*
X149634075Y-94407007D01*
X149617037Y-94470591D01*
X148984728Y-93838282D01*
X148984727Y-93838282D01*
X148945380Y-93892439D01*
X148848904Y-94081782D01*
X148783242Y-94283869D01*
X148783242Y-94283872D01*
X148750000Y-94493753D01*
X148750000Y-94706246D01*
X148783242Y-94916127D01*
X148783242Y-94916130D01*
X148848904Y-95118217D01*
X148900361Y-95219205D01*
X148913257Y-95287874D01*
X148886981Y-95352614D01*
X148829875Y-95392872D01*
X148789876Y-95399500D01*
X148721155Y-95399500D01*
X148566510Y-95430261D01*
X148566498Y-95430264D01*
X148420827Y-95490602D01*
X148420814Y-95490609D01*
X148289711Y-95578210D01*
X148289707Y-95578213D01*
X148178213Y-95689707D01*
X148178210Y-95689711D01*
X148090609Y-95820814D01*
X148090602Y-95820827D01*
X148030264Y-95966498D01*
X148030261Y-95966510D01*
X147999500Y-96121153D01*
X141576235Y-96121153D01*
X141576235Y-96096893D01*
X141576235Y-96096890D01*
X141576234Y-96096888D01*
X141550300Y-95966510D01*
X141545472Y-95942238D01*
X141523190Y-95888443D01*
X141485132Y-95796562D01*
X141485125Y-95796549D01*
X141397524Y-95665446D01*
X141397521Y-95665442D01*
X141286027Y-95553948D01*
X141286023Y-95553945D01*
X141154920Y-95466344D01*
X141154907Y-95466337D01*
X141009236Y-95405999D01*
X141009224Y-95405996D01*
X140854580Y-95375235D01*
X140854577Y-95375235D01*
X140696893Y-95375235D01*
X140696890Y-95375235D01*
X140542245Y-95405996D01*
X140542233Y-95405999D01*
X140396562Y-95466337D01*
X140396549Y-95466344D01*
X140265446Y-95553945D01*
X140265442Y-95553948D01*
X140153948Y-95665442D01*
X140153945Y-95665446D01*
X140066344Y-95796549D01*
X140066337Y-95796562D01*
X140005999Y-95942233D01*
X140005996Y-95942245D01*
X139975235Y-96096888D01*
X112681538Y-96096888D01*
X112680697Y-94246446D01*
X112680372Y-93532043D01*
X112679798Y-92269735D01*
X112679043Y-90609818D01*
X117885000Y-90609818D01*
X117885000Y-90830181D01*
X117919473Y-91047835D01*
X117987567Y-91257410D01*
X118087611Y-91453756D01*
X118133932Y-91517513D01*
X118720387Y-90931058D01*
X118725889Y-90951591D01*
X118804881Y-91088408D01*
X118916592Y-91200119D01*
X119053409Y-91279111D01*
X119073939Y-91284612D01*
X118487485Y-91871065D01*
X118487485Y-91871066D01*
X118551243Y-91917388D01*
X118747589Y-92017432D01*
X118957164Y-92085526D01*
X119174819Y-92120000D01*
X119395181Y-92120000D01*
X119612835Y-92085526D01*
X119822410Y-92017432D01*
X120018760Y-91917386D01*
X120082513Y-91871066D01*
X120082514Y-91871066D01*
X119496059Y-91284612D01*
X119516591Y-91279111D01*
X119653408Y-91200119D01*
X119765119Y-91088408D01*
X119844111Y-90951591D01*
X119849612Y-90931059D01*
X120436066Y-91517514D01*
X120436066Y-91517513D01*
X120482386Y-91453760D01*
X120582432Y-91257410D01*
X120650526Y-91047835D01*
X120685000Y-90830181D01*
X120685000Y-90609818D01*
X128045000Y-90609818D01*
X128045000Y-90830181D01*
X128079473Y-91047835D01*
X128147567Y-91257410D01*
X128247611Y-91453756D01*
X128293932Y-91517513D01*
X128880387Y-90931058D01*
X128885889Y-90951591D01*
X128964881Y-91088408D01*
X129076592Y-91200119D01*
X129213409Y-91279111D01*
X129233939Y-91284612D01*
X128647485Y-91871065D01*
X128647485Y-91871066D01*
X128711243Y-91917388D01*
X128907589Y-92017432D01*
X129117164Y-92085526D01*
X129334819Y-92120000D01*
X129555181Y-92120000D01*
X129772835Y-92085526D01*
X129982410Y-92017432D01*
X130178760Y-91917386D01*
X130242513Y-91871066D01*
X130242514Y-91871066D01*
X129656059Y-91284612D01*
X129676591Y-91279111D01*
X129813408Y-91200119D01*
X129925119Y-91088408D01*
X130004111Y-90951591D01*
X130009612Y-90931060D01*
X130596066Y-91517514D01*
X130596066Y-91517513D01*
X130642386Y-91453760D01*
X130659000Y-91421153D01*
X160899500Y-91421153D01*
X160899500Y-91578846D01*
X160930261Y-91733489D01*
X160930264Y-91733501D01*
X160990602Y-91879172D01*
X160990609Y-91879185D01*
X161078210Y-92010288D01*
X161078213Y-92010292D01*
X161189707Y-92121786D01*
X161189711Y-92121789D01*
X161320814Y-92209390D01*
X161320827Y-92209397D01*
X161466498Y-92269735D01*
X161466503Y-92269737D01*
X161621153Y-92300499D01*
X161621156Y-92300500D01*
X161621158Y-92300500D01*
X161778844Y-92300500D01*
X161778845Y-92300499D01*
X161933497Y-92269737D01*
X162079179Y-92209394D01*
X162210289Y-92121789D01*
X162321789Y-92010289D01*
X162409394Y-91879179D01*
X162412755Y-91871066D01*
X162469735Y-91733501D01*
X162469737Y-91733497D01*
X162500500Y-91578842D01*
X162500500Y-91421158D01*
X162500500Y-91421155D01*
X162500499Y-91421153D01*
X162469738Y-91266510D01*
X162469737Y-91266503D01*
X162442240Y-91200119D01*
X162409397Y-91120827D01*
X162409390Y-91120814D01*
X162321789Y-90989711D01*
X162321786Y-90989707D01*
X162210292Y-90878213D01*
X162210288Y-90878210D01*
X162079185Y-90790609D01*
X162079172Y-90790602D01*
X161933501Y-90730264D01*
X161933489Y-90730261D01*
X161778845Y-90699500D01*
X161778842Y-90699500D01*
X161621158Y-90699500D01*
X161621155Y-90699500D01*
X161466510Y-90730261D01*
X161466498Y-90730264D01*
X161320827Y-90790602D01*
X161320814Y-90790609D01*
X161189711Y-90878210D01*
X161189707Y-90878213D01*
X161078213Y-90989707D01*
X161078210Y-90989711D01*
X160990609Y-91120814D01*
X160990602Y-91120827D01*
X160930264Y-91266498D01*
X160930261Y-91266510D01*
X160899500Y-91421153D01*
X130659000Y-91421153D01*
X130690786Y-91358771D01*
X130742432Y-91257410D01*
X130810526Y-91047835D01*
X130845000Y-90830181D01*
X130845000Y-90609818D01*
X130810526Y-90392164D01*
X130742432Y-90182589D01*
X130642388Y-89986243D01*
X130596066Y-89922485D01*
X130596065Y-89922485D01*
X130009612Y-90508939D01*
X130004111Y-90488409D01*
X129925119Y-90351592D01*
X129813408Y-90239881D01*
X129676591Y-90160889D01*
X129656057Y-90155387D01*
X130242513Y-89568932D01*
X130178756Y-89522611D01*
X129982410Y-89422567D01*
X129772835Y-89354473D01*
X129555181Y-89320000D01*
X129334819Y-89320000D01*
X129117164Y-89354473D01*
X128907589Y-89422567D01*
X128711233Y-89522616D01*
X128647485Y-89568931D01*
X128647485Y-89568932D01*
X129233940Y-90155387D01*
X129213409Y-90160889D01*
X129076592Y-90239881D01*
X128964881Y-90351592D01*
X128885889Y-90488409D01*
X128880387Y-90508940D01*
X128293932Y-89922485D01*
X128293931Y-89922485D01*
X128247616Y-89986233D01*
X128147567Y-90182589D01*
X128079473Y-90392164D01*
X128045000Y-90609818D01*
X120685000Y-90609818D01*
X120650526Y-90392164D01*
X120582432Y-90182589D01*
X120482388Y-89986243D01*
X120436066Y-89922485D01*
X120436065Y-89922485D01*
X119849612Y-90508939D01*
X119844111Y-90488409D01*
X119765119Y-90351592D01*
X119653408Y-90239881D01*
X119516591Y-90160889D01*
X119496057Y-90155387D01*
X120082513Y-89568932D01*
X120018756Y-89522611D01*
X119822410Y-89422567D01*
X119612835Y-89354473D01*
X119395181Y-89320000D01*
X119174819Y-89320000D01*
X118957164Y-89354473D01*
X118747589Y-89422567D01*
X118551233Y-89522616D01*
X118487485Y-89568931D01*
X118487485Y-89568932D01*
X119073940Y-90155387D01*
X119053409Y-90160889D01*
X118916592Y-90239881D01*
X118804881Y-90351592D01*
X118725889Y-90488409D01*
X118720387Y-90508940D01*
X118133932Y-89922485D01*
X118133931Y-89922485D01*
X118087616Y-89986233D01*
X117987567Y-90182589D01*
X117919473Y-90392164D01*
X117885000Y-90609818D01*
X112679043Y-90609818D01*
X112678122Y-88583653D01*
X146899500Y-88583653D01*
X146899500Y-88741346D01*
X146930261Y-88895989D01*
X146930264Y-88896001D01*
X146990602Y-89041672D01*
X146990609Y-89041685D01*
X147078210Y-89172788D01*
X147078213Y-89172792D01*
X147189707Y-89284286D01*
X147189711Y-89284289D01*
X147320814Y-89371890D01*
X147320827Y-89371897D01*
X147443157Y-89422567D01*
X147466503Y-89432237D01*
X147621153Y-89462999D01*
X147621156Y-89463000D01*
X147621158Y-89463000D01*
X147778844Y-89463000D01*
X147778845Y-89462999D01*
X147933497Y-89432237D01*
X148079179Y-89371894D01*
X148210289Y-89284289D01*
X148321789Y-89172789D01*
X148409394Y-89041679D01*
X148469737Y-88895997D01*
X148500500Y-88741342D01*
X148500500Y-88583658D01*
X148500500Y-88583655D01*
X148500499Y-88583653D01*
X148497731Y-88569737D01*
X148469737Y-88429003D01*
X148420566Y-88310292D01*
X148409397Y-88283327D01*
X148409390Y-88283314D01*
X148321789Y-88152211D01*
X148321786Y-88152207D01*
X148210292Y-88040713D01*
X148210288Y-88040710D01*
X148079185Y-87953109D01*
X148079172Y-87953102D01*
X147933501Y-87892764D01*
X147933489Y-87892761D01*
X147778845Y-87862000D01*
X147778842Y-87862000D01*
X147621158Y-87862000D01*
X147621155Y-87862000D01*
X147466510Y-87892761D01*
X147466498Y-87892764D01*
X147320827Y-87953102D01*
X147320814Y-87953109D01*
X147189711Y-88040710D01*
X147189707Y-88040713D01*
X147078213Y-88152207D01*
X147078210Y-88152211D01*
X146990609Y-88283314D01*
X146990602Y-88283327D01*
X146930264Y-88428998D01*
X146930261Y-88429010D01*
X146899500Y-88583653D01*
X112678122Y-88583653D01*
X112676719Y-85499088D01*
X123495000Y-85499088D01*
X123495000Y-85780911D01*
X123495001Y-85780928D01*
X123531786Y-86060340D01*
X123604733Y-86332582D01*
X123712584Y-86592957D01*
X123712589Y-86592968D01*
X123853500Y-86837031D01*
X123853511Y-86837047D01*
X123958097Y-86973347D01*
X123958098Y-86973347D01*
X124708708Y-86222736D01*
X124805967Y-86356602D01*
X124928398Y-86479033D01*
X125062262Y-86576290D01*
X124311651Y-87326900D01*
X124311651Y-87326902D01*
X124447952Y-87431488D01*
X124447968Y-87431499D01*
X124692031Y-87572410D01*
X124692042Y-87572415D01*
X124952417Y-87680266D01*
X125224659Y-87753213D01*
X125504071Y-87789998D01*
X125504089Y-87790000D01*
X125785911Y-87790000D01*
X125785928Y-87789998D01*
X126065340Y-87753213D01*
X126184990Y-87721153D01*
X161899500Y-87721153D01*
X161899500Y-87878846D01*
X161930261Y-88033489D01*
X161930264Y-88033501D01*
X161990602Y-88179172D01*
X161990609Y-88179185D01*
X162078210Y-88310288D01*
X162078213Y-88310292D01*
X162189707Y-88421786D01*
X162189711Y-88421789D01*
X162320814Y-88509390D01*
X162320827Y-88509397D01*
X162466498Y-88569735D01*
X162466503Y-88569737D01*
X162621153Y-88600499D01*
X162621156Y-88600500D01*
X162621158Y-88600500D01*
X162778844Y-88600500D01*
X162778845Y-88600499D01*
X162933497Y-88569737D01*
X163079179Y-88509394D01*
X163210289Y-88421789D01*
X163321789Y-88310289D01*
X163409394Y-88179179D01*
X163469737Y-88033497D01*
X163500500Y-87878842D01*
X163500500Y-87721158D01*
X163500500Y-87721155D01*
X163500499Y-87721153D01*
X163469738Y-87566510D01*
X163469737Y-87566503D01*
X163413817Y-87431499D01*
X163409397Y-87420827D01*
X163409390Y-87420814D01*
X163321789Y-87289711D01*
X163321786Y-87289707D01*
X163210292Y-87178213D01*
X163210288Y-87178210D01*
X163079185Y-87090609D01*
X163079172Y-87090602D01*
X162933501Y-87030264D01*
X162933489Y-87030261D01*
X162778845Y-86999500D01*
X162778842Y-86999500D01*
X162621158Y-86999500D01*
X162621155Y-86999500D01*
X162466510Y-87030261D01*
X162466498Y-87030264D01*
X162320827Y-87090602D01*
X162320814Y-87090609D01*
X162189711Y-87178210D01*
X162189707Y-87178213D01*
X162078213Y-87289707D01*
X162078210Y-87289711D01*
X161990609Y-87420814D01*
X161990602Y-87420827D01*
X161930264Y-87566498D01*
X161930261Y-87566510D01*
X161899500Y-87721153D01*
X126184990Y-87721153D01*
X126337582Y-87680266D01*
X126530144Y-87600505D01*
X126597957Y-87572415D01*
X126597968Y-87572410D01*
X126842031Y-87431499D01*
X126842039Y-87431493D01*
X126978347Y-87326900D01*
X126227737Y-86576290D01*
X126361602Y-86479033D01*
X126484033Y-86356602D01*
X126581290Y-86222737D01*
X127331900Y-86973347D01*
X127436493Y-86837039D01*
X127436499Y-86837031D01*
X127577410Y-86592968D01*
X127577415Y-86592957D01*
X127685266Y-86332582D01*
X127758213Y-86060340D01*
X127794998Y-85780928D01*
X127795000Y-85780911D01*
X127795000Y-85499088D01*
X127794998Y-85499071D01*
X127758213Y-85219659D01*
X127685266Y-84947417D01*
X127577415Y-84687042D01*
X127577410Y-84687031D01*
X127436499Y-84442968D01*
X127436488Y-84442952D01*
X127331902Y-84306651D01*
X127331900Y-84306651D01*
X126581289Y-85057261D01*
X126484033Y-84923398D01*
X126361602Y-84800967D01*
X126227736Y-84703708D01*
X126978347Y-83953098D01*
X126978347Y-83953097D01*
X126842047Y-83848511D01*
X126842031Y-83848500D01*
X126597968Y-83707589D01*
X126597957Y-83707584D01*
X126337582Y-83599733D01*
X126065340Y-83526786D01*
X125785928Y-83490001D01*
X125785911Y-83490000D01*
X125504089Y-83490000D01*
X125504071Y-83490001D01*
X125224659Y-83526786D01*
X124952417Y-83599733D01*
X124692042Y-83707584D01*
X124692038Y-83707586D01*
X124447962Y-83848505D01*
X124447955Y-83848510D01*
X124311651Y-83953097D01*
X124311651Y-83953098D01*
X125062262Y-84703709D01*
X124928398Y-84800967D01*
X124805967Y-84923398D01*
X124708709Y-85057262D01*
X123958098Y-84306651D01*
X123958097Y-84306651D01*
X123853510Y-84442955D01*
X123853505Y-84442962D01*
X123712586Y-84687038D01*
X123712584Y-84687042D01*
X123604733Y-84947417D01*
X123531786Y-85219659D01*
X123495001Y-85499071D01*
X123495000Y-85499088D01*
X112676719Y-85499088D01*
X112675905Y-83707589D01*
X112675019Y-81757386D01*
X112674424Y-80449818D01*
X117885000Y-80449818D01*
X117885000Y-80670181D01*
X117919473Y-80887835D01*
X117987567Y-81097410D01*
X118087611Y-81293756D01*
X118133932Y-81357513D01*
X118720387Y-80771058D01*
X118725889Y-80791591D01*
X118804881Y-80928408D01*
X118916592Y-81040119D01*
X119053409Y-81119111D01*
X119073939Y-81124612D01*
X118487485Y-81711065D01*
X118487485Y-81711066D01*
X118551243Y-81757388D01*
X118747589Y-81857432D01*
X118957164Y-81925526D01*
X119174819Y-81960000D01*
X119395181Y-81960000D01*
X119612835Y-81925526D01*
X119822410Y-81857432D01*
X120018760Y-81757386D01*
X120082513Y-81711066D01*
X120082514Y-81711066D01*
X119496059Y-81124612D01*
X119516591Y-81119111D01*
X119653408Y-81040119D01*
X119765119Y-80928408D01*
X119844111Y-80791591D01*
X119849612Y-80771059D01*
X120436066Y-81357514D01*
X120436066Y-81357513D01*
X120482386Y-81293760D01*
X120582432Y-81097410D01*
X120650526Y-80887835D01*
X120685000Y-80670181D01*
X120685000Y-80449818D01*
X128045000Y-80449818D01*
X128045000Y-80670181D01*
X128079473Y-80887835D01*
X128147567Y-81097410D01*
X128247611Y-81293756D01*
X128293932Y-81357513D01*
X128880387Y-80771058D01*
X128885889Y-80791591D01*
X128964881Y-80928408D01*
X129076592Y-81040119D01*
X129213409Y-81119111D01*
X129233939Y-81124612D01*
X128647485Y-81711065D01*
X128647485Y-81711066D01*
X128711243Y-81757388D01*
X128907589Y-81857432D01*
X129117164Y-81925526D01*
X129334819Y-81960000D01*
X129555181Y-81960000D01*
X129772835Y-81925526D01*
X129982410Y-81857432D01*
X130178760Y-81757386D01*
X130242513Y-81711066D01*
X130242514Y-81711066D01*
X129656059Y-81124612D01*
X129676591Y-81119111D01*
X129813408Y-81040119D01*
X129925119Y-80928408D01*
X130004111Y-80791591D01*
X130009612Y-80771060D01*
X130596066Y-81357514D01*
X130596066Y-81357513D01*
X130642386Y-81293760D01*
X130742432Y-81097410D01*
X130810526Y-80887835D01*
X130821088Y-80821153D01*
X159499500Y-80821153D01*
X159499500Y-80978846D01*
X159530261Y-81133489D01*
X159530264Y-81133501D01*
X159590602Y-81279172D01*
X159590609Y-81279185D01*
X159678210Y-81410288D01*
X159678213Y-81410292D01*
X159789707Y-81521786D01*
X159789711Y-81521789D01*
X159920814Y-81609390D01*
X159920827Y-81609397D01*
X160052322Y-81663863D01*
X160066503Y-81669737D01*
X160221153Y-81700499D01*
X160221156Y-81700500D01*
X160221158Y-81700500D01*
X160378844Y-81700500D01*
X160378845Y-81700499D01*
X160533497Y-81669737D01*
X160679179Y-81609394D01*
X160810289Y-81521789D01*
X160921789Y-81410289D01*
X161009394Y-81279179D01*
X161069737Y-81133497D01*
X161100500Y-80978842D01*
X161100500Y-80821158D01*
X161100500Y-80821155D01*
X161100499Y-80821153D01*
X161094619Y-80791591D01*
X161069737Y-80666503D01*
X161025623Y-80560001D01*
X161009397Y-80520827D01*
X161009390Y-80520814D01*
X160921789Y-80389711D01*
X160921786Y-80389707D01*
X160810292Y-80278213D01*
X160810288Y-80278210D01*
X160679185Y-80190609D01*
X160679172Y-80190602D01*
X160533501Y-80130264D01*
X160533489Y-80130261D01*
X160378845Y-80099500D01*
X160378842Y-80099500D01*
X160221158Y-80099500D01*
X160221155Y-80099500D01*
X160066510Y-80130261D01*
X160066498Y-80130264D01*
X159920827Y-80190602D01*
X159920814Y-80190609D01*
X159789711Y-80278210D01*
X159789707Y-80278213D01*
X159678213Y-80389707D01*
X159678210Y-80389711D01*
X159590609Y-80520814D01*
X159590602Y-80520827D01*
X159530264Y-80666498D01*
X159530261Y-80666510D01*
X159499500Y-80821153D01*
X130821088Y-80821153D01*
X130825125Y-80795668D01*
X130845000Y-80670181D01*
X130845000Y-80449818D01*
X130810526Y-80232164D01*
X130742432Y-80022589D01*
X130642388Y-79826243D01*
X130596066Y-79762485D01*
X130596065Y-79762485D01*
X130009612Y-80348939D01*
X130004111Y-80328409D01*
X129925119Y-80191592D01*
X129813408Y-80079881D01*
X129676591Y-80000889D01*
X129656057Y-79995387D01*
X130156084Y-79495361D01*
X161863260Y-79495361D01*
X161863260Y-79653054D01*
X161894021Y-79807697D01*
X161894024Y-79807709D01*
X161954362Y-79953380D01*
X161954369Y-79953393D01*
X162041970Y-80084496D01*
X162041973Y-80084500D01*
X162153467Y-80195994D01*
X162153471Y-80195997D01*
X162284574Y-80283598D01*
X162284587Y-80283605D01*
X162392755Y-80328409D01*
X162430263Y-80343945D01*
X162584913Y-80374707D01*
X162584916Y-80374708D01*
X162584918Y-80374708D01*
X162742604Y-80374708D01*
X162742605Y-80374707D01*
X162897257Y-80343945D01*
X163042939Y-80283602D01*
X163174049Y-80195997D01*
X163285549Y-80084497D01*
X163373154Y-79953387D01*
X163433497Y-79807705D01*
X163464260Y-79653050D01*
X163464260Y-79495366D01*
X163464260Y-79495363D01*
X163464259Y-79495361D01*
X163447067Y-79408931D01*
X163433497Y-79340711D01*
X163404994Y-79271897D01*
X163373157Y-79195035D01*
X163373150Y-79195022D01*
X163285549Y-79063919D01*
X163285546Y-79063915D01*
X163174052Y-78952421D01*
X163174048Y-78952418D01*
X163042945Y-78864817D01*
X163042932Y-78864810D01*
X162897261Y-78804472D01*
X162897249Y-78804469D01*
X162742605Y-78773708D01*
X162742602Y-78773708D01*
X162584918Y-78773708D01*
X162584915Y-78773708D01*
X162430270Y-78804469D01*
X162430258Y-78804472D01*
X162284587Y-78864810D01*
X162284574Y-78864817D01*
X162153471Y-78952418D01*
X162153467Y-78952421D01*
X162041973Y-79063915D01*
X162041970Y-79063919D01*
X161954369Y-79195022D01*
X161954362Y-79195035D01*
X161894024Y-79340706D01*
X161894021Y-79340718D01*
X161863260Y-79495361D01*
X130156084Y-79495361D01*
X130242513Y-79408932D01*
X130178756Y-79362611D01*
X129982410Y-79262567D01*
X129772835Y-79194473D01*
X129555181Y-79160000D01*
X129334819Y-79160000D01*
X129117164Y-79194473D01*
X128907589Y-79262567D01*
X128711233Y-79362616D01*
X128647485Y-79408931D01*
X128647485Y-79408932D01*
X129233940Y-79995387D01*
X129213409Y-80000889D01*
X129076592Y-80079881D01*
X128964881Y-80191592D01*
X128885889Y-80328409D01*
X128880387Y-80348940D01*
X128293932Y-79762485D01*
X128293931Y-79762485D01*
X128247616Y-79826233D01*
X128147567Y-80022589D01*
X128079473Y-80232164D01*
X128045000Y-80449818D01*
X120685000Y-80449818D01*
X120650526Y-80232164D01*
X120582432Y-80022589D01*
X120482388Y-79826243D01*
X120436066Y-79762485D01*
X120436065Y-79762485D01*
X119849612Y-80348939D01*
X119844111Y-80328409D01*
X119765119Y-80191592D01*
X119653408Y-80079881D01*
X119516591Y-80000889D01*
X119496057Y-79995387D01*
X120082513Y-79408932D01*
X120018756Y-79362611D01*
X119822410Y-79262567D01*
X119612835Y-79194473D01*
X119395181Y-79160000D01*
X119174819Y-79160000D01*
X118957164Y-79194473D01*
X118747589Y-79262567D01*
X118551233Y-79362616D01*
X118487485Y-79408931D01*
X118487485Y-79408932D01*
X119073940Y-79995387D01*
X119053409Y-80000889D01*
X118916592Y-80079881D01*
X118804881Y-80191592D01*
X118725889Y-80328409D01*
X118720387Y-80348940D01*
X118133932Y-79762485D01*
X118133931Y-79762485D01*
X118087616Y-79826233D01*
X117987567Y-80022589D01*
X117919473Y-80232164D01*
X117885000Y-80449818D01*
X112674424Y-80449818D01*
X112673530Y-78483653D01*
X165462000Y-78483653D01*
X165462000Y-78641346D01*
X165492761Y-78795989D01*
X165492764Y-78796001D01*
X165553102Y-78941672D01*
X165553109Y-78941685D01*
X165640710Y-79072788D01*
X165640713Y-79072792D01*
X165752207Y-79184286D01*
X165752211Y-79184289D01*
X165883314Y-79271890D01*
X165883327Y-79271897D01*
X166028998Y-79332235D01*
X166029003Y-79332237D01*
X166181702Y-79362611D01*
X166183653Y-79362999D01*
X166183656Y-79363000D01*
X166183658Y-79363000D01*
X166341344Y-79363000D01*
X166341345Y-79362999D01*
X166495997Y-79332237D01*
X166641679Y-79271894D01*
X166772789Y-79184289D01*
X166835925Y-79121153D01*
X170399500Y-79121153D01*
X170399500Y-79278846D01*
X170430261Y-79433489D01*
X170430264Y-79433501D01*
X170490602Y-79579172D01*
X170490609Y-79579185D01*
X170578210Y-79710288D01*
X170578213Y-79710292D01*
X170689707Y-79821786D01*
X170689711Y-79821789D01*
X170820814Y-79909390D01*
X170820827Y-79909397D01*
X170966498Y-79969735D01*
X170966503Y-79969737D01*
X171121153Y-80000499D01*
X171121156Y-80000500D01*
X171121158Y-80000500D01*
X171278844Y-80000500D01*
X171278845Y-80000499D01*
X171433497Y-79969737D01*
X171579179Y-79909394D01*
X171710289Y-79821789D01*
X171821789Y-79710289D01*
X171909394Y-79579179D01*
X171969737Y-79433497D01*
X172000500Y-79278842D01*
X172000500Y-79121158D01*
X172000500Y-79121155D01*
X172000499Y-79121153D01*
X171990879Y-79072789D01*
X171969737Y-78966503D01*
X171927618Y-78864817D01*
X171909397Y-78820827D01*
X171909390Y-78820814D01*
X171821789Y-78689711D01*
X171821786Y-78689707D01*
X171710292Y-78578213D01*
X171710288Y-78578210D01*
X171579185Y-78490609D01*
X171579172Y-78490602D01*
X171433501Y-78430264D01*
X171433489Y-78430261D01*
X171278845Y-78399500D01*
X171278842Y-78399500D01*
X171121158Y-78399500D01*
X171121155Y-78399500D01*
X170966510Y-78430261D01*
X170966498Y-78430264D01*
X170820827Y-78490602D01*
X170820814Y-78490609D01*
X170689711Y-78578210D01*
X170689707Y-78578213D01*
X170578213Y-78689707D01*
X170578210Y-78689711D01*
X170490609Y-78820814D01*
X170490602Y-78820827D01*
X170430264Y-78966498D01*
X170430261Y-78966510D01*
X170399500Y-79121153D01*
X166835925Y-79121153D01*
X166884289Y-79072789D01*
X166971894Y-78941679D01*
X167032237Y-78795997D01*
X167063000Y-78641342D01*
X167063000Y-78483658D01*
X167063000Y-78483655D01*
X167062999Y-78483653D01*
X167052379Y-78430263D01*
X167032237Y-78329003D01*
X167032235Y-78328998D01*
X166971897Y-78183327D01*
X166971890Y-78183314D01*
X166884289Y-78052211D01*
X166884286Y-78052207D01*
X166772792Y-77940713D01*
X166772788Y-77940710D01*
X166641685Y-77853109D01*
X166641672Y-77853102D01*
X166496001Y-77792764D01*
X166495989Y-77792761D01*
X166341345Y-77762000D01*
X166341342Y-77762000D01*
X166183658Y-77762000D01*
X166183655Y-77762000D01*
X166029010Y-77792761D01*
X166028998Y-77792764D01*
X165883327Y-77853102D01*
X165883314Y-77853109D01*
X165752211Y-77940710D01*
X165752207Y-77940713D01*
X165640713Y-78052207D01*
X165640710Y-78052211D01*
X165553109Y-78183314D01*
X165553102Y-78183327D01*
X165492764Y-78328998D01*
X165492761Y-78329010D01*
X165462000Y-78483653D01*
X112673530Y-78483653D01*
X112672729Y-76721153D01*
X159499500Y-76721153D01*
X159499500Y-76878846D01*
X159530261Y-77033489D01*
X159530264Y-77033501D01*
X159590602Y-77179172D01*
X159590609Y-77179185D01*
X159678210Y-77310288D01*
X159678213Y-77310292D01*
X159789707Y-77421786D01*
X159789711Y-77421789D01*
X159920814Y-77509390D01*
X159920827Y-77509397D01*
X160066498Y-77569735D01*
X160066503Y-77569737D01*
X160221153Y-77600499D01*
X160221156Y-77600500D01*
X160221158Y-77600500D01*
X160378844Y-77600500D01*
X160378845Y-77600499D01*
X160533497Y-77569737D01*
X160679179Y-77509394D01*
X160810289Y-77421789D01*
X160921789Y-77310289D01*
X161009394Y-77179179D01*
X161069737Y-77033497D01*
X161100500Y-76878842D01*
X161100500Y-76721158D01*
X161100500Y-76721155D01*
X161100499Y-76721153D01*
X161069738Y-76566510D01*
X161069737Y-76566503D01*
X161069735Y-76566498D01*
X161009397Y-76420827D01*
X161009390Y-76420814D01*
X160921789Y-76289711D01*
X160921786Y-76289707D01*
X160810292Y-76178213D01*
X160810288Y-76178210D01*
X160679185Y-76090609D01*
X160679172Y-76090602D01*
X160533501Y-76030264D01*
X160533489Y-76030261D01*
X160378845Y-75999500D01*
X160378842Y-75999500D01*
X160221158Y-75999500D01*
X160221155Y-75999500D01*
X160066510Y-76030261D01*
X160066498Y-76030264D01*
X159920827Y-76090602D01*
X159920814Y-76090609D01*
X159789711Y-76178210D01*
X159789707Y-76178213D01*
X159678213Y-76289707D01*
X159678210Y-76289711D01*
X159590609Y-76420814D01*
X159590602Y-76420827D01*
X159530264Y-76566498D01*
X159530261Y-76566510D01*
X159499500Y-76721153D01*
X112672729Y-76721153D01*
X112672183Y-75521153D01*
X162599500Y-75521153D01*
X162599500Y-75678846D01*
X162630261Y-75833489D01*
X162630264Y-75833501D01*
X162690602Y-75979172D01*
X162690609Y-75979185D01*
X162778210Y-76110288D01*
X162778213Y-76110292D01*
X162889707Y-76221786D01*
X162889711Y-76221789D01*
X163020814Y-76309390D01*
X163020827Y-76309397D01*
X163166498Y-76369735D01*
X163166503Y-76369737D01*
X163321153Y-76400499D01*
X163321156Y-76400500D01*
X163321158Y-76400500D01*
X163478844Y-76400500D01*
X163478845Y-76400499D01*
X163633497Y-76369737D01*
X163779179Y-76309394D01*
X163910289Y-76221789D01*
X164021789Y-76110289D01*
X164109394Y-75979179D01*
X164169737Y-75833497D01*
X164200500Y-75678842D01*
X164200500Y-75521158D01*
X164200500Y-75521155D01*
X164200499Y-75521153D01*
X164169738Y-75366510D01*
X164169737Y-75366503D01*
X164169735Y-75366498D01*
X164109397Y-75220827D01*
X164109390Y-75220814D01*
X164021789Y-75089711D01*
X164021786Y-75089707D01*
X163910292Y-74978213D01*
X163910288Y-74978210D01*
X163779185Y-74890609D01*
X163779172Y-74890602D01*
X163633501Y-74830264D01*
X163633489Y-74830261D01*
X163478845Y-74799500D01*
X163478842Y-74799500D01*
X163321158Y-74799500D01*
X163321155Y-74799500D01*
X163166510Y-74830261D01*
X163166498Y-74830264D01*
X163020827Y-74890602D01*
X163020814Y-74890609D01*
X162889711Y-74978210D01*
X162889707Y-74978213D01*
X162778213Y-75089707D01*
X162778210Y-75089711D01*
X162690609Y-75220814D01*
X162690602Y-75220827D01*
X162630264Y-75366498D01*
X162630261Y-75366510D01*
X162599500Y-75521153D01*
X112672183Y-75521153D01*
X112671078Y-73089778D01*
X117909500Y-73089778D01*
X117909500Y-73310221D01*
X117943985Y-73527952D01*
X118012103Y-73737603D01*
X118012104Y-73737606D01*
X118112187Y-73934025D01*
X118241752Y-74112358D01*
X118241756Y-74112363D01*
X118397636Y-74268243D01*
X118397641Y-74268247D01*
X118553192Y-74381260D01*
X118575978Y-74397815D01*
X118704375Y-74463237D01*
X118772393Y-74497895D01*
X118772396Y-74497896D01*
X118877221Y-74531955D01*
X118982049Y-74566015D01*
X119199778Y-74600500D01*
X119199779Y-74600500D01*
X119420221Y-74600500D01*
X119420222Y-74600500D01*
X119637951Y-74566015D01*
X119847606Y-74497895D01*
X120044022Y-74397815D01*
X120222365Y-74268242D01*
X120378242Y-74112365D01*
X120507815Y-73934022D01*
X120607895Y-73737606D01*
X120676015Y-73527951D01*
X120710500Y-73310222D01*
X120710500Y-73089778D01*
X128069500Y-73089778D01*
X128069500Y-73310221D01*
X128103985Y-73527952D01*
X128172103Y-73737603D01*
X128172104Y-73737606D01*
X128272187Y-73934025D01*
X128401752Y-74112358D01*
X128401756Y-74112363D01*
X128557636Y-74268243D01*
X128557641Y-74268247D01*
X128713192Y-74381260D01*
X128735978Y-74397815D01*
X128864375Y-74463237D01*
X128932393Y-74497895D01*
X128932396Y-74497896D01*
X129037221Y-74531955D01*
X129142049Y-74566015D01*
X129359778Y-74600500D01*
X129359779Y-74600500D01*
X129580221Y-74600500D01*
X129580222Y-74600500D01*
X129797951Y-74566015D01*
X130007606Y-74497895D01*
X130204022Y-74397815D01*
X130382365Y-74268242D01*
X130538242Y-74112365D01*
X130667815Y-73934022D01*
X130767895Y-73737606D01*
X130836015Y-73527951D01*
X130870500Y-73310222D01*
X130870500Y-73089778D01*
X130836015Y-72872049D01*
X130836014Y-72872045D01*
X130829951Y-72853383D01*
X130819479Y-72821153D01*
X188899500Y-72821153D01*
X188899500Y-72978846D01*
X188930261Y-73133489D01*
X188930264Y-73133501D01*
X188990602Y-73279172D01*
X188990609Y-73279185D01*
X189078210Y-73410288D01*
X189078213Y-73410292D01*
X189189707Y-73521786D01*
X189189711Y-73521789D01*
X189320814Y-73609390D01*
X189320827Y-73609397D01*
X189466498Y-73669735D01*
X189466503Y-73669737D01*
X189621153Y-73700499D01*
X189621156Y-73700500D01*
X189621158Y-73700500D01*
X189778844Y-73700500D01*
X189778845Y-73700499D01*
X189933497Y-73669737D01*
X190079179Y-73609394D01*
X190210289Y-73521789D01*
X190321789Y-73410289D01*
X190409394Y-73279179D01*
X190469737Y-73133497D01*
X190500500Y-72978842D01*
X190500500Y-72821158D01*
X190500500Y-72821155D01*
X190500499Y-72821153D01*
X190469738Y-72666510D01*
X190469737Y-72666503D01*
X190468035Y-72662393D01*
X190409397Y-72520827D01*
X190409390Y-72520814D01*
X190321789Y-72389711D01*
X190321786Y-72389707D01*
X190210292Y-72278213D01*
X190210288Y-72278210D01*
X190079185Y-72190609D01*
X190079172Y-72190602D01*
X189933501Y-72130264D01*
X189933489Y-72130261D01*
X189778845Y-72099500D01*
X189778842Y-72099500D01*
X189621158Y-72099500D01*
X189621155Y-72099500D01*
X189466510Y-72130261D01*
X189466498Y-72130264D01*
X189320827Y-72190602D01*
X189320814Y-72190609D01*
X189189711Y-72278210D01*
X189189707Y-72278213D01*
X189078213Y-72389707D01*
X189078210Y-72389711D01*
X188990609Y-72520814D01*
X188990602Y-72520827D01*
X188930264Y-72666498D01*
X188930261Y-72666510D01*
X188899500Y-72821153D01*
X130819479Y-72821153D01*
X130767896Y-72662396D01*
X130767895Y-72662393D01*
X130695759Y-72520821D01*
X130667815Y-72465978D01*
X130612401Y-72389707D01*
X130538247Y-72287641D01*
X130538243Y-72287636D01*
X130382363Y-72131756D01*
X130382358Y-72131752D01*
X130204025Y-72002187D01*
X130204024Y-72002186D01*
X130204022Y-72002185D01*
X130141096Y-71970122D01*
X130007606Y-71902104D01*
X130007603Y-71902103D01*
X129797952Y-71833985D01*
X129689086Y-71816742D01*
X129580222Y-71799500D01*
X129359778Y-71799500D01*
X129287201Y-71810995D01*
X129142047Y-71833985D01*
X128932396Y-71902103D01*
X128932393Y-71902104D01*
X128735974Y-72002187D01*
X128557641Y-72131752D01*
X128557636Y-72131756D01*
X128401756Y-72287636D01*
X128401752Y-72287641D01*
X128272187Y-72465974D01*
X128172104Y-72662393D01*
X128172103Y-72662396D01*
X128103985Y-72872047D01*
X128069500Y-73089778D01*
X120710500Y-73089778D01*
X120676015Y-72872049D01*
X120641955Y-72767221D01*
X120607896Y-72662396D01*
X120607895Y-72662393D01*
X120535759Y-72520821D01*
X120507815Y-72465978D01*
X120452401Y-72389707D01*
X120378247Y-72287641D01*
X120378243Y-72287636D01*
X120222363Y-72131756D01*
X120222358Y-72131752D01*
X120044025Y-72002187D01*
X120044024Y-72002186D01*
X120044022Y-72002185D01*
X119981096Y-71970122D01*
X119847606Y-71902104D01*
X119847603Y-71902103D01*
X119637952Y-71833985D01*
X119529086Y-71816742D01*
X119420222Y-71799500D01*
X119199778Y-71799500D01*
X119127201Y-71810995D01*
X118982047Y-71833985D01*
X118772396Y-71902103D01*
X118772393Y-71902104D01*
X118575974Y-72002187D01*
X118397641Y-72131752D01*
X118397636Y-72131756D01*
X118241756Y-72287636D01*
X118241752Y-72287641D01*
X118112187Y-72465974D01*
X118012104Y-72662393D01*
X118012103Y-72662396D01*
X117943985Y-72872047D01*
X117909500Y-73089778D01*
X112671078Y-73089778D01*
X112669901Y-70501153D01*
X141599500Y-70501153D01*
X141599500Y-70658846D01*
X141630261Y-70813489D01*
X141630264Y-70813501D01*
X141690602Y-70959172D01*
X141690609Y-70959185D01*
X141778210Y-71090288D01*
X141778213Y-71090292D01*
X141889707Y-71201786D01*
X141889711Y-71201789D01*
X142020814Y-71289390D01*
X142020827Y-71289397D01*
X142166498Y-71349735D01*
X142166503Y-71349737D01*
X142321153Y-71380499D01*
X142321156Y-71380500D01*
X142321158Y-71380500D01*
X142478844Y-71380500D01*
X142478845Y-71380499D01*
X142633497Y-71349737D01*
X142779179Y-71289394D01*
X142910289Y-71201789D01*
X143021789Y-71090289D01*
X143109394Y-70959179D01*
X143169737Y-70813497D01*
X143200500Y-70658842D01*
X143200500Y-70521153D01*
X144099500Y-70521153D01*
X144099500Y-70678846D01*
X144130261Y-70833489D01*
X144130264Y-70833501D01*
X144190602Y-70979172D01*
X144190609Y-70979185D01*
X144278210Y-71110288D01*
X144278213Y-71110292D01*
X144389707Y-71221786D01*
X144389711Y-71221789D01*
X144520814Y-71309390D01*
X144520827Y-71309397D01*
X144666498Y-71369735D01*
X144666503Y-71369737D01*
X144821153Y-71400499D01*
X144821156Y-71400500D01*
X144821158Y-71400500D01*
X144978844Y-71400500D01*
X144978845Y-71400499D01*
X145133497Y-71369737D01*
X145279179Y-71309394D01*
X145410289Y-71221789D01*
X145521789Y-71110289D01*
X145609394Y-70979179D01*
X145669737Y-70833497D01*
X145692084Y-70721153D01*
X161699500Y-70721153D01*
X161699500Y-70878846D01*
X161730261Y-71033489D01*
X161730264Y-71033501D01*
X161790602Y-71179172D01*
X161790609Y-71179185D01*
X161878210Y-71310288D01*
X161878213Y-71310292D01*
X161989707Y-71421786D01*
X161989711Y-71421789D01*
X162120814Y-71509390D01*
X162120827Y-71509397D01*
X162266498Y-71569735D01*
X162266503Y-71569737D01*
X162421153Y-71600499D01*
X162421156Y-71600500D01*
X162421158Y-71600500D01*
X162578844Y-71600500D01*
X162578845Y-71600499D01*
X162733497Y-71569737D01*
X162879179Y-71509394D01*
X163010289Y-71421789D01*
X163121789Y-71310289D01*
X163209394Y-71179179D01*
X163269737Y-71033497D01*
X163300500Y-70878842D01*
X163300500Y-70721158D01*
X163300500Y-70721155D01*
X163300499Y-70721153D01*
X163294250Y-70689737D01*
X163269737Y-70566503D01*
X163250955Y-70521158D01*
X163209397Y-70420827D01*
X163209390Y-70420814D01*
X163121789Y-70289711D01*
X163121786Y-70289707D01*
X163010292Y-70178213D01*
X163010288Y-70178210D01*
X162879185Y-70090609D01*
X162879172Y-70090602D01*
X162733501Y-70030264D01*
X162733489Y-70030261D01*
X162578845Y-69999500D01*
X162578842Y-69999500D01*
X162421158Y-69999500D01*
X162421155Y-69999500D01*
X162266510Y-70030261D01*
X162266498Y-70030264D01*
X162120827Y-70090602D01*
X162120814Y-70090609D01*
X161989711Y-70178210D01*
X161989707Y-70178213D01*
X161878213Y-70289707D01*
X161878210Y-70289711D01*
X161790609Y-70420814D01*
X161790602Y-70420827D01*
X161730264Y-70566498D01*
X161730261Y-70566510D01*
X161699500Y-70721153D01*
X145692084Y-70721153D01*
X145700500Y-70678842D01*
X145700500Y-70521158D01*
X145700500Y-70521155D01*
X145700499Y-70521153D01*
X145691743Y-70477136D01*
X145669737Y-70366503D01*
X145657842Y-70337785D01*
X145609397Y-70220827D01*
X145609390Y-70220814D01*
X145521789Y-70089711D01*
X145521786Y-70089707D01*
X145410292Y-69978213D01*
X145410288Y-69978210D01*
X145350361Y-69938168D01*
X145279185Y-69890609D01*
X145279172Y-69890602D01*
X145159790Y-69841153D01*
X159179500Y-69841153D01*
X159179500Y-69998846D01*
X159210261Y-70153489D01*
X159210264Y-70153501D01*
X159270602Y-70299172D01*
X159270609Y-70299185D01*
X159358210Y-70430288D01*
X159358213Y-70430292D01*
X159469707Y-70541786D01*
X159469711Y-70541789D01*
X159600814Y-70629390D01*
X159600827Y-70629397D01*
X159746498Y-70689735D01*
X159746503Y-70689737D01*
X159901153Y-70720499D01*
X159901156Y-70720500D01*
X159901158Y-70720500D01*
X160058844Y-70720500D01*
X160058845Y-70720499D01*
X160213497Y-70689737D01*
X160359179Y-70629394D01*
X160359186Y-70629388D01*
X160359190Y-70629387D01*
X160385262Y-70611966D01*
X160385266Y-70611964D01*
X160453309Y-70566498D01*
X160490289Y-70541789D01*
X160601789Y-70430289D01*
X160689394Y-70299179D01*
X160749737Y-70153497D01*
X160780500Y-69998842D01*
X160780500Y-69841158D01*
X160780500Y-69841155D01*
X160780499Y-69841153D01*
X160774355Y-69810264D01*
X160772024Y-69798543D01*
X174799499Y-69798543D01*
X174837947Y-69991829D01*
X174837950Y-69991839D01*
X174913364Y-70173907D01*
X174913371Y-70173920D01*
X175022860Y-70337781D01*
X175022863Y-70337785D01*
X175162214Y-70477136D01*
X175162218Y-70477139D01*
X175326079Y-70586628D01*
X175326092Y-70586635D01*
X175500427Y-70658846D01*
X175508165Y-70662051D01*
X175508169Y-70662051D01*
X175508170Y-70662052D01*
X175701456Y-70700500D01*
X175701459Y-70700500D01*
X175898543Y-70700500D01*
X176028582Y-70674632D01*
X176091835Y-70662051D01*
X176273914Y-70586632D01*
X176437782Y-70477139D01*
X176577139Y-70337782D01*
X176686632Y-70173914D01*
X176762051Y-69991835D01*
X176792023Y-69841158D01*
X176800500Y-69798543D01*
X176800500Y-69601456D01*
X176762052Y-69408170D01*
X176762051Y-69408169D01*
X176762051Y-69408165D01*
X176716507Y-69298210D01*
X176686635Y-69226092D01*
X176686628Y-69226079D01*
X176577139Y-69062218D01*
X176577136Y-69062214D01*
X176437785Y-68922863D01*
X176437781Y-68922860D01*
X176273920Y-68813371D01*
X176273907Y-68813364D01*
X176091839Y-68737950D01*
X176091829Y-68737947D01*
X175898543Y-68699500D01*
X175898541Y-68699500D01*
X175701459Y-68699500D01*
X175701457Y-68699500D01*
X175508170Y-68737947D01*
X175508160Y-68737950D01*
X175326092Y-68813364D01*
X175326079Y-68813371D01*
X175162218Y-68922860D01*
X175162214Y-68922863D01*
X175022863Y-69062214D01*
X175022860Y-69062218D01*
X174913371Y-69226079D01*
X174913364Y-69226092D01*
X174837950Y-69408160D01*
X174837947Y-69408170D01*
X174799500Y-69601456D01*
X174799500Y-69601459D01*
X174799500Y-69798541D01*
X174799500Y-69798543D01*
X174799499Y-69798543D01*
X160772024Y-69798543D01*
X160749737Y-69686503D01*
X160689454Y-69540965D01*
X160689397Y-69540827D01*
X160689390Y-69540814D01*
X160601789Y-69409711D01*
X160601786Y-69409707D01*
X160490292Y-69298213D01*
X160490288Y-69298210D01*
X160359185Y-69210609D01*
X160359172Y-69210602D01*
X160213501Y-69150264D01*
X160213489Y-69150261D01*
X160058845Y-69119500D01*
X160058842Y-69119500D01*
X159901158Y-69119500D01*
X159901155Y-69119500D01*
X159746510Y-69150261D01*
X159746498Y-69150264D01*
X159600827Y-69210602D01*
X159600814Y-69210609D01*
X159469711Y-69298210D01*
X159469707Y-69298213D01*
X159358213Y-69409707D01*
X159358210Y-69409711D01*
X159270609Y-69540814D01*
X159270602Y-69540827D01*
X159210264Y-69686498D01*
X159210261Y-69686510D01*
X159179500Y-69841153D01*
X145159790Y-69841153D01*
X145133501Y-69830264D01*
X145133489Y-69830261D01*
X144978845Y-69799500D01*
X144978842Y-69799500D01*
X144821158Y-69799500D01*
X144821155Y-69799500D01*
X144666510Y-69830261D01*
X144666498Y-69830264D01*
X144520827Y-69890602D01*
X144520814Y-69890609D01*
X144389711Y-69978210D01*
X144389707Y-69978213D01*
X144278213Y-70089707D01*
X144278210Y-70089711D01*
X144190609Y-70220814D01*
X144190602Y-70220827D01*
X144130264Y-70366498D01*
X144130261Y-70366510D01*
X144099500Y-70521153D01*
X143200500Y-70521153D01*
X143200500Y-70501158D01*
X143200500Y-70501155D01*
X143200499Y-70501153D01*
X143184518Y-70420814D01*
X143169737Y-70346503D01*
X143166124Y-70337781D01*
X143109397Y-70200827D01*
X143109390Y-70200814D01*
X143021789Y-70069711D01*
X143021786Y-70069707D01*
X142910292Y-69958213D01*
X142910288Y-69958210D01*
X142779185Y-69870609D01*
X142779172Y-69870602D01*
X142633501Y-69810264D01*
X142633489Y-69810261D01*
X142478845Y-69779500D01*
X142478842Y-69779500D01*
X142321158Y-69779500D01*
X142321155Y-69779500D01*
X142166510Y-69810261D01*
X142166498Y-69810264D01*
X142020827Y-69870602D01*
X142020814Y-69870609D01*
X141889711Y-69958210D01*
X141889707Y-69958213D01*
X141778213Y-70069707D01*
X141778210Y-70069711D01*
X141690609Y-70200814D01*
X141690602Y-70200827D01*
X141630264Y-70346498D01*
X141630261Y-70346510D01*
X141599500Y-70501153D01*
X112669901Y-70501153D01*
X112669869Y-70430292D01*
X112669315Y-69210602D01*
X112668755Y-67979041D01*
X123519500Y-67979041D01*
X123519500Y-68260958D01*
X123556295Y-68540439D01*
X123629259Y-68812743D01*
X123737135Y-69073179D01*
X123737140Y-69073190D01*
X123867057Y-69298211D01*
X123878088Y-69317317D01*
X123948982Y-69409707D01*
X124049704Y-69540970D01*
X124249029Y-69740295D01*
X124249033Y-69740298D01*
X124249035Y-69740300D01*
X124472683Y-69911912D01*
X124472690Y-69911916D01*
X124716809Y-70052859D01*
X124716814Y-70052861D01*
X124716817Y-70052863D01*
X124918261Y-70136303D01*
X124959779Y-70153501D01*
X124977261Y-70160742D01*
X125249558Y-70233704D01*
X125529049Y-70270500D01*
X125529056Y-70270500D01*
X125810944Y-70270500D01*
X125810951Y-70270500D01*
X126090442Y-70233704D01*
X126362739Y-70160742D01*
X126623183Y-70052863D01*
X126867317Y-69911912D01*
X127090965Y-69740300D01*
X127290300Y-69540965D01*
X127461912Y-69317317D01*
X127602863Y-69073183D01*
X127710742Y-68812739D01*
X127783704Y-68540442D01*
X127790892Y-68485845D01*
X151177706Y-68485845D01*
X151306652Y-68539257D01*
X151306656Y-68539258D01*
X151461202Y-68569999D01*
X151461206Y-68570000D01*
X151618794Y-68570000D01*
X151618797Y-68569999D01*
X151773343Y-68539258D01*
X151773347Y-68539257D01*
X151902293Y-68485845D01*
X152377706Y-68485845D01*
X152506652Y-68539257D01*
X152506656Y-68539258D01*
X152661202Y-68569999D01*
X152661206Y-68570000D01*
X152818794Y-68570000D01*
X152818797Y-68569999D01*
X152973343Y-68539258D01*
X152973347Y-68539257D01*
X153102293Y-68485845D01*
X152740001Y-68123553D01*
X152740000Y-68123553D01*
X152377706Y-68485845D01*
X151902293Y-68485845D01*
X151540001Y-68123553D01*
X151540000Y-68123553D01*
X151177706Y-68485845D01*
X127790892Y-68485845D01*
X127820500Y-68260951D01*
X127820500Y-67979049D01*
X127783704Y-67699558D01*
X127781465Y-67691202D01*
X150740000Y-67691202D01*
X150740000Y-67848797D01*
X150770741Y-68003343D01*
X150770743Y-68003351D01*
X150824153Y-68132293D01*
X151186446Y-67770001D01*
X151186446Y-67769999D01*
X151156610Y-67740163D01*
X151390000Y-67740163D01*
X151390000Y-67799837D01*
X151412836Y-67854968D01*
X151455032Y-67897164D01*
X151510163Y-67920000D01*
X151569837Y-67920000D01*
X151624968Y-67897164D01*
X151667164Y-67854968D01*
X151690000Y-67799837D01*
X151690000Y-67769999D01*
X151893553Y-67769999D01*
X152140000Y-68016446D01*
X152386446Y-67770001D01*
X152386446Y-67770000D01*
X152356609Y-67740163D01*
X152590000Y-67740163D01*
X152590000Y-67799837D01*
X152612836Y-67854968D01*
X152655032Y-67897164D01*
X152710163Y-67920000D01*
X152769837Y-67920000D01*
X152824968Y-67897164D01*
X152867164Y-67854968D01*
X152890000Y-67799837D01*
X152890000Y-67769999D01*
X153093553Y-67769999D01*
X153093553Y-67770001D01*
X153455845Y-68132293D01*
X153509257Y-68003347D01*
X153509258Y-68003343D01*
X153539999Y-67848797D01*
X153540000Y-67848794D01*
X153540000Y-67691206D01*
X153539999Y-67691202D01*
X153509258Y-67536656D01*
X153509257Y-67536652D01*
X153455845Y-67407706D01*
X153093553Y-67769999D01*
X152890000Y-67769999D01*
X152890000Y-67740163D01*
X152867164Y-67685032D01*
X152824968Y-67642836D01*
X152769837Y-67620000D01*
X152710163Y-67620000D01*
X152655032Y-67642836D01*
X152612836Y-67685032D01*
X152590000Y-67740163D01*
X152356609Y-67740163D01*
X152140000Y-67523553D01*
X151893553Y-67769999D01*
X151690000Y-67769999D01*
X151690000Y-67740163D01*
X151667164Y-67685032D01*
X151624968Y-67642836D01*
X151569837Y-67620000D01*
X151510163Y-67620000D01*
X151455032Y-67642836D01*
X151412836Y-67685032D01*
X151390000Y-67740163D01*
X151156610Y-67740163D01*
X150824153Y-67407705D01*
X150770743Y-67536648D01*
X150770741Y-67536656D01*
X150740000Y-67691202D01*
X127781465Y-67691202D01*
X127710742Y-67427261D01*
X127702642Y-67407705D01*
X127624892Y-67219999D01*
X151343553Y-67219999D01*
X151540000Y-67416446D01*
X151736446Y-67220001D01*
X151736446Y-67220000D01*
X151736445Y-67219999D01*
X152543553Y-67219999D01*
X152740000Y-67416446D01*
X152936446Y-67220001D01*
X152936446Y-67220000D01*
X152740000Y-67023553D01*
X152543553Y-67219999D01*
X151736445Y-67219999D01*
X151540000Y-67023553D01*
X151343553Y-67219999D01*
X127624892Y-67219999D01*
X127623273Y-67216091D01*
X127623272Y-67216089D01*
X127602867Y-67166825D01*
X127602859Y-67166809D01*
X127461916Y-66922690D01*
X127461912Y-66922683D01*
X127290300Y-66699035D01*
X127290298Y-66699033D01*
X127290295Y-66699029D01*
X127182468Y-66591202D01*
X150740000Y-66591202D01*
X150740000Y-66748797D01*
X150770741Y-66903343D01*
X150770743Y-66903351D01*
X150824153Y-67032293D01*
X151186446Y-66670001D01*
X151186446Y-66669999D01*
X151156610Y-66640163D01*
X151390000Y-66640163D01*
X151390000Y-66699837D01*
X151412836Y-66754968D01*
X151455032Y-66797164D01*
X151510163Y-66820000D01*
X151569837Y-66820000D01*
X151624968Y-66797164D01*
X151667164Y-66754968D01*
X151690000Y-66699837D01*
X151690000Y-66669999D01*
X151893553Y-66669999D01*
X152140000Y-66916446D01*
X152386446Y-66670001D01*
X152386446Y-66670000D01*
X152356609Y-66640163D01*
X152590000Y-66640163D01*
X152590000Y-66699837D01*
X152612836Y-66754968D01*
X152655032Y-66797164D01*
X152710163Y-66820000D01*
X152769837Y-66820000D01*
X152824968Y-66797164D01*
X152867164Y-66754968D01*
X152890000Y-66699837D01*
X152890000Y-66669999D01*
X153093553Y-66669999D01*
X153093553Y-66670001D01*
X153455845Y-67032293D01*
X153509257Y-66903347D01*
X153509258Y-66903343D01*
X153539999Y-66748797D01*
X153540000Y-66748794D01*
X153540000Y-66591206D01*
X153539999Y-66591202D01*
X153509258Y-66436656D01*
X153509257Y-66436652D01*
X153455845Y-66307706D01*
X153093553Y-66669999D01*
X152890000Y-66669999D01*
X152890000Y-66640163D01*
X152867164Y-66585032D01*
X152824968Y-66542836D01*
X152769837Y-66520000D01*
X152710163Y-66520000D01*
X152655032Y-66542836D01*
X152612836Y-66585032D01*
X152590000Y-66640163D01*
X152356609Y-66640163D01*
X152140000Y-66423553D01*
X151893553Y-66669999D01*
X151690000Y-66669999D01*
X151690000Y-66640163D01*
X151667164Y-66585032D01*
X151624968Y-66542836D01*
X151569837Y-66520000D01*
X151510163Y-66520000D01*
X151455032Y-66542836D01*
X151412836Y-66585032D01*
X151390000Y-66640163D01*
X151156610Y-66640163D01*
X150824153Y-66307705D01*
X150770743Y-66436648D01*
X150770741Y-66436656D01*
X150740000Y-66591202D01*
X127182468Y-66591202D01*
X127090970Y-66499704D01*
X127090965Y-66499700D01*
X126867317Y-66328088D01*
X126867311Y-66328084D01*
X126867309Y-66328083D01*
X126623190Y-66187140D01*
X126623179Y-66187135D01*
X126362743Y-66079259D01*
X126090439Y-66006295D01*
X125810958Y-65969500D01*
X125810951Y-65969500D01*
X125529049Y-65969500D01*
X125529041Y-65969500D01*
X125249560Y-66006295D01*
X124977256Y-66079259D01*
X124716820Y-66187135D01*
X124716809Y-66187140D01*
X124472690Y-66328083D01*
X124472682Y-66328089D01*
X124249029Y-66499704D01*
X124049704Y-66699029D01*
X123878089Y-66922682D01*
X123878083Y-66922690D01*
X123737140Y-67166809D01*
X123737135Y-67166820D01*
X123629259Y-67427256D01*
X123556295Y-67699560D01*
X123519500Y-67979041D01*
X112668755Y-67979041D01*
X112667498Y-65213653D01*
X143099500Y-65213653D01*
X143099500Y-65371346D01*
X143130261Y-65525989D01*
X143130264Y-65526001D01*
X143190602Y-65671672D01*
X143190609Y-65671685D01*
X143278210Y-65802788D01*
X143278213Y-65802792D01*
X143389707Y-65914286D01*
X143389711Y-65914289D01*
X143520814Y-66001890D01*
X143520827Y-66001897D01*
X143564535Y-66020001D01*
X143666503Y-66062237D01*
X143821153Y-66092999D01*
X143821156Y-66093000D01*
X143821158Y-66093000D01*
X143978844Y-66093000D01*
X143978845Y-66092999D01*
X144133497Y-66062237D01*
X144235467Y-66020000D01*
X151243553Y-66020000D01*
X151540000Y-66316446D01*
X151540001Y-66316446D01*
X151836446Y-66020001D01*
X151836446Y-66020000D01*
X152443553Y-66020000D01*
X152740000Y-66316446D01*
X152740001Y-66316446D01*
X153036446Y-66020001D01*
X153036446Y-66019999D01*
X152740001Y-65723553D01*
X152740000Y-65723553D01*
X152443553Y-66020000D01*
X151836446Y-66020000D01*
X151836446Y-66019999D01*
X151540001Y-65723553D01*
X151540000Y-65723553D01*
X151243553Y-66020000D01*
X144235467Y-66020000D01*
X144279179Y-66001894D01*
X144410289Y-65914289D01*
X144410292Y-65914286D01*
X144443622Y-65880957D01*
X144521786Y-65802792D01*
X144521789Y-65802789D01*
X144609394Y-65671679D01*
X144669737Y-65525997D01*
X144700500Y-65371342D01*
X144700500Y-65291202D01*
X150740000Y-65291202D01*
X150740000Y-65448797D01*
X150770741Y-65603343D01*
X150770743Y-65603351D01*
X150824153Y-65732293D01*
X151186446Y-65370001D01*
X151186446Y-65369999D01*
X151156610Y-65340163D01*
X151390000Y-65340163D01*
X151390000Y-65399837D01*
X151412836Y-65454968D01*
X151455032Y-65497164D01*
X151510163Y-65520000D01*
X151569837Y-65520000D01*
X151624968Y-65497164D01*
X151667164Y-65454968D01*
X151690000Y-65399837D01*
X151690000Y-65369999D01*
X151893553Y-65369999D01*
X152140000Y-65616446D01*
X152386446Y-65370001D01*
X152386446Y-65370000D01*
X152356609Y-65340163D01*
X152590000Y-65340163D01*
X152590000Y-65399837D01*
X152612836Y-65454968D01*
X152655032Y-65497164D01*
X152710163Y-65520000D01*
X152769837Y-65520000D01*
X152824968Y-65497164D01*
X152867164Y-65454968D01*
X152890000Y-65399837D01*
X152890000Y-65369999D01*
X153093553Y-65369999D01*
X153093553Y-65370001D01*
X153455845Y-65732293D01*
X153509257Y-65603347D01*
X153509258Y-65603343D01*
X153539999Y-65448797D01*
X153540000Y-65448794D01*
X153540000Y-65291206D01*
X153539999Y-65291202D01*
X153509258Y-65136656D01*
X153509257Y-65136652D01*
X153455845Y-65007706D01*
X153093553Y-65369999D01*
X152890000Y-65369999D01*
X152890000Y-65340163D01*
X152867164Y-65285032D01*
X152824968Y-65242836D01*
X152769837Y-65220000D01*
X152710163Y-65220000D01*
X152655032Y-65242836D01*
X152612836Y-65285032D01*
X152590000Y-65340163D01*
X152356609Y-65340163D01*
X152140000Y-65123553D01*
X151893553Y-65369999D01*
X151690000Y-65369999D01*
X151690000Y-65340163D01*
X151667164Y-65285032D01*
X151624968Y-65242836D01*
X151569837Y-65220000D01*
X151510163Y-65220000D01*
X151455032Y-65242836D01*
X151412836Y-65285032D01*
X151390000Y-65340163D01*
X151156610Y-65340163D01*
X150824153Y-65007705D01*
X150770743Y-65136648D01*
X150770741Y-65136656D01*
X150740000Y-65291202D01*
X144700500Y-65291202D01*
X144700500Y-65213658D01*
X144700500Y-65213655D01*
X144700499Y-65213653D01*
X144685182Y-65136652D01*
X144669737Y-65059003D01*
X144669735Y-65058998D01*
X144609397Y-64913327D01*
X144609390Y-64913314D01*
X144525343Y-64787529D01*
X144521788Y-64782209D01*
X144509578Y-64769999D01*
X151293553Y-64769999D01*
X151540000Y-65016446D01*
X151786446Y-64770001D01*
X151786446Y-64770000D01*
X151786445Y-64769999D01*
X152493553Y-64769999D01*
X152740000Y-65016446D01*
X152986446Y-64770001D01*
X152986446Y-64770000D01*
X152740000Y-64523553D01*
X152493553Y-64769999D01*
X151786445Y-64769999D01*
X151540000Y-64523553D01*
X151293553Y-64769999D01*
X144509578Y-64769999D01*
X144410292Y-64670713D01*
X144410288Y-64670710D01*
X144279185Y-64583109D01*
X144279172Y-64583102D01*
X144133501Y-64522764D01*
X144133489Y-64522761D01*
X143978845Y-64492000D01*
X143978842Y-64492000D01*
X143821158Y-64492000D01*
X143821155Y-64492000D01*
X143666510Y-64522761D01*
X143666498Y-64522764D01*
X143520827Y-64583102D01*
X143520814Y-64583109D01*
X143389711Y-64670710D01*
X143389707Y-64670713D01*
X143278213Y-64782207D01*
X143278210Y-64782211D01*
X143190609Y-64913314D01*
X143190602Y-64913327D01*
X143130264Y-65058998D01*
X143130261Y-65059010D01*
X143099500Y-65213653D01*
X112667498Y-65213653D01*
X112666459Y-62929778D01*
X117909500Y-62929778D01*
X117909500Y-63150221D01*
X117943985Y-63367952D01*
X118012103Y-63577603D01*
X118012104Y-63577606D01*
X118112187Y-63774025D01*
X118241752Y-63952358D01*
X118241756Y-63952363D01*
X118397636Y-64108243D01*
X118397641Y-64108247D01*
X118482638Y-64170000D01*
X118575978Y-64237815D01*
X118692456Y-64297164D01*
X118772393Y-64337895D01*
X118772396Y-64337896D01*
X118877221Y-64371955D01*
X118982049Y-64406015D01*
X119199778Y-64440500D01*
X119199779Y-64440500D01*
X119420221Y-64440500D01*
X119420222Y-64440500D01*
X119637951Y-64406015D01*
X119847606Y-64337895D01*
X120044022Y-64237815D01*
X120222365Y-64108242D01*
X120378242Y-63952365D01*
X120507815Y-63774022D01*
X120607895Y-63577606D01*
X120676015Y-63367951D01*
X120710500Y-63150222D01*
X120710500Y-62929778D01*
X128069500Y-62929778D01*
X128069500Y-63150221D01*
X128103985Y-63367952D01*
X128172103Y-63577603D01*
X128172104Y-63577606D01*
X128272187Y-63774025D01*
X128401752Y-63952358D01*
X128401756Y-63952363D01*
X128557636Y-64108243D01*
X128557641Y-64108247D01*
X128642638Y-64170000D01*
X128735978Y-64237815D01*
X128852456Y-64297164D01*
X128932393Y-64337895D01*
X128932396Y-64337896D01*
X129037221Y-64371955D01*
X129142049Y-64406015D01*
X129359778Y-64440500D01*
X129359779Y-64440500D01*
X129580221Y-64440500D01*
X129580222Y-64440500D01*
X129797951Y-64406015D01*
X130007606Y-64337895D01*
X130204022Y-64237815D01*
X130382365Y-64108242D01*
X130399405Y-64091202D01*
X150740000Y-64091202D01*
X150740000Y-64248797D01*
X150770741Y-64403343D01*
X150770743Y-64403351D01*
X150824153Y-64532293D01*
X151186446Y-64170001D01*
X151186446Y-64169999D01*
X151156610Y-64140163D01*
X151390000Y-64140163D01*
X151390000Y-64199837D01*
X151412836Y-64254968D01*
X151455032Y-64297164D01*
X151510163Y-64320000D01*
X151569837Y-64320000D01*
X151624968Y-64297164D01*
X151667164Y-64254968D01*
X151690000Y-64199837D01*
X151690000Y-64169999D01*
X151893553Y-64169999D01*
X152140000Y-64416446D01*
X152386446Y-64170001D01*
X152386446Y-64170000D01*
X152356609Y-64140163D01*
X152590000Y-64140163D01*
X152590000Y-64199837D01*
X152612836Y-64254968D01*
X152655032Y-64297164D01*
X152710163Y-64320000D01*
X152769837Y-64320000D01*
X152824968Y-64297164D01*
X152867164Y-64254968D01*
X152890000Y-64199837D01*
X152890000Y-64169999D01*
X153093553Y-64169999D01*
X153093553Y-64170001D01*
X153455845Y-64532293D01*
X153509257Y-64403347D01*
X153509258Y-64403343D01*
X153539999Y-64248797D01*
X153540000Y-64248794D01*
X153540000Y-64091206D01*
X153539999Y-64091202D01*
X153509258Y-63936656D01*
X153509257Y-63936652D01*
X153455845Y-63807706D01*
X153093553Y-64169999D01*
X152890000Y-64169999D01*
X152890000Y-64140163D01*
X152867164Y-64085032D01*
X152824968Y-64042836D01*
X152769837Y-64020000D01*
X152710163Y-64020000D01*
X152655032Y-64042836D01*
X152612836Y-64085032D01*
X152590000Y-64140163D01*
X152356609Y-64140163D01*
X152140000Y-63923553D01*
X151893553Y-64169999D01*
X151690000Y-64169999D01*
X151690000Y-64140163D01*
X151667164Y-64085032D01*
X151624968Y-64042836D01*
X151569837Y-64020000D01*
X151510163Y-64020000D01*
X151455032Y-64042836D01*
X151412836Y-64085032D01*
X151390000Y-64140163D01*
X151156610Y-64140163D01*
X150824153Y-63807705D01*
X150770743Y-63936648D01*
X150770741Y-63936656D01*
X150740000Y-64091202D01*
X130399405Y-64091202D01*
X130538242Y-63952365D01*
X130667815Y-63774022D01*
X130767895Y-63577606D01*
X130767896Y-63577603D01*
X130807196Y-63456650D01*
X130807196Y-63456649D01*
X130808007Y-63454153D01*
X151177705Y-63454153D01*
X151540000Y-63816446D01*
X151540001Y-63816446D01*
X151902293Y-63454153D01*
X152377705Y-63454153D01*
X152740000Y-63816446D01*
X152740001Y-63816446D01*
X153102293Y-63454153D01*
X152973351Y-63400743D01*
X152973343Y-63400741D01*
X152818797Y-63370000D01*
X152661202Y-63370000D01*
X152506656Y-63400741D01*
X152506648Y-63400743D01*
X152377705Y-63454153D01*
X151902293Y-63454153D01*
X151773351Y-63400743D01*
X151773343Y-63400741D01*
X151618797Y-63370000D01*
X151461202Y-63370000D01*
X151306656Y-63400741D01*
X151306648Y-63400743D01*
X151177705Y-63454153D01*
X130808007Y-63454153D01*
X130836014Y-63367954D01*
X130836013Y-63367954D01*
X130836015Y-63367951D01*
X130870500Y-63150222D01*
X130870500Y-62929778D01*
X130836015Y-62712049D01*
X130788129Y-62564668D01*
X130767896Y-62502396D01*
X130767895Y-62502393D01*
X130705113Y-62379179D01*
X130667815Y-62305978D01*
X130615149Y-62233489D01*
X130538247Y-62127641D01*
X130538243Y-62127636D01*
X130382363Y-61971756D01*
X130382358Y-61971752D01*
X130204025Y-61842187D01*
X130204024Y-61842186D01*
X130204022Y-61842185D01*
X130141096Y-61810122D01*
X130007606Y-61742104D01*
X130007603Y-61742103D01*
X129797952Y-61673985D01*
X129689086Y-61656742D01*
X129580222Y-61639500D01*
X129359778Y-61639500D01*
X129287201Y-61650995D01*
X129142047Y-61673985D01*
X128932396Y-61742103D01*
X128932393Y-61742104D01*
X128735974Y-61842187D01*
X128557641Y-61971752D01*
X128557636Y-61971756D01*
X128401756Y-62127636D01*
X128401752Y-62127641D01*
X128272187Y-62305974D01*
X128172104Y-62502393D01*
X128172103Y-62502396D01*
X128103985Y-62712047D01*
X128069500Y-62929778D01*
X120710500Y-62929778D01*
X120676015Y-62712049D01*
X120628129Y-62564668D01*
X120607896Y-62502396D01*
X120607895Y-62502393D01*
X120545113Y-62379179D01*
X120507815Y-62305978D01*
X120455149Y-62233489D01*
X120378247Y-62127641D01*
X120378243Y-62127636D01*
X120222363Y-61971756D01*
X120222358Y-61971752D01*
X120044025Y-61842187D01*
X120044024Y-61842186D01*
X120044022Y-61842185D01*
X119981096Y-61810122D01*
X119847606Y-61742104D01*
X119847603Y-61742103D01*
X119637952Y-61673985D01*
X119529086Y-61656742D01*
X119420222Y-61639500D01*
X119199778Y-61639500D01*
X119127201Y-61650995D01*
X118982047Y-61673985D01*
X118772396Y-61742103D01*
X118772393Y-61742104D01*
X118575974Y-61842187D01*
X118397641Y-61971752D01*
X118397636Y-61971756D01*
X118241756Y-62127636D01*
X118241752Y-62127641D01*
X118112187Y-62305974D01*
X118012104Y-62502393D01*
X118012103Y-62502396D01*
X117943985Y-62712047D01*
X117909500Y-62929778D01*
X112666459Y-62929778D01*
X112665672Y-61198543D01*
X141799499Y-61198543D01*
X141837947Y-61391829D01*
X141837950Y-61391839D01*
X141913364Y-61573907D01*
X141913371Y-61573920D01*
X142022860Y-61737781D01*
X142022863Y-61737785D01*
X142162214Y-61877136D01*
X142162218Y-61877139D01*
X142326079Y-61986628D01*
X142326092Y-61986635D01*
X142508160Y-62062049D01*
X142508165Y-62062051D01*
X142508169Y-62062051D01*
X142508170Y-62062052D01*
X142701456Y-62100500D01*
X142701459Y-62100500D01*
X142898543Y-62100500D01*
X143028582Y-62074632D01*
X143091835Y-62062051D01*
X143273914Y-61986632D01*
X143402965Y-61900403D01*
X172134500Y-61900403D01*
X172134500Y-62099596D01*
X172165661Y-62296340D01*
X172165661Y-62296343D01*
X172227213Y-62485780D01*
X172239701Y-62510288D01*
X172317647Y-62663266D01*
X172434731Y-62824418D01*
X172575582Y-62965269D01*
X172736734Y-63082353D01*
X172869933Y-63150221D01*
X172914219Y-63172786D01*
X173103657Y-63234338D01*
X173103658Y-63234338D01*
X173103661Y-63234339D01*
X173300403Y-63265500D01*
X173300404Y-63265500D01*
X173499596Y-63265500D01*
X173499597Y-63265500D01*
X173696339Y-63234339D01*
X173696342Y-63234338D01*
X173696343Y-63234338D01*
X173885780Y-63172786D01*
X173885780Y-63172785D01*
X173885783Y-63172785D01*
X174063266Y-63082353D01*
X174224418Y-62965269D01*
X174365269Y-62824418D01*
X174467647Y-62683506D01*
X174522977Y-62640841D01*
X174592590Y-62634862D01*
X174636853Y-62653288D01*
X174720821Y-62709394D01*
X174720823Y-62709395D01*
X174720827Y-62709397D01*
X174866498Y-62769735D01*
X174866503Y-62769737D01*
X175021153Y-62800499D01*
X175021156Y-62800500D01*
X175021158Y-62800500D01*
X175178844Y-62800500D01*
X175178845Y-62800499D01*
X175333497Y-62769737D01*
X175479179Y-62709394D01*
X175610289Y-62621789D01*
X175721789Y-62510289D01*
X175809394Y-62379179D01*
X175869737Y-62233497D01*
X175900500Y-62078842D01*
X175900500Y-61921158D01*
X175900500Y-61921155D01*
X175900499Y-61921153D01*
X175869737Y-61766503D01*
X175857842Y-61737785D01*
X175809397Y-61620827D01*
X175809390Y-61620814D01*
X175721789Y-61489711D01*
X175721786Y-61489707D01*
X175610292Y-61378213D01*
X175610288Y-61378210D01*
X175479185Y-61290609D01*
X175479172Y-61290602D01*
X175333501Y-61230264D01*
X175333489Y-61230261D01*
X175178845Y-61199500D01*
X175178842Y-61199500D01*
X175021158Y-61199500D01*
X175021155Y-61199500D01*
X174866510Y-61230261D01*
X174866498Y-61230264D01*
X174720827Y-61290602D01*
X174720814Y-61290609D01*
X174636856Y-61346709D01*
X174570178Y-61367587D01*
X174502798Y-61349102D01*
X174467647Y-61316493D01*
X174448836Y-61290602D01*
X174365269Y-61175582D01*
X174224418Y-61034731D01*
X174063266Y-60917647D01*
X173885780Y-60827213D01*
X173696342Y-60765661D01*
X173548782Y-60742290D01*
X173499597Y-60734500D01*
X173300403Y-60734500D01*
X173234822Y-60744887D01*
X173103659Y-60765661D01*
X173103656Y-60765661D01*
X172914219Y-60827213D01*
X172736733Y-60917647D01*
X172644790Y-60984447D01*
X172575582Y-61034731D01*
X172575580Y-61034733D01*
X172575579Y-61034733D01*
X172434733Y-61175579D01*
X172434733Y-61175580D01*
X172434731Y-61175582D01*
X172418049Y-61198543D01*
X172317647Y-61336733D01*
X172227213Y-61514219D01*
X172165661Y-61703656D01*
X172165661Y-61703659D01*
X172134500Y-61900403D01*
X143402965Y-61900403D01*
X143437782Y-61877139D01*
X143437785Y-61877136D01*
X143507072Y-61807850D01*
X143577136Y-61737785D01*
X143577139Y-61737782D01*
X143686632Y-61573914D01*
X143762051Y-61391835D01*
X143794190Y-61230263D01*
X143800500Y-61198543D01*
X143800500Y-61001456D01*
X143762052Y-60808170D01*
X143762051Y-60808169D01*
X143762051Y-60808165D01*
X143760849Y-60805263D01*
X143686635Y-60626092D01*
X143686628Y-60626079D01*
X143577139Y-60462218D01*
X143577136Y-60462214D01*
X143437785Y-60322863D01*
X143437781Y-60322860D01*
X143273920Y-60213371D01*
X143273907Y-60213364D01*
X143091839Y-60137950D01*
X143091829Y-60137947D01*
X142898543Y-60099500D01*
X142898541Y-60099500D01*
X142701459Y-60099500D01*
X142701457Y-60099500D01*
X142508170Y-60137947D01*
X142508160Y-60137950D01*
X142326092Y-60213364D01*
X142326079Y-60213371D01*
X142162218Y-60322860D01*
X142162214Y-60322863D01*
X142022863Y-60462214D01*
X142022860Y-60462218D01*
X141913371Y-60626079D01*
X141913364Y-60626092D01*
X141837950Y-60808160D01*
X141837947Y-60808170D01*
X141799500Y-61001456D01*
X141799500Y-61001459D01*
X141799500Y-61198541D01*
X141799500Y-61198543D01*
X141799499Y-61198543D01*
X112665672Y-61198543D01*
X112665501Y-60822754D01*
X112665726Y-60815258D01*
X112683271Y-60525202D01*
X112685076Y-60510340D01*
X112685557Y-60507719D01*
X112736780Y-60228197D01*
X112740364Y-60213663D01*
X112740456Y-60213368D01*
X112825696Y-59939822D01*
X112830998Y-59925841D01*
X112948731Y-59664249D01*
X112955676Y-59651016D01*
X113104080Y-59405526D01*
X113112567Y-59393230D01*
X113289480Y-59167417D01*
X113299395Y-59156226D01*
X113502226Y-58953395D01*
X113513417Y-58943480D01*
X113739230Y-58766567D01*
X113751526Y-58758080D01*
X113997016Y-58609676D01*
X114010249Y-58602731D01*
X114271841Y-58484998D01*
X114285822Y-58479696D01*
X114559668Y-58394362D01*
X114574197Y-58390780D01*
X114856344Y-58339075D01*
X114871202Y-58337271D01*
X115161262Y-58319726D01*
X115168730Y-58319500D01*
X115230892Y-58319500D01*
X115230924Y-58319491D01*
X189191252Y-58309500D01*
X189198729Y-58309725D01*
G37*
G04 #@! TD.AperFunction*
M02*
