M48
; DRILL file {KiCad 9.0.6} date 2026-06-09T10:44:35+0200
; FORMAT={-:-/ absolute / metric / decimal}
; #@! TF.CreationDate,2026-06-09T10:44:35+02:00
; #@! TF.GenerationSoftware,Kicad,Pcbnew,9.0.6
; #@! TF.FileFunction,Plated,1,4,PTH
FMAT,2
METRIC
; #@! TA.AperFunction,Plated,PTH,ViaDrill
T1C0.300
; #@! TA.AperFunction,Plated,PTH,ComponentDrill
T2C0.300
; #@! TA.AperFunction,Plated,PTH,ViaDrill
T3C0.500
; #@! TA.AperFunction,Plated,PTH,ComponentDrill
T4C0.600
; #@! TA.AperFunction,Plated,PTH,ComponentDrill
T5C0.750
; #@! TA.AperFunction,Plated,PTH,ComponentDrill
T6C1.000
; #@! TA.AperFunction,Plated,PTH,ComponentDrill
T7C1.020
; #@! TA.AperFunction,Plated,PTH,ComponentDrill
T8C1.100
; #@! TA.AperFunction,Plated,PTH,ComponentDrill
T9C1.200
; #@! TA.AperFunction,Plated,PTH,ComponentDrill
T10C2.200
%
G90
G05
T1
X117.8Y-105.4
X119.4Y-110.6
X119.5Y-105.4
X120.6Y-108.5
X122.4Y-119.4
X122.5Y-113.8
X122.5Y-115.6
X128.4Y-98.0
X130.062Y-99.537
X131.2Y-101.9
X132.2Y-104.5
X132.5Y-106.3
X132.5Y-108.0
X132.6Y-97.4
X133.982Y-104.5
X134.3Y-114.0
X136.3Y-106.3
X137.0Y-72.6
X137.1Y-102.5
X137.1Y-104.532
X137.9Y-115.2
X138.3Y-111.5
X138.8Y-94.5
X138.8Y-114.3
X139.1Y-109.9
X139.6Y-109.2
X140.07Y-108.4
X140.3Y-109.8
X140.776Y-96.176
X140.9Y-119.0
X141.0Y-114.3
X142.3Y-105.2
X142.4Y-70.58
X142.9Y-100.032
X143.1Y-109.8
X143.1Y-110.6
X143.4Y-88.7
X143.6Y-97.2
X143.6Y-107.3
X143.9Y-65.293
X144.0Y-115.2
X144.9Y-62.5
X144.9Y-70.6
X145.0Y-97.2
X145.0Y-98.19
X145.2Y-107.3
X146.1Y-94.5
X146.7Y-108.4
X147.0Y-62.5
X147.0Y-70.5
X147.1Y-99.9
X147.1Y-103.5
X147.7Y-88.662
X148.3Y-118.6
X148.4Y-112.3
X148.8Y-96.2
X150.1Y-106.0
X150.952Y-70.9
X153.157Y-70.9
X153.4Y-108.5
X156.2Y-114.5
X157.4Y-106.6
X157.4Y-108.5
X158.3Y-62.6
X158.9Y-67.9
X159.98Y-69.92
X160.2Y-97.5
X160.2Y-101.6
X160.3Y-76.8
X160.3Y-80.9
X161.2Y-67.9
X161.7Y-91.5
X162.5Y-70.8
X162.6Y-100.2
X162.664Y-79.574
X162.7Y-87.8
X163.4Y-75.6
X163.5Y-96.3
X163.9Y-87.6
X163.9Y-108.3
X164.9Y-114.8
X166.262Y-78.562
X166.3Y-76.8
X166.3Y-99.3
X166.4Y-97.7
X166.6Y-68.5
X167.0Y-70.8
X171.2Y-79.2
X171.5Y-67.5
X171.6Y-69.7
X171.9Y-105.3
X173.0Y-74.5
X173.2Y-101.0
X175.1Y-62.0
X177.7Y-118.8
X187.8Y-103.5
X188.0Y-66.6
X188.0Y-118.2
X188.0Y-121.1
X189.7Y-72.9
T2
X151.54Y-64.17
X151.54Y-65.37
X151.54Y-66.67
X151.54Y-67.77
X152.74Y-64.17
X152.74Y-65.37
X152.74Y-66.67
X152.74Y-67.77
T3
X142.8Y-61.1
X174.4Y-126.0
X175.8Y-69.7
T5
X114.45Y-117.0
X114.45Y-119.0
T6
X150.1Y-94.6
X150.1Y-97.14
X150.1Y-99.68
X150.1Y-102.22
X150.1Y-104.76
X166.4Y-112.26
X166.4Y-114.8
T7
X131.4Y-119.4
X173.4Y-62.0
X186.3Y-124.6
T8
X156.26Y-125.1
X161.34Y-125.1
T9
X119.285Y-80.56
X119.285Y-90.72
X119.31Y-63.04
X119.31Y-73.2
X129.445Y-80.56
X129.445Y-90.72
X129.47Y-63.04
X129.47Y-73.2
T10
X125.645Y-85.64
X125.67Y-68.12
T4
X136.65Y-122.445G85X136.65Y-123.545
G05
X136.65Y-126.775G85X136.65Y-127.575
G05
X145.29Y-122.445G85X145.29Y-123.545
G05
X145.29Y-126.775G85X145.29Y-127.575
G05
M30
