G04 #@! TF.GenerationSoftware,KiCad,Pcbnew,9.0.6*
G04 #@! TF.CreationDate,2026-06-09T10:52:25+02:00*
G04 #@! TF.ProjectId,Convertisseur DC-DC,436f6e76-6572-4746-9973-736575722044,rev?*
G04 #@! TF.SameCoordinates,Original*
G04 #@! TF.FileFunction,Copper,L4,Bot*
G04 #@! TF.FilePolarity,Positive*
%FSLAX46Y46*%
G04 Gerber Fmt 4.6, Leading zero omitted, Abs format (unit mm)*
G04 Created by KiCad (PCBNEW 9.0.6) date 2026-06-09 10:52:25*
%MOMM*%
%LPD*%
G01*
G04 APERTURE LIST*
G04 Aperture macros list*
%AMRoundRect*
0 Rectangle with rounded corners*
0 $1 Rounding radius*
0 $2 $3 $4 $5 $6 $7 $8 $9 X,Y pos of 4 corners*
0 Add a 4 corners polygon primitive as box body*
4,1,4,$2,$3,$4,$5,$6,$7,$8,$9,$2,$3,0*
0 Add four circle primitives for the rounded corners*
1,1,$1+$1,$2,$3*
1,1,$1+$1,$4,$5*
1,1,$1+$1,$6,$7*
1,1,$1+$1,$8,$9*
0 Add four rect primitives between the rounded corners*
20,1,$1+$1,$2,$3,$4,$5,0*
20,1,$1+$1,$4,$5,$6,$7,0*
20,1,$1+$1,$6,$7,$8,$9,0*
20,1,$1+$1,$8,$9,$2,$3,0*%
G04 Aperture macros list end*
G04 #@! TA.AperFunction,ComponentPad*
%ADD10C,1.530000*%
G04 #@! TD*
G04 #@! TA.AperFunction,ComponentPad*
%ADD11C,0.600000*%
G04 #@! TD*
G04 #@! TA.AperFunction,SMDPad,CuDef*
%ADD12R,2.950000X4.500000*%
G04 #@! TD*
G04 #@! TA.AperFunction,ComponentPad*
%ADD13RoundRect,0.250000X0.625000X-0.350000X0.625000X0.350000X-0.625000X0.350000X-0.625000X-0.350000X0*%
G04 #@! TD*
G04 #@! TA.AperFunction,ComponentPad*
%ADD14O,1.750000X1.200000*%
G04 #@! TD*
G04 #@! TA.AperFunction,ComponentPad*
%ADD15C,1.800000*%
G04 #@! TD*
G04 #@! TA.AperFunction,ComponentPad*
%ADD16C,3.300000*%
G04 #@! TD*
G04 #@! TA.AperFunction,ComponentPad*
%ADD17R,1.650000X1.650000*%
G04 #@! TD*
G04 #@! TA.AperFunction,ComponentPad*
%ADD18C,1.650000*%
G04 #@! TD*
G04 #@! TA.AperFunction,ComponentPad*
%ADD19R,1.700000X1.700000*%
G04 #@! TD*
G04 #@! TA.AperFunction,ComponentPad*
%ADD20C,1.700000*%
G04 #@! TD*
G04 #@! TA.AperFunction,HeatsinkPad*
%ADD21O,1.000000X2.100000*%
G04 #@! TD*
G04 #@! TA.AperFunction,HeatsinkPad*
%ADD22O,1.000000X1.800000*%
G04 #@! TD*
G04 #@! TA.AperFunction,ViaPad*
%ADD23C,0.600000*%
G04 #@! TD*
G04 #@! TA.AperFunction,ViaPad*
%ADD24C,1.000000*%
G04 #@! TD*
G04 #@! TA.AperFunction,Conductor*
%ADD25C,0.200000*%
G04 #@! TD*
G04 #@! TA.AperFunction,Conductor*
%ADD26C,0.300000*%
G04 #@! TD*
G04 APERTURE END LIST*
D10*
X173400000Y-62000000D03*
D11*
X151540000Y-64170000D03*
X151540000Y-65370000D03*
X151540000Y-66670000D03*
X151540000Y-67770000D03*
D12*
X152140000Y-65970000D03*
D11*
X152740000Y-64170000D03*
X152740000Y-65370000D03*
X152740000Y-66670000D03*
X152740000Y-67770000D03*
D13*
X114450000Y-119000000D03*
D14*
X114450000Y-117000000D03*
D15*
X119285000Y-80560000D03*
X119285000Y-90720000D03*
D16*
X125645000Y-85640000D03*
D15*
X129445000Y-80560000D03*
X129445000Y-90720000D03*
X119310000Y-63040000D03*
X119310000Y-73200000D03*
D16*
X125670000Y-68120000D03*
D15*
X129470000Y-63040000D03*
X129470000Y-73200000D03*
D10*
X186300000Y-124600000D03*
D17*
X156260000Y-125100000D03*
D18*
X161340000Y-125100000D03*
D19*
X150100000Y-104760000D03*
D20*
X150100000Y-102220000D03*
X150100000Y-99680000D03*
X150100000Y-97140000D03*
X150100000Y-94600000D03*
D19*
X166400000Y-114800000D03*
D20*
X166400000Y-112260000D03*
D21*
X136650000Y-122995000D03*
D22*
X136650000Y-127175000D03*
D21*
X145290000Y-122995000D03*
D22*
X145290000Y-127175000D03*
D10*
X131400000Y-119400000D03*
D23*
X148800000Y-96200000D03*
X140775735Y-96175735D03*
X167000000Y-70800000D03*
X145200000Y-107300000D03*
X173000000Y-74500000D03*
X132500000Y-108000000D03*
X177700000Y-118800000D03*
X157400000Y-108500000D03*
X166300000Y-76800000D03*
X138800000Y-94500000D03*
X147000000Y-70500000D03*
X137000000Y-72600000D03*
X143400000Y-88700000D03*
X148400000Y-112300000D03*
X145000000Y-98190000D03*
X142900000Y-100032500D03*
X158900000Y-67900000D03*
X145000000Y-97200000D03*
X132600000Y-97400000D03*
X188000000Y-118200000D03*
X147000000Y-62500000D03*
X119500000Y-105400000D03*
X153157500Y-70900000D03*
X132200000Y-104500000D03*
X134300000Y-114000000D03*
X158300000Y-62600000D03*
X166400000Y-97700000D03*
X163900000Y-87600000D03*
X142300000Y-105200000D03*
X122500000Y-113800000D03*
X128400000Y-98000000D03*
X166600000Y-68500000D03*
X146100000Y-94500000D03*
X161200000Y-67900000D03*
X156200000Y-114500000D03*
X171600000Y-69700000D03*
X150952500Y-70900000D03*
X163900000Y-108300000D03*
X137100000Y-104532500D03*
X188000000Y-66600000D03*
X140900000Y-119000000D03*
X144000000Y-115200000D03*
X131200000Y-101900000D03*
X137900000Y-115200000D03*
X147100000Y-103500000D03*
X120600000Y-108500000D03*
X171500000Y-67500000D03*
X137100000Y-102500000D03*
X144900000Y-62500000D03*
X171900000Y-105300000D03*
X188000000Y-121100000D03*
X132500000Y-106300000D03*
X175100000Y-62000000D03*
X144900000Y-70600000D03*
X143900000Y-65292500D03*
D24*
X175800000Y-69700000D03*
X142800000Y-61100000D03*
D23*
X142400000Y-70580000D03*
X171200000Y-79200000D03*
X160300000Y-80900000D03*
X160200000Y-101600000D03*
X173200000Y-101000000D03*
D24*
X174400000Y-126000000D03*
D23*
X164900000Y-114800000D03*
X157400000Y-106600000D03*
X139100000Y-109900000D03*
X143100000Y-110600000D03*
X146700000Y-108400000D03*
X140070000Y-108400000D03*
X162700000Y-87800000D03*
X138300000Y-111500000D03*
X143100000Y-109799997D03*
X140300000Y-109800000D03*
X162663760Y-79574208D03*
X160300000Y-76800000D03*
X162600000Y-100200000D03*
X160200000Y-97500000D03*
X139600000Y-109200000D03*
X153400000Y-108500000D03*
X117800000Y-105400000D03*
X147700000Y-88662500D03*
X136300000Y-106300000D03*
X130062500Y-99537500D03*
X150100000Y-106000000D03*
X147100000Y-99900000D03*
X143600000Y-107300000D03*
X133982500Y-104500000D03*
X148300000Y-118600000D03*
X143600000Y-97200000D03*
X161700000Y-91500000D03*
X166300000Y-99300000D03*
X166262500Y-78562500D03*
X162500000Y-70800000D03*
X159980000Y-69920000D03*
X119400000Y-110600000D03*
X122500000Y-115600000D03*
X122400000Y-119400000D03*
X141000000Y-114300000D03*
X138800000Y-114300000D03*
X163400000Y-75600000D03*
X189700000Y-72900000D03*
X187800000Y-103500000D03*
X163500000Y-96300000D03*
D25*
X140800000Y-96200000D02*
X140775735Y-96175735D01*
X148800000Y-96200000D02*
X140800000Y-96200000D01*
D26*
X169500000Y-80900000D02*
X160300000Y-80900000D01*
X171200000Y-79200000D02*
X169500000Y-80900000D01*
X173200000Y-101000000D02*
X172600000Y-101600000D01*
X172600000Y-101600000D02*
X160200000Y-101600000D01*
D25*
X143100000Y-110600000D02*
X139800000Y-110600000D01*
X139800000Y-110600000D02*
X139100000Y-109900000D01*
X140070000Y-108400000D02*
X146700000Y-108400000D01*
X159000000Y-92400000D02*
X162700000Y-88700000D01*
X138300000Y-111500000D02*
X156600000Y-111500000D01*
X159000000Y-109100000D02*
X159000000Y-92400000D01*
X156600000Y-111500000D02*
X159000000Y-109100000D01*
X162700000Y-88700000D02*
X162700000Y-87800000D01*
X140300000Y-109800000D02*
X143099997Y-109800000D01*
X143099997Y-109800000D02*
X143100000Y-109799997D01*
X162663760Y-79574208D02*
X160300000Y-77210448D01*
X160300000Y-77210448D02*
X160300000Y-76800000D01*
D26*
X160200000Y-97800000D02*
X160200000Y-97500000D01*
X162600000Y-100200000D02*
X160200000Y-97800000D01*
D25*
X152700000Y-109200000D02*
X153400000Y-108500000D01*
X139600000Y-109200000D02*
X152700000Y-109200000D01*
X141000000Y-114300000D02*
X138800000Y-114300000D01*
D26*
X163400000Y-75200000D02*
X163400000Y-75600000D01*
X165700000Y-72900000D02*
X163400000Y-75200000D01*
X189700000Y-72900000D02*
X165700000Y-72900000D01*
X187800000Y-103500000D02*
X180600000Y-96300000D01*
X180600000Y-96300000D02*
X163500000Y-96300000D01*
M02*
