G04 #@! TF.GenerationSoftware,KiCad,Pcbnew,9.0.6*
G04 #@! TF.CreationDate,2026-06-09T10:52:25+02:00*
G04 #@! TF.ProjectId,Convertisseur DC-DC,436f6e76-6572-4746-9973-736575722044,rev?*
G04 #@! TF.SameCoordinates,Original*
G04 #@! TF.FileFunction,Copper,L1,Top*
G04 #@! TF.FilePolarity,Positive*
%FSLAX46Y46*%
G04 Gerber Fmt 4.6, Leading zero omitted, Abs format (unit mm)*
G04 Created by KiCad (PCBNEW 9.0.6) date 2026-06-09 10:52:25*
%MOMM*%
%LPD*%
G01*
G04 APERTURE LIST*
G04 Aperture macros list*
%AMRoundRect*
0 Rectangle with rounded corners*
0 $1 Rounding radius*
0 $2 $3 $4 $5 $6 $7 $8 $9 X,Y pos of 4 corners*
0 Add a 4 corners polygon primitive as box body*
4,1,4,$2,$3,$4,$5,$6,$7,$8,$9,$2,$3,0*
0 Add four circle primitives for the rounded corners*
1,1,$1+$1,$2,$3*
1,1,$1+$1,$4,$5*
1,1,$1+$1,$6,$7*
1,1,$1+$1,$8,$9*
0 Add four rect primitives between the rounded corners*
20,1,$1+$1,$2,$3,$4,$5,0*
20,1,$1+$1,$4,$5,$6,$7,0*
20,1,$1+$1,$6,$7,$8,$9,0*
20,1,$1+$1,$8,$9,$2,$3,0*%
G04 Aperture macros list end*
G04 #@! TA.AperFunction,ComponentPad*
%ADD10C,1.530000*%
G04 #@! TD*
G04 #@! TA.AperFunction,SMDPad,CuDef*
%ADD11RoundRect,0.237500X0.300000X0.237500X-0.300000X0.237500X-0.300000X-0.237500X0.300000X-0.237500X0*%
G04 #@! TD*
G04 #@! TA.AperFunction,SMDPad,CuDef*
%ADD12RoundRect,0.150000X-0.150000X0.587500X-0.150000X-0.587500X0.150000X-0.587500X0.150000X0.587500X0*%
G04 #@! TD*
G04 #@! TA.AperFunction,SMDPad,CuDef*
%ADD13RoundRect,0.237500X-0.250000X-0.237500X0.250000X-0.237500X0.250000X0.237500X-0.250000X0.237500X0*%
G04 #@! TD*
G04 #@! TA.AperFunction,SMDPad,CuDef*
%ADD14RoundRect,0.237500X0.250000X0.237500X-0.250000X0.237500X-0.250000X-0.237500X0.250000X-0.237500X0*%
G04 #@! TD*
G04 #@! TA.AperFunction,SMDPad,CuDef*
%ADD15RoundRect,0.218750X0.256250X-0.218750X0.256250X0.218750X-0.256250X0.218750X-0.256250X-0.218750X0*%
G04 #@! TD*
G04 #@! TA.AperFunction,SMDPad,CuDef*
%ADD16RoundRect,0.237500X-0.237500X0.250000X-0.237500X-0.250000X0.237500X-0.250000X0.237500X0.250000X0*%
G04 #@! TD*
G04 #@! TA.AperFunction,SMDPad,CuDef*
%ADD17RoundRect,0.237500X0.237500X-0.300000X0.237500X0.300000X-0.237500X0.300000X-0.237500X-0.300000X0*%
G04 #@! TD*
G04 #@! TA.AperFunction,SMDPad,CuDef*
%ADD18RoundRect,0.237500X0.237500X-0.250000X0.237500X0.250000X-0.237500X0.250000X-0.237500X-0.250000X0*%
G04 #@! TD*
G04 #@! TA.AperFunction,SMDPad,CuDef*
%ADD19RoundRect,0.237500X-0.300000X-0.237500X0.300000X-0.237500X0.300000X0.237500X-0.300000X0.237500X0*%
G04 #@! TD*
G04 #@! TA.AperFunction,SMDPad,CuDef*
%ADD20R,1.550000X0.600000*%
G04 #@! TD*
G04 #@! TA.AperFunction,ComponentPad*
%ADD21C,0.600000*%
G04 #@! TD*
G04 #@! TA.AperFunction,SMDPad,CuDef*
%ADD22R,2.600000X3.100000*%
G04 #@! TD*
G04 #@! TA.AperFunction,SMDPad,CuDef*
%ADD23R,2.950000X4.500000*%
G04 #@! TD*
G04 #@! TA.AperFunction,SMDPad,CuDef*
%ADD24RoundRect,0.150000X-0.587500X-0.150000X0.587500X-0.150000X0.587500X0.150000X-0.587500X0.150000X0*%
G04 #@! TD*
G04 #@! TA.AperFunction,SMDPad,CuDef*
%ADD25RoundRect,0.150000X0.150000X-0.587500X0.150000X0.587500X-0.150000X0.587500X-0.150000X-0.587500X0*%
G04 #@! TD*
G04 #@! TA.AperFunction,ComponentPad*
%ADD26RoundRect,0.250000X0.625000X-0.350000X0.625000X0.350000X-0.625000X0.350000X-0.625000X-0.350000X0*%
G04 #@! TD*
G04 #@! TA.AperFunction,ComponentPad*
%ADD27O,1.750000X1.200000*%
G04 #@! TD*
G04 #@! TA.AperFunction,SMDPad,CuDef*
%ADD28RoundRect,0.250000X-0.337500X-0.475000X0.337500X-0.475000X0.337500X0.475000X-0.337500X0.475000X0*%
G04 #@! TD*
G04 #@! TA.AperFunction,ComponentPad*
%ADD29C,1.800000*%
G04 #@! TD*
G04 #@! TA.AperFunction,ComponentPad*
%ADD30C,3.300000*%
G04 #@! TD*
G04 #@! TA.AperFunction,SMDPad,CuDef*
%ADD31C,2.000000*%
G04 #@! TD*
G04 #@! TA.AperFunction,SMDPad,CuDef*
%ADD32RoundRect,0.250000X-0.350000X0.850000X-0.350000X-0.850000X0.350000X-0.850000X0.350000X0.850000X0*%
G04 #@! TD*
G04 #@! TA.AperFunction,SMDPad,CuDef*
%ADD33RoundRect,0.249997X-2.650003X2.950003X-2.650003X-2.950003X2.650003X-2.950003X2.650003X2.950003X0*%
G04 #@! TD*
G04 #@! TA.AperFunction,ComponentPad*
%ADD34R,1.650000X1.650000*%
G04 #@! TD*
G04 #@! TA.AperFunction,ComponentPad*
%ADD35C,1.650000*%
G04 #@! TD*
G04 #@! TA.AperFunction,SMDPad,CuDef*
%ADD36RoundRect,0.375000X0.625000X0.375000X-0.625000X0.375000X-0.625000X-0.375000X0.625000X-0.375000X0*%
G04 #@! TD*
G04 #@! TA.AperFunction,SMDPad,CuDef*
%ADD37RoundRect,0.500000X0.500000X1.400000X-0.500000X1.400000X-0.500000X-1.400000X0.500000X-1.400000X0*%
G04 #@! TD*
G04 #@! TA.AperFunction,SMDPad,CuDef*
%ADD38RoundRect,0.237500X-0.237500X0.300000X-0.237500X-0.300000X0.237500X-0.300000X0.237500X0.300000X0*%
G04 #@! TD*
G04 #@! TA.AperFunction,SMDPad,CuDef*
%ADD39RoundRect,0.225000X-0.225000X-0.375000X0.225000X-0.375000X0.225000X0.375000X-0.225000X0.375000X0*%
G04 #@! TD*
G04 #@! TA.AperFunction,SMDPad,CuDef*
%ADD40R,1.400000X2.100000*%
G04 #@! TD*
G04 #@! TA.AperFunction,ComponentPad*
%ADD41R,1.700000X1.700000*%
G04 #@! TD*
G04 #@! TA.AperFunction,ComponentPad*
%ADD42C,1.700000*%
G04 #@! TD*
G04 #@! TA.AperFunction,SMDPad,CuDef*
%ADD43RoundRect,0.075000X-0.075000X0.662500X-0.075000X-0.662500X0.075000X-0.662500X0.075000X0.662500X0*%
G04 #@! TD*
G04 #@! TA.AperFunction,SMDPad,CuDef*
%ADD44RoundRect,0.075000X-0.662500X0.075000X-0.662500X-0.075000X0.662500X-0.075000X0.662500X0.075000X0*%
G04 #@! TD*
G04 #@! TA.AperFunction,SMDPad,CuDef*
%ADD45R,0.650000X1.528000*%
G04 #@! TD*
G04 #@! TA.AperFunction,SMDPad,CuDef*
%ADD46RoundRect,0.150000X0.150000X-0.512500X0.150000X0.512500X-0.150000X0.512500X-0.150000X-0.512500X0*%
G04 #@! TD*
G04 #@! TA.AperFunction,SMDPad,CuDef*
%ADD47RoundRect,0.475000X-2.075000X0.475000X-2.075000X-0.475000X2.075000X-0.475000X2.075000X0.475000X0*%
G04 #@! TD*
G04 #@! TA.AperFunction,SMDPad,CuDef*
%ADD48RoundRect,0.150000X-0.150000X-0.350000X0.150000X-0.350000X0.150000X0.350000X-0.150000X0.350000X0*%
G04 #@! TD*
G04 #@! TA.AperFunction,SMDPad,CuDef*
%ADD49RoundRect,0.075000X-0.075000X-0.500000X0.075000X-0.500000X0.075000X0.500000X-0.075000X0.500000X0*%
G04 #@! TD*
G04 #@! TA.AperFunction,HeatsinkPad*
%ADD50O,1.000000X2.100000*%
G04 #@! TD*
G04 #@! TA.AperFunction,HeatsinkPad*
%ADD51O,1.000000X1.800000*%
G04 #@! TD*
G04 #@! TA.AperFunction,SMDPad,CuDef*
%ADD52R,12.500000X3.150000*%
G04 #@! TD*
G04 #@! TA.AperFunction,SMDPad,CuDef*
%ADD53RoundRect,0.250000X0.400000X0.625000X-0.400000X0.625000X-0.400000X-0.625000X0.400000X-0.625000X0*%
G04 #@! TD*
G04 #@! TA.AperFunction,SMDPad,CuDef*
%ADD54RoundRect,0.250001X-2.049999X-0.799999X2.049999X-0.799999X2.049999X0.799999X-2.049999X0.799999X0*%
G04 #@! TD*
G04 #@! TA.AperFunction,SMDPad,CuDef*
%ADD55RoundRect,0.250001X0.624999X-0.462499X0.624999X0.462499X-0.624999X0.462499X-0.624999X-0.462499X0*%
G04 #@! TD*
G04 #@! TA.AperFunction,SMDPad,CuDef*
%ADD56RoundRect,0.250001X0.799999X-1.999999X0.799999X1.999999X-0.799999X1.999999X-0.799999X-1.999999X0*%
G04 #@! TD*
G04 #@! TA.AperFunction,ViaPad*
%ADD57C,0.600000*%
G04 #@! TD*
G04 #@! TA.AperFunction,ViaPad*
%ADD58C,1.000000*%
G04 #@! TD*
G04 #@! TA.AperFunction,Conductor*
%ADD59C,2.000000*%
G04 #@! TD*
G04 #@! TA.AperFunction,Conductor*
%ADD60C,0.200000*%
G04 #@! TD*
G04 #@! TA.AperFunction,Conductor*
%ADD61C,0.600000*%
G04 #@! TD*
G04 #@! TA.AperFunction,Conductor*
%ADD62C,1.500000*%
G04 #@! TD*
G04 #@! TA.AperFunction,Conductor*
%ADD63C,0.500000*%
G04 #@! TD*
G04 #@! TA.AperFunction,Conductor*
%ADD64C,0.300000*%
G04 #@! TD*
G04 APERTURE END LIST*
D10*
X173400000Y-62000000D03*
D11*
X135282500Y-108000000D03*
X133557500Y-108000000D03*
D12*
X119500000Y-108500000D03*
X117600000Y-108500000D03*
X118550000Y-110375000D03*
D13*
X154575000Y-108500000D03*
X156400000Y-108500000D03*
D11*
X133982500Y-101852500D03*
X132257500Y-101852500D03*
D14*
X159012500Y-69920000D03*
X157187500Y-69920000D03*
D15*
X127400000Y-97987500D03*
X127400000Y-96412500D03*
D16*
X140020000Y-111127500D03*
X140020000Y-112952500D03*
X141920000Y-111140000D03*
X141920000Y-112965000D03*
D17*
X139800000Y-96200000D03*
X139800000Y-94475000D03*
D18*
X137900000Y-118020000D03*
X137900000Y-116195000D03*
D19*
X143457500Y-108300000D03*
X145182500Y-108300000D03*
D20*
X149440000Y-64065000D03*
X149440000Y-65335000D03*
X149440000Y-66605000D03*
X149440000Y-67875000D03*
X154840000Y-67875000D03*
X154840000Y-66605000D03*
X154840000Y-65335000D03*
X154840000Y-64065000D03*
D21*
X151540000Y-64170000D03*
X151540000Y-65370000D03*
X151540000Y-66670000D03*
X151540000Y-67770000D03*
D22*
X152140000Y-65970000D03*
D23*
X152140000Y-65970000D03*
D21*
X152740000Y-64170000D03*
X152740000Y-65370000D03*
X152740000Y-66670000D03*
X152740000Y-67770000D03*
D16*
X146100000Y-101687500D03*
X146100000Y-103512500D03*
D24*
X139332500Y-69630000D03*
X139332500Y-71530000D03*
X141207500Y-70580000D03*
D13*
X161687500Y-97520000D03*
X163512500Y-97520000D03*
D25*
X130850000Y-99537500D03*
X132750000Y-99537500D03*
X131800000Y-97662500D03*
D26*
X114450000Y-119000000D03*
D27*
X114450000Y-117000000D03*
D18*
X167500000Y-86587500D03*
X167500000Y-84762500D03*
D28*
X163692500Y-70800000D03*
X165767500Y-70800000D03*
D13*
X161575000Y-76800000D03*
X163400000Y-76800000D03*
D29*
X119285000Y-80560000D03*
X119285000Y-90720000D03*
D30*
X125645000Y-85640000D03*
D29*
X129445000Y-80560000D03*
X129445000Y-90720000D03*
D31*
X150070000Y-118600000D03*
D32*
X177537053Y-105300000D03*
D33*
X175257053Y-111600000D03*
D32*
X172977053Y-105300000D03*
D31*
X126600000Y-105900000D03*
D29*
X119310000Y-63040000D03*
X119310000Y-73200000D03*
D30*
X125670000Y-68120000D03*
D29*
X129470000Y-63040000D03*
X129470000Y-73200000D03*
D10*
X186300000Y-124600000D03*
D14*
X125312500Y-113800000D03*
X123487500Y-113800000D03*
D34*
X156260000Y-125100000D03*
D35*
X161340000Y-125100000D03*
D11*
X174262500Y-67500000D03*
X172537500Y-67500000D03*
D19*
X163637500Y-68500000D03*
X165362500Y-68500000D03*
D36*
X140950000Y-65700000D03*
X140950000Y-63400000D03*
D37*
X134650000Y-63400000D03*
D36*
X140950000Y-61100000D03*
D38*
X161100000Y-65137500D03*
X161100000Y-66862500D03*
D19*
X149177500Y-61900000D03*
X150902500Y-61900000D03*
D11*
X163462500Y-99320000D03*
X161737500Y-99320000D03*
X174269553Y-69700000D03*
X172544553Y-69700000D03*
X135282500Y-106300000D03*
X133557500Y-106300000D03*
D13*
X143250000Y-94500000D03*
X145075000Y-94500000D03*
D28*
X185892500Y-119795000D03*
X187967500Y-119795000D03*
D32*
X177537053Y-72900000D03*
D33*
X175257053Y-79200000D03*
D32*
X172977053Y-72900000D03*
D39*
X154990000Y-61480000D03*
X158290000Y-61480000D03*
D13*
X123475000Y-115600000D03*
X125300000Y-115600000D03*
X149127500Y-69920000D03*
X150952500Y-69920000D03*
D18*
X136200000Y-112952500D03*
X136200000Y-111127500D03*
D40*
X142150000Y-79550000D03*
X142150000Y-88650000D03*
X137650000Y-79550000D03*
X137650000Y-88650000D03*
X153450000Y-79562500D03*
X153450000Y-88662500D03*
X148950000Y-79562500D03*
X148950000Y-88662500D03*
D18*
X144000000Y-118020000D03*
X144000000Y-116195000D03*
D41*
X150100000Y-104760000D03*
D42*
X150100000Y-102220000D03*
X150100000Y-99680000D03*
X150100000Y-97140000D03*
X150100000Y-94600000D03*
D43*
X142770000Y-98120000D03*
X142270000Y-98120000D03*
X141770000Y-98120000D03*
X141270000Y-98120000D03*
X140770000Y-98120000D03*
X140270000Y-98120000D03*
X139770000Y-98120000D03*
X139270000Y-98120000D03*
X138770000Y-98120000D03*
X138270000Y-98120000D03*
X137770000Y-98120000D03*
X137270000Y-98120000D03*
D44*
X135857500Y-99532500D03*
X135857500Y-100032500D03*
X135857500Y-100532500D03*
X135857500Y-101032500D03*
X135857500Y-101532500D03*
X135857500Y-102032500D03*
X135857500Y-102532500D03*
X135857500Y-103032500D03*
X135857500Y-103532500D03*
X135857500Y-104032500D03*
X135857500Y-104532500D03*
X135857500Y-105032500D03*
D43*
X137270000Y-106445000D03*
X137770000Y-106445000D03*
X138270000Y-106445000D03*
X138770000Y-106445000D03*
X139270000Y-106445000D03*
X139770000Y-106445000D03*
X140270000Y-106445000D03*
X140770000Y-106445000D03*
X141270000Y-106445000D03*
X141770000Y-106445000D03*
X142270000Y-106445000D03*
X142770000Y-106445000D03*
D44*
X144182500Y-105032500D03*
X144182500Y-104532500D03*
X144182500Y-104032500D03*
X144182500Y-103532500D03*
X144182500Y-103032500D03*
X144182500Y-102532500D03*
X144182500Y-102032500D03*
X144182500Y-101532500D03*
X144182500Y-101032500D03*
X144182500Y-100532500D03*
X144182500Y-100032500D03*
X144182500Y-99532500D03*
D32*
X187792053Y-105300000D03*
D33*
X185512053Y-111600000D03*
D32*
X183232053Y-105300000D03*
D13*
X144987500Y-71700000D03*
X146812500Y-71700000D03*
D17*
X146100000Y-99915000D03*
X146100000Y-98190000D03*
D45*
X165205000Y-101609000D03*
X163935000Y-101609000D03*
X162665000Y-101609000D03*
X161395000Y-101609000D03*
X161395000Y-107031000D03*
X162665000Y-107031000D03*
X163935000Y-107031000D03*
X165205000Y-107031000D03*
D17*
X165320000Y-78562500D03*
X165320000Y-76837500D03*
D11*
X163325000Y-78600000D03*
X161600000Y-78600000D03*
D41*
X166400000Y-114800000D03*
D42*
X166400000Y-112260000D03*
D32*
X187792053Y-72900000D03*
D33*
X185512053Y-79200000D03*
D32*
X183232053Y-72900000D03*
D13*
X157150000Y-65040000D03*
X158975000Y-65040000D03*
D14*
X156412500Y-106600000D03*
X154587500Y-106600000D03*
D46*
X140020000Y-117820000D03*
X140970000Y-117820000D03*
X141920000Y-117820000D03*
X141920000Y-115545000D03*
X140970000Y-115545000D03*
X140020000Y-115545000D03*
D45*
X165205000Y-80889000D03*
X163935000Y-80889000D03*
X162665000Y-80889000D03*
X161395000Y-80889000D03*
X161395000Y-86311000D03*
X162665000Y-86311000D03*
X163935000Y-86311000D03*
X165205000Y-86311000D03*
D31*
X124000000Y-119400000D03*
D28*
X185865000Y-116940000D03*
X187940000Y-116940000D03*
D14*
X135800000Y-95400000D03*
X133975000Y-95400000D03*
D31*
X150070000Y-112300000D03*
D19*
X117737500Y-106400000D03*
X119462500Y-106400000D03*
D47*
X166100000Y-61400000D03*
X166100000Y-65600000D03*
D11*
X133982500Y-103552500D03*
X132257500Y-103552500D03*
D17*
X165320000Y-99292500D03*
X165320000Y-97567500D03*
X147000000Y-65282500D03*
X147000000Y-63557500D03*
D19*
X157200000Y-66960000D03*
X158925000Y-66960000D03*
D18*
X167500000Y-107307500D03*
X167500000Y-105482500D03*
D17*
X144910000Y-65292500D03*
X144910000Y-63567500D03*
D48*
X137770000Y-122345000D03*
X138570000Y-122345000D03*
D49*
X139720000Y-122420000D03*
X140720000Y-122420000D03*
X141220000Y-122420000D03*
X142220000Y-122420000D03*
D48*
X143370000Y-122345000D03*
X144170000Y-122345000D03*
X144170000Y-122345000D03*
X143370000Y-122345000D03*
D49*
X142720000Y-122420000D03*
X141720000Y-122420000D03*
X140220000Y-122420000D03*
X139220000Y-122420000D03*
D48*
X138570000Y-122345000D03*
X137770000Y-122345000D03*
D50*
X136650000Y-122995000D03*
D51*
X136650000Y-127175000D03*
D50*
X145290000Y-122995000D03*
D51*
X145290000Y-127175000D03*
D16*
X147000000Y-67637500D03*
X147000000Y-69462500D03*
D31*
X163300000Y-91500000D03*
D16*
X134300000Y-111127500D03*
X134300000Y-112952500D03*
D19*
X143300000Y-96257500D03*
X145025000Y-96257500D03*
D52*
X180457053Y-85650000D03*
X180457053Y-101000000D03*
D16*
X137000000Y-69717500D03*
X137000000Y-71542500D03*
D14*
X154982500Y-69920000D03*
X153157500Y-69920000D03*
D10*
X131400000Y-119400000D03*
D53*
X160450000Y-114500000D03*
X157350000Y-114500000D03*
D54*
X179200000Y-65000000D03*
X188000000Y-65000000D03*
D55*
X134530000Y-71317500D03*
X134530000Y-68342500D03*
D18*
X144900000Y-69482500D03*
X144900000Y-67657500D03*
D56*
X176157053Y-126000000D03*
X176157053Y-118800000D03*
D57*
X148800000Y-96200000D03*
X140775735Y-96175735D03*
X167000000Y-70800000D03*
X145200000Y-107300000D03*
X173000000Y-74500000D03*
X132500000Y-108000000D03*
X177700000Y-118800000D03*
X157400000Y-108500000D03*
X166300000Y-76800000D03*
X138800000Y-94500000D03*
X147000000Y-70500000D03*
X137000000Y-72600000D03*
X143400000Y-88700000D03*
X148400000Y-112300000D03*
X145000000Y-98190000D03*
X142900000Y-100032500D03*
X158900000Y-67900000D03*
X145000000Y-97200000D03*
X132600000Y-97400000D03*
X188000000Y-118200000D03*
X147000000Y-62500000D03*
X119500000Y-105400000D03*
X153157500Y-70900000D03*
X132200000Y-104500000D03*
X134300000Y-114000000D03*
X158300000Y-62600000D03*
X166400000Y-97700000D03*
X163900000Y-87600000D03*
X142300000Y-105200000D03*
X122500000Y-113800000D03*
X128400000Y-98000000D03*
X166600000Y-68500000D03*
X146100000Y-94500000D03*
X161200000Y-67900000D03*
X156200000Y-114500000D03*
X171600000Y-69700000D03*
X150952500Y-70900000D03*
X163900000Y-108300000D03*
X137100000Y-104532500D03*
X188000000Y-66600000D03*
X140900000Y-119000000D03*
X144000000Y-115200000D03*
X131200000Y-101900000D03*
X137900000Y-115200000D03*
X147100000Y-103500000D03*
X120600000Y-108500000D03*
X171500000Y-67500000D03*
X137100000Y-102500000D03*
X144900000Y-62500000D03*
X171900000Y-105300000D03*
X188000000Y-121100000D03*
X132500000Y-106300000D03*
X175100000Y-62000000D03*
X144900000Y-70600000D03*
X143900000Y-65292500D03*
D58*
X175800000Y-69700000D03*
X142800000Y-61100000D03*
D57*
X142400000Y-70580000D03*
X171200000Y-79200000D03*
X160300000Y-80900000D03*
X160200000Y-101600000D03*
X173200000Y-101000000D03*
D58*
X174400000Y-126000000D03*
D57*
X164900000Y-114800000D03*
X157400000Y-106600000D03*
X139100000Y-109900000D03*
X143100000Y-110600000D03*
X146700000Y-108400000D03*
X140070000Y-108400000D03*
X162700000Y-87800000D03*
X138300000Y-111500000D03*
X143100000Y-109799997D03*
X140300000Y-109800000D03*
X162663760Y-79574208D03*
X160300000Y-76800000D03*
X162600000Y-100200000D03*
X160200000Y-97500000D03*
X139600000Y-109200000D03*
X153400000Y-108500000D03*
X117800000Y-105400000D03*
X147700000Y-88662500D03*
X136300000Y-106300000D03*
X130062500Y-99537500D03*
X150100000Y-106000000D03*
X147100000Y-99900000D03*
X143600000Y-107300000D03*
X133982500Y-104500000D03*
X148300000Y-118600000D03*
X143600000Y-97200000D03*
X161700000Y-91500000D03*
X166300000Y-99300000D03*
X166262500Y-78562500D03*
X162500000Y-70800000D03*
X159980000Y-69920000D03*
X119400000Y-110600000D03*
X122500000Y-115600000D03*
X122400000Y-119400000D03*
X141000000Y-114300000D03*
X138800000Y-114300000D03*
X163400000Y-75600000D03*
X189700000Y-72900000D03*
X187800000Y-103500000D03*
X163500000Y-96300000D03*
D59*
X176157053Y-126000000D02*
X174400000Y-126000000D01*
D60*
X162100000Y-114500000D02*
X164340000Y-112260000D01*
X164340000Y-112260000D02*
X166400000Y-112260000D01*
X160450000Y-114500000D02*
X162100000Y-114500000D01*
X139824265Y-96175735D02*
X139800000Y-96200000D01*
X139200000Y-96200000D02*
X137650000Y-94650000D01*
X149220000Y-96200000D02*
X150070000Y-97050000D01*
X139800000Y-96200000D02*
X139200000Y-96200000D01*
X148800000Y-96200000D02*
X149220000Y-96200000D01*
X140775735Y-96175735D02*
X139824265Y-96175735D01*
X139770000Y-98120000D02*
X139770000Y-96230000D01*
X139770000Y-96230000D02*
X139800000Y-96200000D01*
X137650000Y-94650000D02*
X137650000Y-88650000D01*
X125312500Y-112387500D02*
X128100000Y-109600000D01*
X125300000Y-115600000D02*
X125300000Y-113812500D01*
X128100000Y-109600000D02*
X134600000Y-109600000D01*
X135282500Y-108000000D02*
X136900000Y-108000000D01*
X136900000Y-108000000D02*
X137270000Y-107630000D01*
X125300000Y-113812500D02*
X125312500Y-113800000D01*
X134600000Y-109600000D02*
X135282500Y-108917500D01*
X137270000Y-107630000D02*
X137270000Y-106445000D01*
X125312500Y-113800000D02*
X125312500Y-112387500D01*
X135282500Y-108917500D02*
X135282500Y-108000000D01*
D61*
X188000000Y-121100000D02*
X188000000Y-119827500D01*
D60*
X142270000Y-105230000D02*
X142300000Y-105200000D01*
D61*
X150952500Y-70900000D02*
X150952500Y-69920000D01*
X119462500Y-106400000D02*
X119462500Y-105437500D01*
X137225000Y-122420000D02*
X136650000Y-122995000D01*
D60*
X152775000Y-65335000D02*
X152740000Y-65370000D01*
D61*
X145000000Y-97200000D02*
X145000000Y-96282500D01*
X132200000Y-103610000D02*
X132257500Y-103552500D01*
X132062500Y-97400000D02*
X131800000Y-97662500D01*
X143400000Y-88700000D02*
X142200000Y-88700000D01*
X154840000Y-65335000D02*
X152775000Y-65335000D01*
X161100000Y-67800000D02*
X161200000Y-67900000D01*
X145200000Y-108282500D02*
X145182500Y-108300000D01*
X163900000Y-108300000D02*
X163900000Y-107066000D01*
X172977053Y-105300000D02*
X171900000Y-105300000D01*
D60*
X137067500Y-102532500D02*
X137100000Y-102500000D01*
D61*
X188000000Y-65000000D02*
X188000000Y-66600000D01*
X163900000Y-86346000D02*
X163935000Y-86311000D01*
X165320000Y-76837500D02*
X166262500Y-76837500D01*
X140970000Y-117820000D02*
X140970000Y-118930000D01*
X188000000Y-118200000D02*
X188000000Y-117000000D01*
X171600000Y-69700000D02*
X172544553Y-69700000D01*
X120600000Y-108500000D02*
X119500000Y-108500000D01*
X144000000Y-116195000D02*
X144000000Y-115200000D01*
X156400000Y-108500000D02*
X157400000Y-108500000D01*
X145000000Y-98190000D02*
X146100000Y-98190000D01*
X166262500Y-76837500D02*
X166300000Y-76800000D01*
X147000000Y-70500000D02*
X147000000Y-69462500D01*
X158300000Y-62600000D02*
X158300000Y-61490000D01*
X165362500Y-68500000D02*
X166600000Y-68500000D01*
X132600000Y-97400000D02*
X132062500Y-97400000D01*
X188000000Y-119827500D02*
X187967500Y-119795000D01*
X137770000Y-122420000D02*
X137225000Y-122420000D01*
X150070000Y-112300000D02*
X148400000Y-112300000D01*
X139775000Y-94500000D02*
X139800000Y-94475000D01*
D60*
X142270000Y-106445000D02*
X142270000Y-105230000D01*
D61*
X172977053Y-72900000D02*
X172977053Y-74477053D01*
X172977053Y-74477053D02*
X173000000Y-74500000D01*
X172537500Y-67500000D02*
X171500000Y-67500000D01*
X127412500Y-98000000D02*
X127400000Y-97987500D01*
X140970000Y-118930000D02*
X140900000Y-119000000D01*
X134300000Y-114000000D02*
X134300000Y-112952500D01*
X146112500Y-103500000D02*
X146100000Y-103512500D01*
X133557500Y-108000000D02*
X132500000Y-108000000D01*
X177700000Y-118800000D02*
X176157053Y-118800000D01*
X158925000Y-66960000D02*
X158925000Y-67875000D01*
X163900000Y-107066000D02*
X163935000Y-107031000D01*
X132200000Y-104500000D02*
X132200000Y-103610000D01*
X166400000Y-97700000D02*
X165452500Y-97700000D01*
X122500000Y-113800000D02*
X123487500Y-113800000D01*
X157350000Y-114500000D02*
X156200000Y-114500000D01*
X144900000Y-63557500D02*
X144910000Y-63567500D01*
X165452500Y-97700000D02*
X165320000Y-97567500D01*
X145200000Y-107300000D02*
X145200000Y-108282500D01*
X137900000Y-116195000D02*
X137900000Y-115200000D01*
X144715000Y-122420000D02*
X145290000Y-122995000D01*
D60*
X135857500Y-102532500D02*
X137067500Y-102532500D01*
D61*
X161100000Y-66862500D02*
X161100000Y-67800000D01*
X146100000Y-94500000D02*
X145075000Y-94500000D01*
X165767500Y-70800000D02*
X167000000Y-70800000D01*
X142200000Y-88700000D02*
X142150000Y-88650000D01*
X147100000Y-103500000D02*
X146112500Y-103500000D01*
X131200000Y-101900000D02*
X132210000Y-101900000D01*
X158300000Y-61490000D02*
X158290000Y-61480000D01*
X132210000Y-101900000D02*
X132257500Y-101852500D01*
X137000000Y-72600000D02*
X137000000Y-71542500D01*
X145000000Y-96282500D02*
X145025000Y-96257500D01*
X144170000Y-122420000D02*
X144715000Y-122420000D01*
X144900000Y-62500000D02*
X144900000Y-63557500D01*
X158925000Y-67875000D02*
X158900000Y-67900000D01*
X147000000Y-62500000D02*
X147000000Y-63557500D01*
X153157500Y-70900000D02*
X153157500Y-69920000D01*
X138800000Y-94500000D02*
X139775000Y-94500000D01*
X163900000Y-87600000D02*
X163900000Y-86346000D01*
D60*
X137100000Y-104532500D02*
X135857500Y-104532500D01*
X142900000Y-100032500D02*
X144182500Y-100032500D01*
D61*
X119462500Y-105437500D02*
X119500000Y-105400000D01*
X128400000Y-98000000D02*
X127412500Y-98000000D01*
X188000000Y-117000000D02*
X187940000Y-116940000D01*
X133557500Y-106300000D02*
X132500000Y-106300000D01*
D59*
X179200000Y-65000000D02*
X185512053Y-71312053D01*
D62*
X175800000Y-69700000D02*
X174283053Y-69700000D01*
D61*
X144900000Y-70600000D02*
X144900000Y-71612500D01*
X142400000Y-70580000D02*
X141207500Y-70580000D01*
D60*
X144910000Y-65292500D02*
X144992500Y-65292500D01*
X174269553Y-67507053D02*
X174262500Y-67500000D01*
D63*
X149397500Y-65292500D02*
X149440000Y-65335000D01*
D61*
X144910000Y-65292500D02*
X143900000Y-65292500D01*
D59*
X185512053Y-71312053D02*
X185512053Y-79200000D01*
D62*
X174269553Y-69700000D02*
X174269553Y-67507053D01*
D60*
X144992500Y-65292500D02*
X145002500Y-65282500D01*
D62*
X174269553Y-67507053D02*
X174269553Y-66230447D01*
X174269553Y-66230447D02*
X175500000Y-65000000D01*
D59*
X142800000Y-61100000D02*
X140950000Y-61100000D01*
D61*
X144900000Y-71612500D02*
X144987500Y-71700000D01*
D62*
X175500000Y-65000000D02*
X179200000Y-65000000D01*
D61*
X144952500Y-65335000D02*
X144910000Y-65292500D01*
X144900000Y-70600000D02*
X144900000Y-69482500D01*
D60*
X173400000Y-62000000D02*
X175100000Y-62000000D01*
D61*
X149440000Y-65335000D02*
X144952500Y-65335000D01*
D60*
X137087500Y-69630000D02*
X137000000Y-69717500D01*
X139332500Y-69630000D02*
X137087500Y-69630000D01*
X140950000Y-69150000D02*
X140950000Y-65700000D01*
X139332500Y-69630000D02*
X140470000Y-69630000D01*
X140470000Y-69630000D02*
X140950000Y-69150000D01*
D64*
X160311000Y-80889000D02*
X160300000Y-80900000D01*
X161395000Y-80889000D02*
X161395000Y-78805000D01*
D59*
X181900000Y-72900000D02*
X182500000Y-72900000D01*
X179000000Y-79200000D02*
X180300000Y-77900000D01*
D64*
X161395000Y-78805000D02*
X161600000Y-78600000D01*
X171200000Y-79200000D02*
X175257053Y-79200000D01*
D59*
X180457053Y-85650000D02*
X175850000Y-85650000D01*
X175257053Y-85057053D02*
X175257053Y-79200000D01*
X180300000Y-74500000D02*
X181900000Y-72900000D01*
X175850000Y-85650000D02*
X175257053Y-85057053D01*
X180300000Y-77900000D02*
X180300000Y-74500000D01*
X175257053Y-79200000D02*
X179000000Y-79200000D01*
D64*
X161395000Y-80889000D02*
X160311000Y-80889000D01*
D59*
X182400000Y-101000000D02*
X183232053Y-101832053D01*
D64*
X161395000Y-99662500D02*
X161737500Y-99320000D01*
D59*
X180457053Y-101000000D02*
X182400000Y-101000000D01*
X183232053Y-105300000D02*
X181600000Y-105300000D01*
D64*
X173200000Y-101000000D02*
X180457053Y-101000000D01*
D59*
X181600000Y-105300000D02*
X180400000Y-106500000D01*
D64*
X161395000Y-101609000D02*
X161395000Y-99662500D01*
D59*
X183232053Y-101832053D02*
X183232053Y-105300000D01*
D64*
X161395000Y-101609000D02*
X160209000Y-101609000D01*
D59*
X180400000Y-109500000D02*
X178300000Y-111600000D01*
X178300000Y-111600000D02*
X175257053Y-111600000D01*
X180400000Y-106500000D02*
X180400000Y-109500000D01*
D64*
X160209000Y-101609000D02*
X160200000Y-101600000D01*
D61*
X164900000Y-114800000D02*
X166400000Y-114800000D01*
D59*
X180900000Y-126000000D02*
X176157053Y-126000000D01*
D61*
X157400000Y-106600000D02*
X156412500Y-106600000D01*
X185892500Y-111980447D02*
X185512053Y-111600000D01*
D59*
X185892500Y-121007500D02*
X180900000Y-126000000D01*
X185892500Y-119795000D02*
X185892500Y-121007500D01*
X185892500Y-119795000D02*
X185892500Y-111980447D01*
D60*
X139100000Y-109900000D02*
X138770000Y-109570000D01*
X143100000Y-110600000D02*
X161500000Y-110600000D01*
X138770000Y-109570000D02*
X138770000Y-106445000D01*
X162665000Y-109435000D02*
X162665000Y-107031000D01*
X138800000Y-106475000D02*
X138770000Y-106445000D01*
X161500000Y-110600000D02*
X162665000Y-109435000D01*
X150800000Y-108400000D02*
X157700000Y-101500000D01*
X140070000Y-108400000D02*
X139770000Y-108100000D01*
X139770000Y-108100000D02*
X139770000Y-106445000D01*
X146700000Y-108400000D02*
X150800000Y-108400000D01*
X157700000Y-101500000D02*
X157700000Y-92100000D01*
X157700000Y-92100000D02*
X161395000Y-88405000D01*
X161395000Y-88405000D02*
X161395000Y-86311000D01*
X162665000Y-86311000D02*
X162665000Y-87765000D01*
X162665000Y-87765000D02*
X162700000Y-87800000D01*
X138270000Y-111470000D02*
X138270000Y-106445000D01*
X138300000Y-111500000D02*
X138270000Y-111470000D01*
X140270000Y-107570000D02*
X140270000Y-106445000D01*
X143100000Y-109799997D02*
X143100003Y-109800000D01*
X161395000Y-108405000D02*
X161395000Y-107031000D01*
X140300000Y-109800000D02*
X140670000Y-109430000D01*
X140670000Y-109430000D02*
X140670000Y-107970000D01*
X160000000Y-109800000D02*
X161395000Y-108405000D01*
X140300000Y-106475000D02*
X140270000Y-106445000D01*
X143100003Y-109800000D02*
X160000000Y-109800000D01*
X140670000Y-107970000D02*
X140270000Y-107570000D01*
X156360000Y-66960000D02*
X157200000Y-66960000D01*
X157200000Y-66960000D02*
X157200000Y-65090000D01*
X154840000Y-66605000D02*
X156005000Y-66605000D01*
X157200000Y-65090000D02*
X157150000Y-65040000D01*
X156005000Y-66605000D02*
X156360000Y-66960000D01*
D64*
X149200000Y-61922500D02*
X149177500Y-61900000D01*
X149440000Y-64065000D02*
X149200000Y-63825000D01*
X149200000Y-63825000D02*
X149200000Y-61922500D01*
D60*
X157187500Y-69920000D02*
X154982500Y-69920000D01*
X154982500Y-69920000D02*
X154982500Y-68017500D01*
X154982500Y-68017500D02*
X154840000Y-67875000D01*
X149127500Y-69920000D02*
X149127500Y-68187500D01*
X149127500Y-68187500D02*
X149440000Y-67875000D01*
D64*
X167500000Y-86587500D02*
X165481500Y-86587500D01*
X165481500Y-86587500D02*
X165205000Y-86311000D01*
D60*
X162665000Y-79575448D02*
X162663760Y-79574208D01*
X160300000Y-76800000D02*
X161575000Y-76800000D01*
X162665000Y-80889000D02*
X162665000Y-79575448D01*
X162663760Y-80887760D02*
X162665000Y-80889000D01*
D64*
X163935000Y-79210000D02*
X163325000Y-78600000D01*
X163935000Y-80889000D02*
X163935000Y-79210000D01*
X163935000Y-99735000D02*
X163935000Y-101609000D01*
X163520000Y-99320000D02*
X163935000Y-99735000D01*
X163462500Y-99320000D02*
X163520000Y-99320000D01*
X167500000Y-107307500D02*
X165481500Y-107307500D01*
X165481500Y-107307500D02*
X165205000Y-107031000D01*
X161667500Y-97500000D02*
X161687500Y-97520000D01*
X160200000Y-97500000D02*
X161667500Y-97500000D01*
X162665000Y-100265000D02*
X162600000Y-100200000D01*
X162665000Y-101609000D02*
X162665000Y-100265000D01*
D60*
X141920000Y-115545000D02*
X141920000Y-112965000D01*
X140020000Y-115545000D02*
X140020000Y-112952500D01*
X144182500Y-105032500D02*
X147287500Y-105032500D01*
X147287500Y-105032500D02*
X150100000Y-102220000D01*
X146967500Y-104532500D02*
X148400000Y-103100000D01*
X148400000Y-100200000D02*
X149010000Y-99590000D01*
X148400000Y-103100000D02*
X148400000Y-100200000D01*
X149010000Y-99590000D02*
X150070000Y-99590000D01*
X144182500Y-104532500D02*
X146967500Y-104532500D01*
X143250000Y-94500000D02*
X143250000Y-94750000D01*
X143250000Y-94750000D02*
X140770000Y-97230000D01*
X143250000Y-93450000D02*
X146812500Y-89887500D01*
X140770000Y-97230000D02*
X140770000Y-98120000D01*
X146812500Y-89887500D02*
X146812500Y-71700000D01*
X143250000Y-94500000D02*
X143250000Y-93450000D01*
X154587500Y-108487500D02*
X154575000Y-108500000D01*
X139570000Y-109200000D02*
X139270000Y-108900000D01*
X139600000Y-109200000D02*
X139570000Y-109200000D01*
X154587500Y-106600000D02*
X154587500Y-108487500D01*
X153400000Y-108500000D02*
X154575000Y-108500000D01*
X139270000Y-108900000D02*
X139270000Y-106445000D01*
X137770000Y-109430000D02*
X136200000Y-111000000D01*
X136200000Y-111000000D02*
X136200000Y-111127500D01*
X136200000Y-111127500D02*
X134300000Y-111127500D01*
X137770000Y-109430000D02*
X137770000Y-106445000D01*
D64*
X154840000Y-64065000D02*
X155000000Y-63905000D01*
X154990000Y-60610000D02*
X154990000Y-61480000D01*
X155000000Y-63905000D02*
X155000000Y-61490000D01*
X150902500Y-61900000D02*
X152600000Y-61900000D01*
X153020000Y-61480000D02*
X154990000Y-61480000D01*
X166100000Y-61400000D02*
X161800000Y-61400000D01*
X152600000Y-61900000D02*
X153020000Y-61480000D01*
X155000000Y-61490000D02*
X154990000Y-61480000D01*
X161800000Y-61400000D02*
X160300000Y-59900000D01*
X160300000Y-59900000D02*
X155700000Y-59900000D01*
X155700000Y-59900000D02*
X154990000Y-60610000D01*
D60*
X142770000Y-106445000D02*
X142770000Y-107612500D01*
X142770000Y-107612500D02*
X143457500Y-108300000D01*
X135857500Y-105725000D02*
X135282500Y-106300000D01*
D61*
X147700000Y-88662500D02*
X148950000Y-88662500D01*
X117737500Y-106400000D02*
X117737500Y-105462500D01*
D60*
X145717500Y-99532500D02*
X146100000Y-99915000D01*
X143600000Y-107300000D02*
X143600000Y-108157500D01*
D61*
X150100000Y-104760000D02*
X150100000Y-106000000D01*
D60*
X146115000Y-99900000D02*
X146100000Y-99915000D01*
D61*
X130062500Y-99537500D02*
X130850000Y-99537500D01*
X117600000Y-106537500D02*
X117737500Y-106400000D01*
D60*
X142770000Y-98120000D02*
X142770000Y-96787500D01*
X143600000Y-96557500D02*
X143300000Y-96257500D01*
X135857500Y-103532500D02*
X134002500Y-103532500D01*
X147100000Y-99900000D02*
X146115000Y-99900000D01*
X135282500Y-106300000D02*
X136300000Y-106300000D01*
X144182500Y-99532500D02*
X145717500Y-99532500D01*
X142770000Y-96787500D02*
X143300000Y-96257500D01*
D61*
X133982500Y-104500000D02*
X133982500Y-103552500D01*
D60*
X134002500Y-103532500D02*
X133982500Y-103552500D01*
D61*
X148300000Y-118600000D02*
X150070000Y-118600000D01*
D60*
X143600000Y-108157500D02*
X143457500Y-108300000D01*
X143600000Y-97200000D02*
X143600000Y-96557500D01*
D61*
X117737500Y-105462500D02*
X117800000Y-105400000D01*
X117600000Y-108500000D02*
X117600000Y-106537500D01*
D60*
X135857500Y-105032500D02*
X135857500Y-105725000D01*
D61*
X161700000Y-91500000D02*
X163300000Y-91500000D01*
D60*
X159980000Y-69920000D02*
X159012500Y-69920000D01*
D61*
X163637500Y-70745000D02*
X163692500Y-70800000D01*
X165205000Y-78677500D02*
X165320000Y-78562500D01*
X166262500Y-78562500D02*
X165320000Y-78562500D01*
X165205000Y-99407500D02*
X165320000Y-99292500D01*
X165205000Y-101609000D02*
X165205000Y-99407500D01*
X165320000Y-99292500D02*
X166292500Y-99292500D01*
X163637500Y-68500000D02*
X163637500Y-70745000D01*
X166292500Y-99292500D02*
X166300000Y-99300000D01*
X163692500Y-70800000D02*
X162500000Y-70800000D01*
X164800000Y-65600000D02*
X166100000Y-65600000D01*
X163637500Y-66762500D02*
X164800000Y-65600000D01*
X165205000Y-80889000D02*
X165205000Y-78677500D01*
X163637500Y-68500000D02*
X163637500Y-66762500D01*
X118775000Y-110600000D02*
X118550000Y-110375000D01*
X124000000Y-119400000D02*
X122400000Y-119400000D01*
X123475000Y-115600000D02*
X122500000Y-115600000D01*
X119400000Y-110600000D02*
X118775000Y-110600000D01*
D60*
X140487176Y-123296000D02*
X140220000Y-123028824D01*
X141220000Y-122420000D02*
X141220000Y-123028824D01*
X140220000Y-123028824D02*
X140220000Y-122420000D01*
X140220000Y-118020000D02*
X140020000Y-117820000D01*
X140220000Y-122420000D02*
X140220000Y-118020000D01*
X140952824Y-123296000D02*
X140487176Y-123296000D01*
X141220000Y-123028824D02*
X140952824Y-123296000D01*
X139720000Y-122420000D02*
X139720000Y-121620000D01*
X139720000Y-121620000D02*
X137900000Y-119800000D01*
X137900000Y-119800000D02*
X137900000Y-118020000D01*
X142720000Y-121080000D02*
X144000000Y-119800000D01*
X142720000Y-122420000D02*
X142720000Y-121080000D01*
X144000000Y-119800000D02*
X144000000Y-118020000D01*
X140720000Y-121811176D02*
X140720000Y-122420000D01*
X141452824Y-121544000D02*
X140987176Y-121544000D01*
X140720000Y-120080000D02*
X141920000Y-118880000D01*
X140720000Y-122420000D02*
X140720000Y-120080000D01*
X141720000Y-122420000D02*
X141720000Y-121811176D01*
X140987176Y-121544000D02*
X140720000Y-121811176D01*
X141920000Y-118880000D02*
X141920000Y-117820000D01*
X141720000Y-121811176D02*
X141452824Y-121544000D01*
X142448824Y-123800000D02*
X139400000Y-123800000D01*
X137452500Y-112952500D02*
X138800000Y-114300000D01*
X140970000Y-114330000D02*
X141000000Y-114300000D01*
X143370000Y-122420000D02*
X143370000Y-122878824D01*
X138570000Y-122970000D02*
X138570000Y-121470000D01*
X138570000Y-121470000D02*
X136200000Y-119100000D01*
X136200000Y-119100000D02*
X136200000Y-112952500D01*
X136200000Y-112952500D02*
X137452500Y-112952500D01*
X139400000Y-123800000D02*
X138570000Y-122970000D01*
X140970000Y-115545000D02*
X140970000Y-114330000D01*
X143370000Y-122878824D02*
X142448824Y-123800000D01*
X132750000Y-99537500D02*
X132750000Y-100800000D01*
X134932500Y-103032500D02*
X133982500Y-102082500D01*
X135857500Y-103032500D02*
X134932500Y-103032500D01*
X129800000Y-100800000D02*
X126600000Y-104000000D01*
X126600000Y-104000000D02*
X126600000Y-105900000D01*
X133982500Y-101182500D02*
X133600000Y-100800000D01*
X133600000Y-100800000D02*
X129800000Y-100800000D01*
X133982500Y-102082500D02*
X133982500Y-101852500D01*
X133982500Y-101852500D02*
X133982500Y-101182500D01*
X127400000Y-95800000D02*
X127400000Y-96412500D01*
X133975000Y-95400000D02*
X127800000Y-95400000D01*
X127800000Y-95400000D02*
X127400000Y-95800000D01*
X153450000Y-90450000D02*
X152300000Y-91600000D01*
X153450000Y-88662500D02*
X153450000Y-90450000D01*
X147900000Y-92700000D02*
X147900000Y-100600000D01*
X152300000Y-91600000D02*
X149000000Y-91600000D01*
X145445000Y-101032500D02*
X144182500Y-101032500D01*
X146812500Y-101687500D02*
X146100000Y-101687500D01*
X147900000Y-100600000D02*
X146812500Y-101687500D01*
X146100000Y-101687500D02*
X145445000Y-101032500D01*
X149000000Y-91600000D02*
X147900000Y-92700000D01*
X137270000Y-95970000D02*
X136700000Y-95400000D01*
X136700000Y-95400000D02*
X135800000Y-95400000D01*
X137270000Y-98120000D02*
X137270000Y-95970000D01*
X140020000Y-111127500D02*
X141270000Y-109877500D01*
X141270000Y-109877500D02*
X141270000Y-106445000D01*
X141770000Y-110990000D02*
X141920000Y-111140000D01*
X141770000Y-106445000D02*
X141770000Y-110990000D01*
D59*
X134530000Y-63520000D02*
X134650000Y-63400000D01*
X134650000Y-63400000D02*
X140950000Y-63400000D01*
X134530000Y-68342500D02*
X134530000Y-63520000D01*
X128867500Y-71317500D02*
X134530000Y-71317500D01*
X125670000Y-68120000D02*
X128867500Y-71317500D01*
D64*
X163400000Y-75600000D02*
X163400000Y-76800000D01*
X187792053Y-72900000D02*
X189700000Y-72900000D01*
X177100000Y-71200000D02*
X177537053Y-71637053D01*
X177537053Y-71637053D02*
X177537053Y-72900000D01*
X167500000Y-74700000D02*
X171000000Y-71200000D01*
X167500000Y-84762500D02*
X167500000Y-74700000D01*
X171000000Y-71200000D02*
X177100000Y-71200000D01*
X187792053Y-105300000D02*
X187792053Y-103507947D01*
X163500000Y-96300000D02*
X163500000Y-97507500D01*
X187792053Y-103507947D02*
X187800000Y-103500000D01*
X163500000Y-97507500D02*
X163512500Y-97520000D01*
X177000000Y-103600000D02*
X177537053Y-104137053D01*
X168600000Y-103600000D02*
X177000000Y-103600000D01*
X177537053Y-104137053D02*
X177537053Y-105300000D01*
X167500000Y-104700000D02*
X168600000Y-103600000D01*
X167500000Y-105482500D02*
X167500000Y-104700000D01*
D60*
X146980000Y-67657500D02*
X147000000Y-67637500D01*
X147000000Y-67000000D02*
X147000000Y-67637500D01*
X147395000Y-66605000D02*
X147000000Y-67000000D01*
X149440000Y-66605000D02*
X147395000Y-66605000D01*
X144900000Y-67657500D02*
X146980000Y-67657500D01*
X161002500Y-65040000D02*
X161100000Y-65137500D01*
X158975000Y-65040000D02*
X161002500Y-65040000D01*
M02*
