G04 #@! TF.GenerationSoftware,KiCad,Pcbnew,9.0.6*
G04 #@! TF.CreationDate,2026-06-09T10:52:25+02:00*
G04 #@! TF.ProjectId,Convertisseur DC-DC,436f6e76-6572-4746-9973-736575722044,rev?*
G04 #@! TF.SameCoordinates,Original*
G04 #@! TF.FileFunction,Paste,Top*
G04 #@! TF.FilePolarity,Positive*
%FSLAX46Y46*%
G04 Gerber Fmt 4.6, Leading zero omitted, Abs format (unit mm)*
G04 Created by KiCad (PCBNEW 9.0.6) date 2026-06-09 10:52:25*
%MOMM*%
%LPD*%
G01*
G04 APERTURE LIST*
G04 Aperture macros list*
%AMRoundRect*
0 Rectangle with rounded corners*
0 $1 Rounding radius*
0 $2 $3 $4 $5 $6 $7 $8 $9 X,Y pos of 4 corners*
0 Add a 4 corners polygon primitive as box body*
4,1,4,$2,$3,$4,$5,$6,$7,$8,$9,$2,$3,0*
0 Add four circle primitives for the rounded corners*
1,1,$1+$1,$2,$3*
1,1,$1+$1,$4,$5*
1,1,$1+$1,$6,$7*
1,1,$1+$1,$8,$9*
0 Add four rect primitives between the rounded corners*
20,1,$1+$1,$2,$3,$4,$5,0*
20,1,$1+$1,$4,$5,$6,$7,0*
20,1,$1+$1,$6,$7,$8,$9,0*
20,1,$1+$1,$8,$9,$2,$3,0*%
G04 Aperture macros list end*
%ADD10RoundRect,0.237500X0.300000X0.237500X-0.300000X0.237500X-0.300000X-0.237500X0.300000X-0.237500X0*%
%ADD11RoundRect,0.150000X-0.150000X0.587500X-0.150000X-0.587500X0.150000X-0.587500X0.150000X0.587500X0*%
%ADD12RoundRect,0.237500X-0.250000X-0.237500X0.250000X-0.237500X0.250000X0.237500X-0.250000X0.237500X0*%
%ADD13RoundRect,0.237500X0.250000X0.237500X-0.250000X0.237500X-0.250000X-0.237500X0.250000X-0.237500X0*%
%ADD14RoundRect,0.218750X0.256250X-0.218750X0.256250X0.218750X-0.256250X0.218750X-0.256250X-0.218750X0*%
%ADD15RoundRect,0.237500X-0.237500X0.250000X-0.237500X-0.250000X0.237500X-0.250000X0.237500X0.250000X0*%
%ADD16RoundRect,0.237500X0.237500X-0.300000X0.237500X0.300000X-0.237500X0.300000X-0.237500X-0.300000X0*%
%ADD17RoundRect,0.237500X0.237500X-0.250000X0.237500X0.250000X-0.237500X0.250000X-0.237500X-0.250000X0*%
%ADD18RoundRect,0.237500X-0.300000X-0.237500X0.300000X-0.237500X0.300000X0.237500X-0.300000X0.237500X0*%
%ADD19R,1.550000X0.600000*%
%ADD20R,2.600000X3.100000*%
%ADD21RoundRect,0.150000X-0.587500X-0.150000X0.587500X-0.150000X0.587500X0.150000X-0.587500X0.150000X0*%
%ADD22RoundRect,0.150000X0.150000X-0.587500X0.150000X0.587500X-0.150000X0.587500X-0.150000X-0.587500X0*%
%ADD23RoundRect,0.250000X-0.337500X-0.475000X0.337500X-0.475000X0.337500X0.475000X-0.337500X0.475000X0*%
%ADD24RoundRect,0.250000X-1.125000X1.275000X-1.125000X-1.275000X1.125000X-1.275000X1.125000X1.275000X0*%
%ADD25RoundRect,0.250000X-0.350000X0.850000X-0.350000X-0.850000X0.350000X-0.850000X0.350000X0.850000X0*%
%ADD26RoundRect,0.375000X0.625000X0.375000X-0.625000X0.375000X-0.625000X-0.375000X0.625000X-0.375000X0*%
%ADD27RoundRect,0.500000X0.500000X1.400000X-0.500000X1.400000X-0.500000X-1.400000X0.500000X-1.400000X0*%
%ADD28RoundRect,0.237500X-0.237500X0.300000X-0.237500X-0.300000X0.237500X-0.300000X0.237500X0.300000X0*%
%ADD29RoundRect,0.225000X-0.225000X-0.375000X0.225000X-0.375000X0.225000X0.375000X-0.225000X0.375000X0*%
%ADD30R,1.400000X2.100000*%
%ADD31RoundRect,0.075000X-0.075000X0.662500X-0.075000X-0.662500X0.075000X-0.662500X0.075000X0.662500X0*%
%ADD32RoundRect,0.075000X-0.662500X0.075000X-0.662500X-0.075000X0.662500X-0.075000X0.662500X0.075000X0*%
%ADD33R,0.650000X1.528000*%
%ADD34RoundRect,0.150000X0.150000X-0.512500X0.150000X0.512500X-0.150000X0.512500X-0.150000X-0.512500X0*%
%ADD35RoundRect,0.475000X-2.075000X0.475000X-2.075000X-0.475000X2.075000X-0.475000X2.075000X0.475000X0*%
%ADD36RoundRect,0.150000X-0.150000X-0.350000X0.150000X-0.350000X0.150000X0.350000X-0.150000X0.350000X0*%
%ADD37RoundRect,0.075000X-0.075000X-0.500000X0.075000X-0.500000X0.075000X0.500000X-0.075000X0.500000X0*%
%ADD38O,1.000000X2.100000*%
%ADD39O,1.000000X1.800000*%
%ADD40R,12.500000X3.150000*%
%ADD41RoundRect,0.250000X0.400000X0.625000X-0.400000X0.625000X-0.400000X-0.625000X0.400000X-0.625000X0*%
%ADD42RoundRect,0.250001X-2.049999X-0.799999X2.049999X-0.799999X2.049999X0.799999X-2.049999X0.799999X0*%
%ADD43RoundRect,0.250001X0.624999X-0.462499X0.624999X0.462499X-0.624999X0.462499X-0.624999X-0.462499X0*%
%ADD44RoundRect,0.250001X0.799999X-1.999999X0.799999X1.999999X-0.799999X1.999999X-0.799999X-1.999999X0*%
G04 APERTURE END LIST*
D10*
X135282500Y-108000000D03*
X133557500Y-108000000D03*
D11*
X119500000Y-108500000D03*
X117600000Y-108500000D03*
X118550000Y-110375000D03*
D12*
X154575000Y-108500000D03*
X156400000Y-108500000D03*
D10*
X133982500Y-101852500D03*
X132257500Y-101852500D03*
D13*
X159012500Y-69920000D03*
X157187500Y-69920000D03*
D14*
X127400000Y-97987500D03*
X127400000Y-96412500D03*
D15*
X140020000Y-111127500D03*
X140020000Y-112952500D03*
X141920000Y-111140000D03*
X141920000Y-112965000D03*
D16*
X139800000Y-96200000D03*
X139800000Y-94475000D03*
D17*
X137900000Y-118020000D03*
X137900000Y-116195000D03*
D18*
X143457500Y-108300000D03*
X145182500Y-108300000D03*
D19*
X149440000Y-64065000D03*
X149440000Y-65335000D03*
X149440000Y-66605000D03*
X149440000Y-67875000D03*
X154840000Y-67875000D03*
X154840000Y-66605000D03*
X154840000Y-65335000D03*
X154840000Y-64065000D03*
D20*
X152140000Y-65970000D03*
D15*
X146100000Y-101687500D03*
X146100000Y-103512500D03*
D21*
X139332500Y-69630000D03*
X139332500Y-71530000D03*
X141207500Y-70580000D03*
D12*
X161687500Y-97520000D03*
X163512500Y-97520000D03*
D22*
X130850000Y-99537500D03*
X132750000Y-99537500D03*
X131800000Y-97662500D03*
D17*
X167500000Y-86587500D03*
X167500000Y-84762500D03*
D23*
X163692500Y-70800000D03*
X165767500Y-70800000D03*
D12*
X161575000Y-76800000D03*
X163400000Y-76800000D03*
D24*
X176782053Y-109925000D03*
X173732053Y-109925000D03*
X176782053Y-113275000D03*
X173732053Y-113275000D03*
D25*
X177537053Y-105300000D03*
X172977053Y-105300000D03*
D13*
X125312500Y-113800000D03*
X123487500Y-113800000D03*
D10*
X174262500Y-67500000D03*
X172537500Y-67500000D03*
D18*
X163637500Y-68500000D03*
X165362500Y-68500000D03*
D26*
X140950000Y-65700000D03*
X140950000Y-63400000D03*
D27*
X134650000Y-63400000D03*
D26*
X140950000Y-61100000D03*
D28*
X161100000Y-65137500D03*
X161100000Y-66862500D03*
D18*
X149177500Y-61900000D03*
X150902500Y-61900000D03*
D10*
X163462500Y-99320000D03*
X161737500Y-99320000D03*
X174269553Y-69700000D03*
X172544553Y-69700000D03*
X135282500Y-106300000D03*
X133557500Y-106300000D03*
D12*
X143250000Y-94500000D03*
X145075000Y-94500000D03*
D23*
X185892500Y-119795000D03*
X187967500Y-119795000D03*
D24*
X176782053Y-77525000D03*
X173732053Y-77525000D03*
X176782053Y-80875000D03*
X173732053Y-80875000D03*
D25*
X177537053Y-72900000D03*
X172977053Y-72900000D03*
D29*
X154990000Y-61480000D03*
X158290000Y-61480000D03*
D12*
X123475000Y-115600000D03*
X125300000Y-115600000D03*
X149127500Y-69920000D03*
X150952500Y-69920000D03*
D17*
X136200000Y-112952500D03*
X136200000Y-111127500D03*
D30*
X142150000Y-79550000D03*
X142150000Y-88650000D03*
X137650000Y-79550000D03*
X137650000Y-88650000D03*
X153450000Y-79562500D03*
X153450000Y-88662500D03*
X148950000Y-79562500D03*
X148950000Y-88662500D03*
D17*
X144000000Y-118020000D03*
X144000000Y-116195000D03*
D31*
X142770000Y-98120000D03*
X142270000Y-98120000D03*
X141770000Y-98120000D03*
X141270000Y-98120000D03*
X140770000Y-98120000D03*
X140270000Y-98120000D03*
X139770000Y-98120000D03*
X139270000Y-98120000D03*
X138770000Y-98120000D03*
X138270000Y-98120000D03*
X137770000Y-98120000D03*
X137270000Y-98120000D03*
D32*
X135857500Y-99532500D03*
X135857500Y-100032500D03*
X135857500Y-100532500D03*
X135857500Y-101032500D03*
X135857500Y-101532500D03*
X135857500Y-102032500D03*
X135857500Y-102532500D03*
X135857500Y-103032500D03*
X135857500Y-103532500D03*
X135857500Y-104032500D03*
X135857500Y-104532500D03*
X135857500Y-105032500D03*
D31*
X137270000Y-106445000D03*
X137770000Y-106445000D03*
X138270000Y-106445000D03*
X138770000Y-106445000D03*
X139270000Y-106445000D03*
X139770000Y-106445000D03*
X140270000Y-106445000D03*
X140770000Y-106445000D03*
X141270000Y-106445000D03*
X141770000Y-106445000D03*
X142270000Y-106445000D03*
X142770000Y-106445000D03*
D32*
X144182500Y-105032500D03*
X144182500Y-104532500D03*
X144182500Y-104032500D03*
X144182500Y-103532500D03*
X144182500Y-103032500D03*
X144182500Y-102532500D03*
X144182500Y-102032500D03*
X144182500Y-101532500D03*
X144182500Y-101032500D03*
X144182500Y-100532500D03*
X144182500Y-100032500D03*
X144182500Y-99532500D03*
D24*
X187037053Y-109925000D03*
X183987053Y-109925000D03*
X187037053Y-113275000D03*
X183987053Y-113275000D03*
D25*
X187792053Y-105300000D03*
X183232053Y-105300000D03*
D12*
X144987500Y-71700000D03*
X146812500Y-71700000D03*
D16*
X146100000Y-99915000D03*
X146100000Y-98190000D03*
D33*
X165205000Y-101609000D03*
X163935000Y-101609000D03*
X162665000Y-101609000D03*
X161395000Y-101609000D03*
X161395000Y-107031000D03*
X162665000Y-107031000D03*
X163935000Y-107031000D03*
X165205000Y-107031000D03*
D16*
X165320000Y-78562500D03*
X165320000Y-76837500D03*
D10*
X163325000Y-78600000D03*
X161600000Y-78600000D03*
D24*
X187037053Y-77525000D03*
X183987053Y-77525000D03*
X187037053Y-80875000D03*
X183987053Y-80875000D03*
D25*
X187792053Y-72900000D03*
X183232053Y-72900000D03*
D12*
X157150000Y-65040000D03*
X158975000Y-65040000D03*
D13*
X156412500Y-106600000D03*
X154587500Y-106600000D03*
D34*
X140020000Y-117820000D03*
X140970000Y-117820000D03*
X141920000Y-117820000D03*
X141920000Y-115545000D03*
X140970000Y-115545000D03*
X140020000Y-115545000D03*
D33*
X165205000Y-80889000D03*
X163935000Y-80889000D03*
X162665000Y-80889000D03*
X161395000Y-80889000D03*
X161395000Y-86311000D03*
X162665000Y-86311000D03*
X163935000Y-86311000D03*
X165205000Y-86311000D03*
D23*
X185865000Y-116940000D03*
X187940000Y-116940000D03*
D13*
X135800000Y-95400000D03*
X133975000Y-95400000D03*
D18*
X117737500Y-106400000D03*
X119462500Y-106400000D03*
D35*
X166100000Y-61400000D03*
X166100000Y-65600000D03*
D10*
X133982500Y-103552500D03*
X132257500Y-103552500D03*
D16*
X165320000Y-99292500D03*
X165320000Y-97567500D03*
X147000000Y-65282500D03*
X147000000Y-63557500D03*
D18*
X157200000Y-66960000D03*
X158925000Y-66960000D03*
D17*
X167500000Y-107307500D03*
X167500000Y-105482500D03*
D16*
X144910000Y-65292500D03*
X144910000Y-63567500D03*
D36*
X137770000Y-122345000D03*
X138570000Y-122345000D03*
D37*
X139720000Y-122420000D03*
X140720000Y-122420000D03*
X141220000Y-122420000D03*
X142220000Y-122420000D03*
D36*
X143370000Y-122345000D03*
X144170000Y-122345000D03*
X144170000Y-122345000D03*
X143370000Y-122345000D03*
D37*
X142720000Y-122420000D03*
X141720000Y-122420000D03*
X140220000Y-122420000D03*
X139220000Y-122420000D03*
D36*
X138570000Y-122345000D03*
X137770000Y-122345000D03*
D38*
X136650000Y-122995000D03*
D39*
X136650000Y-127175000D03*
D38*
X145290000Y-122995000D03*
D39*
X145290000Y-127175000D03*
D15*
X147000000Y-67637500D03*
X147000000Y-69462500D03*
X134300000Y-111127500D03*
X134300000Y-112952500D03*
D18*
X143300000Y-96257500D03*
X145025000Y-96257500D03*
D40*
X180457053Y-85650000D03*
X180457053Y-101000000D03*
D15*
X137000000Y-69717500D03*
X137000000Y-71542500D03*
D13*
X154982500Y-69920000D03*
X153157500Y-69920000D03*
D41*
X160450000Y-114500000D03*
X157350000Y-114500000D03*
D42*
X179200000Y-65000000D03*
X188000000Y-65000000D03*
D43*
X134530000Y-71317500D03*
X134530000Y-68342500D03*
D17*
X144900000Y-69482500D03*
X144900000Y-67657500D03*
D44*
X176157053Y-126000000D03*
X176157053Y-118800000D03*
M02*
